<?xml version="1.0" encoding="utf-8"?>
<!-- Generator: Adobe Illustrator 19.2.1, SVG Export Plug-In . SVG Version: 6.00 Build 0)  -->
<svg version="1.1" id="Capa_1" xmlns="http://www.w3.org/2000/svg" xmlns:xlink="http://www.w3.org/1999/xlink" x="0px" y="0px"
	 viewBox="0 0 109 31" style="enable-background:new 0 0 109 31;" xml:space="preserve">
<style type="text/css">
	.st0{fill:#FFFFFF;stroke:#000000;}
	.st1{fill:#F7284B;}
</style>
<title>Group 7 Copy</title>
<desc>Created with Sketch.</desc>
<g id="primera-vez-deviser">
	<g id="BECOMEADEVISER" transform="translate(-445.000000, -839.000000)">
		<g id="Group-6" transform="translate(217.000000, 509.000000)">
			<g id="Group-7-Copy" transform="translate(228.000000, 330.000000)">
				<g id="Oval-30-_x2B_-Oval-29-Copy-2" transform="translate(0.559493, 0.500000)">
					<g id="Group-5" transform="translate(0.000000, 0.905741)">
						<path id="Oval-30" class="st0" d="M13.2,28.3c7.3,0,13.1-2.7,13.1-8S20.5,9.1,13.2,9.1S0.1,15,0.1,20.3S5.9,28.3,13.2,28.3z"
							/>
						<ellipse id="Oval-29" class="st0" cx="13.2" cy="7.8" rx="7.5" ry="7.8"/>
					</g>
					<g id="Group-2" transform="translate(81.058448, 0.905741)">
						<path id="Oval-30-Copy-2" class="st0" d="M13.7,28.3c7.3,0,13.1-2.7,13.1-8S21,9.1,13.7,9.1S0.6,15,0.6,20.3
							S6.5,28.3,13.7,28.3z"/>
						<ellipse id="Oval-29-Copy-2" class="st0" cx="13.8" cy="7.8" rx="7.5" ry="7.8"/>
					</g>
				</g>
			</g>
		</g>
	</g>
</g>
<path class="st1" d="M40.5,25.5c0.7-0.9,1.5-2,2.3-2.9c1.8-1.9,4.1-3,6.6-3.5c1.8-0.3,3.5-0.4,5.3-0.5c0.5,0,1,0,1.6,0
	c0,2.2,0,4.3,0,6.6c3.8-3.2,7.6-6.4,11.4-9.6c-3.8-3.4-7.5-6.8-11.4-10.2c0,1.9,0,3.8,0,5.6c-0.7,0.1-1.4,0.1-2.1,0.2
	c-3.3,0.4-6.1,1.8-8.5,4.2c-2.7,2.8-4.3,6.2-5.3,10C40.5,25.5,40.5,25.6,40.5,25.5z"/>
</svg>
