<?xml version="1.0" encoding="UTF-8"?>
<svg width="16px" height="22px" viewBox="0 0 16 22" version="1.1" xmlns="http://www.w3.org/2000/svg" xmlns:xlink="http://www.w3.org/1999/xlink">
    <!-- Generator: Sketch 46.2 (44496) - http://www.bohemiancoding.com/sketch -->
    <title>Page 1</title>
    <desc>Created with Sketch.</desc>
    <defs></defs>
    <g id="Page-1" stroke="none" stroke-width="1" fill="none" fill-rule="evenodd">
        <g id="REDISEÑO" transform="translate(-1372.000000, -439.000000)">
            <g id="Page-1" transform="translate(1372.000000, 439.000000)">
                <g id="Group-3" fill="#000000">
                    <path d="M2.00193091,3.05446358 L13.1569159,3.05446358 L2.00193091,3.05446358 Z M5.94645825,2.03692694 L9.21230411,2.03692694 L9.21230411,1.01749019 L5.94645825,1.01749019 L5.94645825,2.03692694 Z M13.9821601,3.05442135 L14.7463894,3.05442135 C14.9741085,3.05442135 15.1587581,2.82666002 15.1587581,2.54565304 C15.1587581,2.2647305 14.9741507,2.03696917 14.7463894,2.03696917 L10.0369994,2.03696917 L10.0369994,1.01149425 C10.0369994,0.453744996 9.66976912,-4.22249413e-06 9.2183845,-4.22249413e-06 L5.94037786,-4.22249413e-06 C5.48899324,-4.22249413e-06 5.12180515,0.453744996 5.12180515,1.01149425 L5.12180515,2.03692694 L0.412330774,2.03692694 C0.184611666,2.03692694 4.22249413e-06,2.26468828 4.22249413e-06,2.54569526 C4.22249413e-06,2.82670225 0.184611666,3.05446358 0.412330774,3.05446358 L1.17660221,3.05446358 L13.9821601,3.05442135 Z" id="Fill-1"></path>
                </g>
                <g id="Group-6" transform="translate(0.000000, 3.673570)" fill="#000000">
                    <path d="M14.3142551,17.8189252 L0.844498825,17.8189252 C0.565814213,17.8189252 0.33779953,17.6026913 0.33779953,17.3384054 L0,0.480519832 C0,0.216233924 0.228014683,0 0.506699295,0 L14.6520546,0 C14.9307392,0 15.1587539,0.216233924 15.1587539,0.480519832 L14.8209544,17.3384054 C14.8209544,17.6026913 14.5929397,17.8189252 14.3142551,17.8189252" id="Fill-4"></path>
                </g>
                <path d="M4.46788437,8.65409039 C4.46269071,8.3764614 4.24320546,8.15511825 3.97545711,8.15511825 C3.97224801,8.15511825 3.96899669,8.15511825 3.96574537,8.1552027 C3.6937323,8.1606075 3.4773717,8.39276022 3.48260759,8.67364053 L3.63723533,16.9764996 C3.64238677,17.2541286 3.86191424,17.4754718 4.12966259,17.4754718 C4.13287169,17.4754718 4.13616523,17.4754718 4.1393321,17.4753873 C4.4113874,17.4699825 4.627748,17.2379142 4.62251211,16.9569495 L4.46788437,8.65409039 Z" id="Fill-7" fill="#FFFFFF"></path>
                <path d="M7.57933473,8.15506336 C7.29951005,8.15506336 7.07263544,8.38282469 7.07263544,8.66383168 L7.07263544,16.966733 C7.07263544,17.2476555 7.29946782,17.4754591 7.57933473,17.4754591 C7.85924387,17.4754591 8.08603403,17.2476978 8.08603403,16.966733 L8.08603403,8.66383168 C8.08603403,8.38286692 7.85924387,8.15506336 7.57933473,8.15506336" id="Fill-9" fill="#FFFFFF"></path>
                <path d="M11.1929917,8.15520693 C10.9219075,8.14899986 10.6960463,8.37317207 10.6908527,8.65409461 L10.5362249,16.9569537 C10.5309468,17.2378762 10.7473496,17.4699867 11.0194471,17.4753915 C11.022614,17.4754338 11.0258653,17.475476 11.0290744,17.475476 C11.2967806,17.475476 11.5163503,17.2540484 11.5215017,16.9765039 L11.6761294,8.67364476 C11.6813653,8.39268 11.4650892,8.16056949 11.1929917,8.15520693" id="Fill-11" fill="#FFFFFF"></path>
            </g>
        </g>
    </g>
</svg>