<?xml version="1.0" encoding="utf-8"?>
<!-- Generator: Adobe Illustrator 18.0.0, SVG Export Plug-In . SVG Version: 6.00 Build 0)  -->
<!DOCTYPE svg PUBLIC "-//W3C//DTD SVG 1.1//EN" "http://www.w3.org/Graphics/SVG/1.1/DTD/svg11.dtd">
<svg version="1.1" id="Capa_1" xmlns="http://www.w3.org/2000/svg" xmlns:xlink="http://www.w3.org/1999/xlink" x="0px" y="0px"
	 viewBox="0.9 0.9 30.1 23.9" enable-background="new 0.9 0.9 30.1 23.9" xml:space="preserve">
<g id="Page-1">
	<g id="REDISEÑO" transform="translate(-1698.000000, -1016.000000)">
		<g id="Group-8-Copy-4" transform="translate(1697.000000, 1015.000000)">
			<defs>
				<filter id="Adobe_OpacityMaskFilter" filterUnits="userSpaceOnUse" x="1.9" y="1.9" width="30.1" height="23.9">
					<feColorMatrix  type="matrix" values="1 0 0 0 0  0 1 0 0 0  0 0 1 0 0  0 0 0 1 0"/>
				</filter>
			</defs>
			<mask maskUnits="userSpaceOnUse" x="1.9" y="1.9" width="30.1" height="23.9" id="mask-2">
				<g filter="url(#Adobe_OpacityMaskFilter)">
					<polygon id="path-1" fill="#FFFFFF" points="33.4,0 0,0 0,27 33.4,27 					"/>
				</g>
			</mask>
			<path id="Fill-1" mask="url(#mask-2)" fill="none" stroke="#FFFFFF" d="M16.7,13.3l-9.6-1.8l9.5-4.8L16.7,13.3z M31.3,4.7L20,2.4
				c-0.1,0-0.2,0-0.3,0.1l-3.5,4.3l-4-4.2c-0.1-0.1-0.2-0.1-0.3,0L2.5,7.1c-0.1,0-0.1,0.1-0.1,0.2c0,0.1,0,0.2,0.1,0.2l3.8,4.4l0,11
				c0,0.1,0.1,0.2,0.2,0.2l11.6,2.2c0.1,0,0.2,0,0.2-0.1c0.1,0,0.1-0.1,0.1-0.2V13.9c0-0.1-0.1-0.2-0.2-0.2l-1.7-0.3V6.7l10.9,2.5
				l-8.9,4.3c-0.1,0-0.1,0.1-0.1,0.2v11.1c0,0.1,0.1,0.2,0.1,0.2c0,0,0.1,0,0.1,0c0,0,0.1,0,0.1,0l9.2-4.3c0.1,0,0.1-0.1,0.1-0.2
				l0-11l3.2-4.3c0.1-0.1,0.1-0.2,0-0.2C31.4,4.8,31.3,4.7,31.3,4.7z"/>
		</g>
	</g>
</g>
</svg>
