<?xml version="1.0" encoding="utf-8"?>
<!-- Generator: Adobe Illustrator 22.0.1, SVG Export Plug-In . SVG Version: 6.00 Build 0)  -->
<!DOCTYPE svg PUBLIC "-//W3C//DTD SVG 1.1//EN" "http://www.w3.org/Graphics/SVG/1.1/DTD/svg11.dtd" [
	<!ENTITY ns_extend "http://ns.adobe.com/Extensibility/1.0/">
	<!ENTITY ns_ai "http://ns.adobe.com/AdobeIllustrator/10.0/">
	<!ENTITY ns_graphs "http://ns.adobe.com/Graphs/1.0/">
	<!ENTITY ns_vars "http://ns.adobe.com/Variables/1.0/">
	<!ENTITY ns_imrep "http://ns.adobe.com/ImageReplacement/1.0/">
	<!ENTITY ns_sfw "http://ns.adobe.com/SaveForWeb/1.0/">
	<!ENTITY ns_custom "http://ns.adobe.com/GenericCustomNamespace/1.0/">
	<!ENTITY ns_adobe_xpath "http://ns.adobe.com/XPath/1.0/">
]>
<svg version="1.1" id="Capa_1" xmlns:x="&ns_extend;" xmlns:i="&ns_ai;" xmlns:graph="&ns_graphs;"
	 xmlns="http://www.w3.org/2000/svg" xmlns:xlink="http://www.w3.org/1999/xlink" x="0px" y="0px" viewBox="0 0 30.5 29.8"
	 enable-background="new 0 0 30.5 29.8" xml:space="preserve">
<metadata>
	<sfw  xmlns="&ns_sfw;">
		<slices></slices>
		<sliceSourceBounds  bottomLeftOrigin="true" height="29.8" width="30.5" x="0.5" y="-5.3"></sliceSourceBounds>
	</sfw>
</metadata>
<title>Page 1</title>
<desc>Created with Sketch.</desc>
<g id="Home-nueva">
	<g id="TODEVISE" transform="translate(-1065.000000, -78.000000)">
		<path id="Page-1" fill="none" stroke="#FFFFFF" d="M1065.5,80.1V97c0,0.9,0.7,1.6,1.6,1.6h1.5h2.4c0,2.7,0,4.7,0,5
			c0,0,0,0.2,0.1,0.2c0.2,0.2,0.6,0.2,0.6,0.2l7.5-5.5h10.7c0.9,0,1.6-0.7,1.6-1.6V80.1c0-0.9-0.7-1.6-1.6-1.6h-22.7
			C1066.2,78.5,1065.5,79.2,1065.5,80.1z"/>
	</g>
</g>
<g>
	<g>
		<path fill="none" stroke="#FFFFFF" d="M28.4,3.7h-2V19c0,0.9-0.7,1.6-1.6,1.6H14l-4.3,3.2h6.7l7.5,5.5c0,0,0.4,0,0.6-0.2
			c0.1-0.1,0.1-0.2,0.1-0.2c0-0.3,0-2.3,0-5h3.8c0.9,0,1.6-0.7,1.6-1.6V5.3C30,4.4,29.3,3.7,28.4,3.7z"/>
	</g>
</g>
</svg>
