<?xml version="1.0" encoding="utf-8"?>
<!-- Generator: Adobe Illustrator 19.2.1, SVG Export Plug-In . SVG Version: 6.00 Build 0)  -->
<svg version="1.1" id="Capa_1" xmlns="http://www.w3.org/2000/svg" xmlns:xlink="http://www.w3.org/1999/xlink" x="0px" y="0px"
	 viewBox="0 0 64 63" style="enable-background:new 0 0 64 63;" xml:space="preserve">
<style type="text/css">
	.st0{fill:#ECECEC;}
	.st1{fill:none;stroke:#F34D4D;stroke-width:2;}
</style>
<title>Oval 30 + noun_49923_cc + Path 148</title>
<desc>Created with Sketch.</desc>
<g id="primera-vez-deviser">
	<g id="BECOMEADEVISER" transform="translate(-308.000000, -554.000000)">
		<g id="Group-6" transform="translate(217.000000, 509.000000)">
			<g id="iconos">
				<g id="Oval-30-_x2B_-noun_x5F_49923_x5F_cc-_x2B_-Path-148" transform="translate(91.090239, 45.000000)">
					<g id="Oval-30-_x2B_-noun_x5F_49923_x5F_cc">
						<ellipse id="Oval-30" class="st0" cx="31.5" cy="31.5" rx="31.5" ry="31.5"/>
						<g id="noun_49923_cc" transform="translate(7.385621, 6.582278)">
							<g id="Group">
								<rect id="Rectangle-path" x="44.6" y="24.8" width="6.1" height="0.7"/>
								<rect id="Rectangle-path_1_" x="0.5" y="24.8" width="6.1" height="0.7"/>
								<rect id="Rectangle-path_2_" x="25.2" y="44.1" width="0.7" height="5.3"/>
								<rect id="Rectangle-path_3_" x="25.2" y="0.8" width="0.7" height="5.3"/>
								<polygon id="Rectangle-path_4_" points="36.7,4 37.3,4.4 34,10.1 33.4,9.8 								"/>
								<polygon id="Rectangle-path_5_" points="45.3,12.9 45.7,13.5 41.1,16.1 40.8,15.5 								"/>
								<polygon id="Rectangle-path_6_" points="40.9,34.5 46.1,37.6 45.7,38.2 40.6,35.1 								"/>
								<polygon id="Rectangle-path_7_" points="34.6,41.3 37.5,46.5 36.8,46.8 34,41.6 								"/>
								<polygon id="Rectangle-path_8_" points="15.3,41.4 15.9,41.7 13,46.7 12.4,46.3 								"/>
								<polygon id="Rectangle-path_9_" points="8.8,34.5 9.1,35.1 4.4,37.9 4,37.2 								"/>
								<polygon id="Rectangle-path_10_" points="4.5,12.7 9,15.4 8.6,16 4.2,13.3 								"/>
								<polygon id="Rectangle-path_11_" points="13.4,5.1 15.9,9.6 15.2,9.9 12.8,5.4 								"/>
							</g>
						</g>
					</g>
					<polyline id="Path-148" class="st1" points="20,25 31.5,32 44.4,10.2 					"/>
				</g>
			</g>
		</g>
	</g>
</g>
</svg>
