<?xml version="1.0" encoding="UTF-8"?>
<svg width="25px" height="25px" viewBox="0 0 25 25" version="1.1" xmlns="http://www.w3.org/2000/svg" xmlns:xlink="http://www.w3.org/1999/xlink">
    <!-- Generator: Sketch 46.2 (44496) - http://www.bohemiancoding.com/sketch -->
    <title>Fill 1 Copy 3</title>
    <desc>Created with Sketch.</desc>
    <defs></defs>
    <g id="Page-1" stroke="none" stroke-width="1" fill="none" fill-rule="evenodd">
        <g id="REDISEÑO" transform="translate(-2065.000000, -242.000000)" stroke="#1C1919" stroke-width="0.8">
            <path d="M2088.75373,249.621344 C2088.95661,249.887663 2089.03776,250.202405 2088.98366,250.577673 L2088.02337,256.327756 C2087.9828,256.630392 2087.84754,256.884606 2087.63114,257.078293 C2087.40121,257.27198 2087.14424,257.368823 2086.84668,257.368823 L2072.79402,257.368823 L2072.52352,259.003057 L2085.91344,259.003057 C2086.23805,259.003057 2086.50855,259.124112 2086.75201,259.354115 C2086.98193,259.596224 2087.10366,259.886754 2087.10366,260.237812 C2087.10366,260.58887 2086.98193,260.891506 2086.75201,261.121509 C2086.50855,261.363618 2086.23805,261.484672 2085.91344,261.484672 L2079.69765,261.484672 L2071.10337,261.484672 C2070.73819,261.484672 2070.44064,261.339407 2070.18366,261.036771 C2069.95373,260.734135 2069.85906,260.395183 2069.91316,260.007809 L2070.53532,256.412494 L2069.57503,246.328665 L2066.84294,245.420757 C2066.51834,245.323914 2066.28841,245.118121 2066.13963,244.815485 C2065.99086,244.51285 2065.96381,244.198108 2066.04496,243.871261 C2066.15316,243.532309 2066.35604,243.2902 2066.65359,243.144935 C2066.93762,242.987564 2067.2487,242.963354 2067.54625,243.048092 L2071.04927,244.210214 C2071.26568,244.282846 2071.45503,244.416006 2071.59028,244.609693 C2071.73906,244.80338 2071.82021,245.021278 2071.86078,245.263387 L2072.06366,247.272889 L2087.94222,249.125021 C2088.29388,249.173443 2088.56438,249.342919 2088.75373,249.621344 Z M2072.90222,262.174682 C2073.40265,262.174682 2073.83546,262.356263 2074.18712,262.719427 C2074.5523,263.094695 2074.72812,263.542596 2074.72812,264.075236 C2074.72812,264.595769 2074.5523,265.055776 2074.18712,265.431044 C2073.83546,265.806313 2073.40265,266 2072.90222,266 C2072.38827,266 2071.95546,265.806313 2071.60381,265.431044 C2071.25215,265.055776 2071.07632,264.595769 2071.07632,264.075236 C2071.07632,263.542596 2071.25215,263.094695 2071.60381,262.719427 C2071.95546,262.356263 2072.38827,262.174682 2072.90222,262.174682 Z M2083.73589,262.174682 C2084.23632,262.174682 2084.66913,262.356263 2085.02078,262.719427 C2085.38596,263.094695 2085.56179,263.542596 2085.56179,264.075236 C2085.56179,264.595769 2085.38596,265.055776 2085.02078,265.431044 C2084.66913,265.806313 2084.23632,266 2083.73589,266 C2083.22193,266 2082.78913,265.806313 2082.43747,265.431044 C2082.08582,265.055776 2081.90999,264.595769 2081.90999,264.075236 C2081.90999,263.542596 2082.08582,263.094695 2082.43747,262.719427 C2082.78913,262.356263 2083.22193,262.174682 2083.73589,262.174682 Z" id="Fill-1-Copy-3"></path>
        </g>
    </g>
</svg>