<?xml version="1.0" encoding="UTF-8"?>
<svg width="97px" height="56px" viewBox="0 0 97 56" version="1.1" xmlns="http://www.w3.org/2000/svg" xmlns:xlink="http://www.w3.org/1999/xlink">
    <!-- Generator: Sketch 46.2 (44496) - http://www.bohemiancoding.com/sketch -->
    <title>Group + Oval 6</title>
    <desc>Created with Sketch.</desc>
    <defs></defs>
    <g id="become-a-deviser" stroke="none" stroke-width="1" fill="none" fill-rule="evenodd">
        <g id="BECOME-A-DEVISER" transform="translate(-867.000000, -685.000000)">
            <g id="Group-+-Oval-6" transform="translate(867.000000, 685.000000)">
                <g id="Group">
                    <g id="noun_5132" fill="#1C1919">
                        <g id="Calque_2">
                            <g id="Group">
                                <polygon id="Shape" points="1.33348916 8.7484863 1.36994574 8.40259505 2.90189218 7.65649483 2.90189218 7.49277298 2.46441325 7.38362507 2.46441325 6.96496856 2.92012046 6.05489027 3.59456714 6.01850763 4.8710608 5.63648997 5.23588331 4.58088114 6.78554456 3.78046318 7.89824037 3.74382433 9.7942391 3.25240255 10.1046335 3.25240255 11.6180949 4.10790689 13.7513181 4.5265634 15.9761963 4.47198945 17.2888898 5.54553338 17.8177669 5.58191602 18.3648723 5.38181153 18.8023512 5.36362021 20.7170917 6.10997665 21.829274 5.70951146 21.847759 5.49095943 21.6469911 4.99953765 22.1394116 4.67209394 22.431321 4.65390262 22.5406907 4.79943316 22.5951189 5.4725119 23.6528731 5.70951146 23.726043 5.4545768 23.9994673 5.39974663 24.2728916 5.70951146 24.236435 5.98238121 23.7075579 6.56475958 22.1211834 6.67390749 21.1183708 7.36543376 19.6231376 7.78383405 19.1489454 8.43897769 18.6565249 9.29422581 18.5474119 9.93117813 19.2218585 10.3862173 19.8054205 10.9685956 20.2796128 11.0229134 20.2796128 11.4051873 19.9877034 12.0242045 19.9694751 12.4789874 20.6259502 12.4059659 21.3188819 11.11387 22.1029551 10.6224482 22.1940965 9.9860083 23.416162 8.31138225 24.4369462 8.27525583 24.9837949 9.13050396 24.9111384 9.3851824 24.819997 9.65805216 25.531157 9.74926496 26.0233208 9.11231264 26.2240887 9.11231264 26.35143 10.4225999 27.0263901 11.9514392 27.0993033 12.351392 26.8620788 12.7882398 25.4397588 13.4615748 24.8926534 13.4979574 24.7285988 13.3342355 23.6164165 13.3524269 22.0480135 14.2986316 22.0480135 14.5351187 22.2123248 14.5351187 23.2336224 13.9709316 24.108837 13.9163577 24.0359239 14.0803358 23.7622428 14.3716531 23.7986994 14.9173926 24.4369462 15.2087099 24.4004896 15.5540887 23.4888185 15.7544494 23.2336224 15.9363625 23.2336224 16.1185319 23.0328545 16.0821493 22.9963979 15.8635973 23.416162 15.6271102 23.4338769 15.2450925 22.6498037 15.445197 21.5376214 16.0821493 21.136599 16.7370367 20.3160693 16.8464408 19.5135112 17.9748149 19.2400868 18.392959 18.9484342 18.447533 19.0760322 17.9197286 18.8390645 17.9197286 18.4198139 19.1938894 17.3438314 19.9943074 16.5595015 20.8498117 16.4319035 21.7960164 16.2496206 22.9061992 16.1764507 23.3245995 15.9394829 23.3427908 15.6478303 22.5787555 15.6113738 21.4139988 15.1554098 21.1954467 14.4445066 21.1593203 13.9338577 21.2866595 13.8974012 21.7050598 13.4049806 21.7414425 12.8578752 21.5049553 11.8365776 21.486764 10.9251632 22.3602035 10.3051447 23.4703863 10.122605 24.7624822 10.4145144 25.5629002 10.6697104 26.0000042 11.8003778 26.0181955 12.3107699 25.19933 13.5146071 24.9989693 13.5146071 25.435561 12.6209075 27.0007829 12.5662226 27.291844 14.2255104 27.3282266 14.0249992 28.820427 14.0249992 29.5301446 14.3348801 29.6756752 14.517163 30.0213102 14.8819855 30.2398622 15.228323 30.0943317 15.5202323 29.9303536 15.7754283 30.0395015 15.9761963 30.2941799 15.9944245 30.4217754 16.3043054 30.4217754 16.6506429 29.4755707 17.1430635 29.3300401 17.6901688 29.0205315 18.0732196 28.7474056 18.2552458 28.8022357 18.2372742 29.0387228 18.018278 29.2027009 17.9635932 29.4755707 17.8359952 29.6211012 17.8085244 29.9667362 18.018278 30.1581294 18.3191732 30.0487253 18.3191732 29.3664228 18.5474119 28.875001 18.829822 28.9113836 19.6595942 29.5939423 20.297841 29.7120578 20.6988634 29.5483359 20.9997585 29.5027295 21.1548273 29.5573035 21.4374942 30.030534 21.9114297 30.4947969 22.2762522 30.7948255 22.7958868 31.3682363 24.0266813 31.6318823 24.464417 32.0961452 24.8474678 32.5691195 25.0659505 33.2334869 24.9293667 33.7156849 24.719613 34.034161 24.5098594 34.3344459 24.5283444 34.5073915 24.7375846 34.5163591 24.7375846 34.3254783 25.2027911 34.0795112 25.3760882 33.9793309 25.6769833 34.0070022 25.7134399 34.1525327 25.7316682 34.3165108 25.6222984 34.5345504 25.4033022 34.6162832 25.2027911 34.6257632 25.2027911 34.7438786 25.2027911 34.8983767 25.6222984 34.8804416 25.9047085 34.6347307 26.0325633 34.2342655 26.3152301 34.1704678 26.6253678 34.5345504 26.9717052 34.7346549 27.947047 35.1351201 28.6949203 35.2171091 29.7614036 35.8540614 30.1898967 35.863029 30.4178787 37.309623 29.1323993 39.0749494 29.3056964 39.8663998 29.2964539 40.7944132 28.8772032 42.1595307 28.6674495 43.0785765 27.5277964 43.5151681 26.5886544 44.106514 26.4520707 45.5623319 26.1057332 46.6089731 25.7316682 47.5823367 25.3214033 48.1373 25.0112657 48.1647151 24.2271925 47.6914846 23.8990833 47.6640695 24.7653121 48.7468372 24.4369462 49.2656741 24.1360511 49.6748506 23.6346448 49.7112333 23.270079 49.8572762 23.270079 50.0663483 23.4431194 50.1665286 23.2972931 50.5485463 22.8595574 50.7125244 22.7686727 50.7578745 22.7686727 51.0128092 23.123996 51.3674118 22.9874122 52.1227358 22.6315754 52.7140817 23.416162 53.269045 23.4066628 53.5970011 23.2153941 53.9605712 23.2061516 54.7066715 23.4248911 55.2526672 23.1332385 55.6713237 23.1332385 55.9349697 22.8870282 55.9623848 22.4675208 55.6257173 22.3766361 55.2252521 22.057256 55.1617106 20.9633019 53.2964601 20.7627908 53.1962797 20.6169645 53.1691208 20.6351927 52.9418575 20.8993746 52.7230492 20.9268454 52.4227644 20.4801239 51.1309247 19.814663 50.7486508 19.7599782 50.3940482 19.6868083 49.8934027 19.540982 49.5021612 19.6231376 48.5649241 19.7050366 48.5103501 19.6960508 47.3366258 19.4316122 46.9182255 19.4223697 45.6807035 19.3312283 45.1072927 19.2493293 44.506723 19.1671737 43.7972617 19.1032463 43.0872879 19.0485614 42.4869744 18.8755211 41.8682134 18.7204522 41.5953436 17.9725789 40.9402 17.5533283 40.5943087 16.7420411 39.7116455 16.2860772 39.083917 15.985182 38.5379212 15.6021312 37.8100123 15.4290909 37.455666 15.2465512 36.9547642 14.6085611 36.554299 14.5810903 35.6721482 14.9456561 35.2988419 14.9548986 35.0623548 14.6814743 35.0623548 14.6722318 34.5163591 14.8909713 33.551963 15.7572001 32.6600761 15.7754283 31.4502253 15.7572001 30.9495798 15.629602 30.5765297 15.4930182 30.4402229 15.3376927 30.4217754 15.1554098 30.5583384 15.1099674 30.940356 14.7179309 30.9769949 14.0614558 30.3582339 13.4599222 29.9488011 13.2044695 29.630325 13.1587704 29.2208922 12.9125601 28.7750769 12.7120489 28.3835792 12.2925416 28.4020267 11.6545515 27.9377638 11.3901129 27.7648182 11.1164319 27.5647137 10.8612358 27.2098549 10.5965405 27.0189742 10.4052719 27.1550248 10.0589344 27.3190028 8.74598415 26.6003177 8.07128074 26.1724374 7.54240364 25.7450696 7.27822182 25.2900304 7.36012075 24.9262041 7.30543589 23.9615518 6.74010221 22.7696362 6.34806564 21.814464 6.15654024 21.0499162 6.14755447 20.0037874 6.12932618 19.4670154 6.00172816 19.4670154 5.86488763 19.8580006 5.67336223 20.5861657 5.61867736 21.0683637 5.76476041 21.5503055 6.11109789 22.6512646 6.36629393 23.6522994 6.37553644 23.9069779 6.05641302 23.8887866 5.86488763 23.2974406 5.5639925 22.77886 5.2541116 22.1875141 5.19942673 21.7686013 5.41816619 21.1775116 5.26309737 20.7952378 5.18119844 20.1854443 5.10802855 19.8400655 5.08081449 19.284846 4.5611799 18.7754891 4.54295161 17.965335 4.67054963 17.0739604 5.01714385 16.1731059 5.98349987 14.55331 6.5942759 13.4887336 7.05922563 12.8791964 7.37834904 12.8791964 7.4512622 13.1064597 7.61557353 13.134131 7.6245593 12.8156549 7.76139984 12.0147245 7.56987444 11.5235589 7.57911695 10.9409243 7.91646866 9.87660418 8.25356362 9.00316474 8.42711747 8.55709314 8.41787496 8.31138225 8.25356362 8.33879734 8.05305245 8.44820146 7.77962812 8.44820146 7.67000166 8.27525583 7.60633102 8.04773626 7.49696129 7.75641897 7.13239552 7.67468615 6.66718906 7.35646621 6.45743537 7.17429682 6.2569242 7.17429682 6.04717051 7.39284884 5.69184726 7.5745058 5.46360854 7.66546238 5.22664079 7.69262125 4.90751738 7.67468615 4.84384674 7.54734693 5.04435791 7.34724244 5.28132566 7.24706209 5.5365217 7.03773383 5.77374619 6.89220329 5.79197447 6.72822522 5.58222079 6.72822522 4.99891556 6.99212743 2.78327993 8.12024531 1.87160877 8.58450823 1.53425707 8.7484863"></polygon>
                                <polygon id="Shape" points="0.166621961 9.01174296 0.166621961 8.64810659 0.585872595 8.51174296 0.877525211 8.69388124 0.896010235 8.92083387 0.658785749 9.01174296"></polygon>
                                <polygon id="Shape" points="6.87694274 11.9514392 6.84048616 11.605548 7.22328022 11.6419306 7.29619338 11.8784177 7.51518957 12.1512875 7.51518957 12.6788357 7.38759155 12.6972832 7.09593894 12.3877746 7.09593894 12.0055007"></polygon>
                                <polygon id="Shape" points="17.9818215 15.7726407 18.2005609 15.790832 18.4924703 15.2450925 18.6382966 15.2269012 18.8205795 15.4267495 18.9848908 15.4090706 18.9848908 15.0631793 18.6747532 14.5896926 18.1641043 14.5351187 18.0365063 14.3534617 17.9818215 13.7890185 17.635484 13.4251921 17.0516653 13.5527876 16.1949357 13.9709316 16.213164 14.1715486 16.5048166 14.2622489 17.0154654 14.1528448 17.4349728 14.2986316 17.8177669 14.426227 17.8359952 14.6988405 17.0154654 14.7536707 16.6873562 14.9901578 16.4865883 15.4636445 16.213164 16.0457667 16.2860772 16.337084 16.7784977 15.9548101 16.8878674 15.4997709 17.2709182 15.1356884 17.635484 15.0265405 17.9453649 15.1541359"></polygon>
                                <polygon id="Shape" points="17.4349728 16.5369322 17.4349728 16.3004451 17.9453649 16.2094885 18.4013288 16.1185319 18.8755211 15.9909365 19.4041414 15.8817886 19.6778225 15.6998754 20.02416 15.6634928 19.9877034 15.8635973 19.5864243 16.1003406 18.857036 16.1549146 18.6382966 16.3914017 17.89068 16.5735711"></polygon>
                                <polygon id="Shape" points="25.6222984 13.934549 26.8256222 13.0793009 27.0993033 12.9883443 27.1539881 13.1702575 26.9717052 13.6616792 27.1539881 13.8981664 27.2269013 14.4805447 27.1355031 14.9901578 26.6618243 14.7354794 26.3152301 14.5351187 25.7683815 14.5351187 25.6222984 14.1167184"></polygon>
                                <polygon id="Shape" points="31.9133686 0.522936317 31.9495684 0.723040806 31.0561255 1.28722786 30.1444544 1.32361049 29.1780984 1.6510542 28.1932573 2.65208908 27.7375501 2.70666303 27.0628467 2.76123698 26.7894224 2.45198459 26.752709 2.19704993 27.2451296 1.76045832 28.0841443 1.41456708 28.8132759 1.17807995 28.8315041 0.996422996 28.1932573 0.886762661 27.3180427 0.977719248 26.8805638 0.905210194 26.8805638 0.668466855 27.5550105 0.522936317 28.2664272 0.286192977 29.1234135 0.286192977 29.5426641 0.559318951 30.180911 0.559318951 30.8556144 0.559318951 31.6579158 0.505001215"></polygon>
                                <polygon id="Shape" points="21.9753571 7.76564274 21.7381326 7.52915561 21.7381326 7.32879491 22.412836 6.89220329 22.7776585 6.89220329 22.9599414 7.0192863 22.9599414 7.41975149 23.1057677 7.60192088 23.123996 7.85659932 22.8870282 7.89298196 22.7229736 7.60192088 22.431321 7.54734693 22.2487814 7.63830351 22.1940965 7.80202537"></polygon>
                                <polygon id="Shape" points="16.5959581 4.10790689 17.3073748 4.07152426 17.7448537 3.63467643 18.857036 3.30723272 18.8390645 3.14351086 18.1641043 2.76123698 17.5440858 2.94315016 16.9787521 3.47121079 16.4319035 3.88961108"></polygon>
                                <polygon id="Shape" points="19.8054205 2.70666303 19.8054205 3.21627613 20.9543162 3.1798935 21.4464799 3.07048938 21.7745891 2.68847172 21.6287628 2.30619784 21.3371102 2.28826274 21.0636859 2.68847172 20.9543162 2.68847172 20.8811463 2.63389776 20.6259502 2.34283669 20.297841 2.39715442"></polygon>
                                <polyline id="Shape" points="17.763082 4.38103287 17.763082 4.14428953 18.6020967 3.65312396 19.0940038 3.61648511 19.896562 3.94418504 20.3889825 4.10790689 20.3889825 4.38103287 20.1153014 4.63545509 20.2246711 4.79943316 20.297841 4.99953765 20.1884713 5.09049424 19.8054205 5.14532441 19.5499677 5.36362021 19.2036303 5.27266363 18.9119776 5.12687687 18.2187892 5.12687687 17.5076292 5.18145082 17.1066069 4.87245465 17.1248352 4.65390262 17.763082 4.59932867 18.1823326 4.69028526 18.2005609 4.48992455 17.8359952 4.38103287"></polyline>
                                <polygon id="Shape" points="21.1730556 3.83503713 21.847759 3.43457194 22.5586623 3.58010248 22.4857491 3.87116355 22.303723 4.21731101 21.9753571 4.54449851 21.4647082 4.5265634 21.1730556 4.23524611"></polygon>
                                <polygon id="Shape" points="22.686517 4.01695031 22.7229736 4.34439402 22.9963979 4.36258533 23.4523619 4.14428953 24.0176956 3.85297223 24.0176956 3.58010248 23.416162 3.61648511 23.0510828 3.72588923"></polygon>
                                <polygon id="Shape" points="22.7047453 2.76123698 22.7958868 3.32542403 23.0146262 3.2890414 23.4703334 2.97953279 23.4888185 2.74330188 23.270079 2.56138871 22.9963979 2.48836723 22.7594302 2.5790676"></polygon>
                                <polygon id="Shape" points="24.1452936 2.61570645 24.364033 3.23421123 25.2392476 3.47121079 26.8073939 3.47121079 26.6618243 3.10687201 25.1298779 3.08893691 24.673914 2.50655854"></polygon>
                                <polygon id="Shape" points="23.7622428 4.92677238 23.6895864 4.43560682 24.673914 3.76227186 25.2759609 3.78046318 25.6040701 3.79839828 25.658755 3.96212014 25.5858418 4.12609821 25.7683815 4.38103287 26.5521979 4.23524611 26.8441072 4.58088114 27.4820973 4.92677238 27.8286915 5.34517268 27.7557784 5.63648997 27.5188106 5.87323331 27.5188106 6.01850763 28.4851667 6.61933353 28.4302251 6.89220329 27.4456407 7.47432544 27.1539881 7.31060359 26.9352487 6.92858593 26.8256222 6.96496856 26.7894224 7.52915561 26.2605453 8.52993428 26.0597773 8.60269954 25.7134399 8.330086 24.9293667 7.56528203 23.9994673 7.56528203 23.8169277 7.38362507 24.2728916 6.92858593 24.5098594 6.92858593 25.0387365 6.92858593 26.0233208 5.92780726 26.3334584 5.63648997 26.1691471 5.36362021 25.2027911 5.25447231 24.4004896 5.12687687"></polygon>
                                <polygon id="Shape" points="14.4077932 24.6715256 14.4077932 24.5259951 14.7905873 24.3071869 16.1764507 24.362017 17.7266254 25.435561 17.7266254 25.654113 17.6719406 25.7450696 16.5595015 25.7450696 16.669128 25.4721998 16.4686168 25.326413 16.1037943 25.0532871 15.8301132 24.6894607"></polygon>
                                <polygon id="Shape" points="16.1217658 26.2279995 16.7055845 26.1998525 16.669128 26.6998525 16.3043054 26.6998525 16.1037943 26.5333161"></polygon>
                                <polyline id="Shape" points="17.4164878 26.272874 17.4349728 26.4002132 17.9271366 26.4184045 18.3463872 26.4911698 18.474242 26.5454875 18.8390645 26.3635743 19.5319962 26.2910653 19.5319962 26.0907046 19.1489454 26.054322 18.7296948 25.726622 18.2005609 25.8178348 17.9453649 25.8542175 18.018278 26.1819174 17.4532011 26.1998525"></polyline>
                                <polygon id="Shape" points="20.0788448 26.319374 20.4254391 26.2910653 20.5712654 26.6303707 20.0788448 26.7440042 19.896562 26.5454447"></polygon>
                                <polygon id="Shape" points="21.5193931 27.5647137 21.9469758 27.5647137 21.9754545 28.2198574 21.6337093 28.1832185 21.5193931 27.910605"></polygon>
                                <polygon id="Shape" points="36.5264092 0.104279804 39.1523097 0.177045073 39.1523097 0.377405779 38.8971137 0.541127634 38.3500083 0.650275537 38.3500083 0.796062291 38.6601459 0.959784146 39.0793966 1.15988864 39.425734 1.41456708 39.8452414 1.30541917 40.2647488 1.06893205 40.9394522 1.10505847 41.3954161 1.15988864 41.4318727 1.37844066 41.1217351 1.43275839 40.3926035 1.72407569 40.2829771 1.96030659 39.5535888 2.36102801 38.8788854 2.8885762 38.8971137 3.41638062 39.4806756 3.74382433 39.4806756 3.9257375 39.0793966 4.47198945 38.7695157 4.78124185 38.459378 4.78124185 38.3135517 4.63545509 38.0036708 4.78124185 38.0218991 5.09049424 38.3682366 5.39974663 38.3682366 5.58191602 38.0036708 5.61855487 37.8031596 5.4725119 37.6573333 5.4725119 37.6573333 5.72744656 38.0948122 5.90935973 38.3864649 5.94574236 38.2770951 6.29163361 37.4747937 6.34620756 36.2165283 6.52812073 34.8126934 7.07386025 33.6091129 7.45639034 31.986025 9.47613899 31.6396875 9.65805216 31.1475237 9.16663038 30.58219 8.83918667 30.58219 7.36543376 31.3660064 6.29163361 31.8948835 5.36362021 31.5485461 4.58088114 31.3295499 3.50733721 30.691303 3.01591543 30.180911 3.03410674 29.743432 3.03410674 29.6887472 2.56138871 30.0715412 2.28826274 30.2902807 2.34283669 30.8191578 2.34283669 31.0746106 2.14221977 31.0746106 1.76045832 34.0465918 0.522936317 34.5572406 0.486297466 35.0129478 0.777614758 36.1621002 0.723040806"></polygon>
                                <polygon id="Shape" points="37.4201088 7.41975149 37.6755616 7.16507305 37.9487292 7.14713795 38.1677254 7.51096429 38.4411497 7.51096429 38.8059722 7.34724244 39.4991607 7.23783832 39.7358717 7.56528203 39.626502 8.05670381 39.0976249 8.40259505 38.2406386 8.36621242 37.6935332 8.20249056 37.6935332 7.94755591 37.493022 7.85659932"></polygon>
                                <polygon id="Shape" points="39.9913245 13.3160442 40.1371508 13.0065356 39.9913245 12.9153228 40.1189225 12.5517527 40.4470317 12.0055007 40.866539 11.8235876 41.2493331 11.8235876 41.450101 11.8784177 41.2311048 12.351392 41.0305936 12.8428138 40.592858 13.3888095 40.4290601 13.3706182 40.3012054 13.2614703 40.1371508 13.3160442"></polygon>
                                <polygon id="Shape" points="42.3253156 10.3500909 42.3253156 10.4953652 42.2159459 10.6408957 42.5075985 10.7682349 42.6351965 11.0229134 42.3253156 11.1871477 42.3617722 11.4415699 42.5987399 11.8420351 42.7995078 12.3332007 43.0182473 12.7518572 43.4192696 12.8064311 43.4010413 13.0793009 43.1458453 13.4251921 42.5622833 13.588914 41.8328951 13.6983181 41.2493331 13.8254011 41.2857897 13.6071053 41.705297 13.4797661 41.705297 13.2978529 41.577699 13.134131 41.7599819 12.7154745 42.1794893 12.4241572 42.1977176 11.9875656 41.9240365 11.9145441 41.5045291 11.4597612 41.5045291 10.8773828 41.7599819 10.3862173"></polygon>
                                <polygon id="Shape" points="39.9184113 18.9937849 39.9184113 16.9919714 39.9730962 16.5735711 40.3926035 16.4459756 41.0305936 16.4459756 41.6503554 16.5917624 41.9604931 16.6463364 42.3253156 16.4459756 42.2341741 16.1731059 42.416457 15.8635973 42.3800005 15.2450925 41.9787214 14.9901578 41.6138989 14.8082447 41.4865576 14.6988405 41.450101 14.4441621 42.1063194 14.4441621 42.1794893 14.1528448 42.0516345 13.9893792 42.3435439 13.9709316 42.5075985 14.207675 42.853936 14.207675 43.5468677 13.4797661 43.8205487 13.3524269 44.0028316 13.0793009 44.2033428 12.9519617 44.2765127 13.2068963 44.4041107 13.188705 44.3858824 12.6245179 44.7686765 12.51537 45.261097 12.3695833 45.3704667 11.9514392 45.3340101 11.3321658 45.2978103 11.0047221 45.5894629 10.8046176 45.8626305 10.7500436 45.9540287 11.0777436 45.9540287 11.4779525 45.7717458 11.678057 45.7717458 12.0242045 46.0269418 12.13284 46.5193624 12.1876701 46.8656998 12.1694788 47.2849505 12.0242045 47.6315447 11.9875656 48.0692803 11.9693743 48.3429614 12.0603309 48.5249876 12.0242045 48.6525856 11.5507178 48.8530968 11.0595522 49.0174081 10.8228089 49.2543758 10.8410002 49.345774 10.9319568 49.6191983 10.8228089 49.6191983 10.5863218 49.5095719 10.1679215 50.166047 10.0949 50.4941562 10.0949 50.877207 9.8947955 50.7316374 9.65805216 50.6040394 9.62166953 50.2756735 9.64011706 50.0022491 9.73081743 49.6738832 9.8947955 49.2361475 9.87660418 48.762212 8.94859079 48.762212 8.65752971 49.1634911 8.27525583 49.473372 7.91117327 49.473372 7.45639034 49.2908324 7.45639034 49.0358931 7.34724244 48.7075272 7.69262125 48.3973895 8.07515134 48.3791613 8.330086 48.0145955 8.56657313 47.7226861 9.18507791 47.904969 9.64011706 47.904969 9.9860083 47.6133164 10.4771739 47.4128052 10.9685956 47.4128052 11.1871477 47.2305223 11.3867397 47.0115261 11.5143352 46.9024131 11.7146959 46.574304 11.732631 46.4829058 11.3508695 46.3732793 10.9865307 46.1545398 10.8046176 46.1545398 10.4044086 46.0269418 10.440535 46.0269418 10.1679215 45.6988326 10.3500909 45.516293 10.3862173 45.388695 10.5681305 44.9876727 10.5863218 44.7686765 10.2950045 44.7686765 9.2580994 45.261097 8.91195194 45.6988326 8.49355164 46.574304 7.67468615 47.2122941 7.03773383 48.0507953 6.23705966 49.4551437 5.29085494 50.0751623 5.29085494 50.6587243 5.5637247 51.0050617 5.72744656 51.9531895 6.0912729 52.7737192 6.65571617 53.0109437 6.65571617 53.1749983 6.91039461 53.3210813 6.98341609 53.3210813 7.29241227 53.1749983 7.47432544 52.7919475 7.49277298 52.3547253 7.27447717 51.9531895 7.1284342 51.5341956 7.00109498 51.5154538 7.36543376 51.7891349 7.58372956 52.1172441 7.76564274 52.6096646 8.27525583 52.9380305 8.27525583 53.5577923 7.63830351 53.7585602 7.58372956 54.0866694 7.29241227 54.1595826 7.41975149 54.4514919 7.43819902 54.4514919 7.09230778 54.2692091 6.92858593 54.2692091 6.67390749 54.0499561 6.54631205 54.0499561 6.21886834 54.2692091 6.21886834 54.6699747 6.47354678 54.6884597 6.85582066 54.852771 6.87401197 55.4725328 6.71029012 56.2019211 6.41897283 56.7854831 6.23705966 57.6971542 5.98238121 58.6088254 5.90935973 59.0832744 6.20042081 59.4658117 6.16429439 59.4658117 5.92780726 59.1741591 5.52708585 58.9369346 5.4725119 58.918963 5.12687687 59.4658117 4.58088114 59.5572099 4.41715928 60.0131738 4.38103287 60.1040585 4.5265634 60.0681154 4.98134633 60.9428165 6.14610307 60.9428165 6.56475958 60.6147073 6.72822522 60.5053376 6.94677724 60.9613015 6.94677724 61.2711824 6.67390749 61.2896675 6.14610307 61.7633462 6.14610307 61.9643709 6.0912729 61.9276576 5.89142463 61.2532109 5.69132014 60.7607904 5.34517268 60.5238226 4.8358158 61.6180334 4.21731101 62.0734839 3.83503713 62.6932457 3.32542403 64.2434204 2.83425847 64.863439 2.70666303 67.252115 2.68847172 67.6166807 2.79761962 67.525796 3.16170218 67.0148905 3.85297223 67.0516038 3.9257375 67.2338867 3.94418504 68.109358 3.52527231 69.1306556 3.47121079 72.6135424 4.07152426 73.014308 4.14428953 73.8897793 4.07152426 74.0173773 3.72588923 74.199917 3.43457194 74.7467656 3.47121079 76.2050287 3.8165896 77.5914056 3.76227186 78.5759899 3.72588923 79.6519724 4.05333294 80.545672 4.03514162 81.5482278 3.58010248 82.4234424 3.59855001 84.5207225 3.83503713 85.9610141 4.23524611 86.7635722 4.41715928 87.1643378 4.79943316 87.1643378 4.98134633 86.8359719 4.98134633 86.398493 4.85400711 86.0521555 4.85400711 85.833416 4.87245465 85.6329049 4.79943316 85.4503652 4.85400711 85.432137 5.32698136 86.0156989 5.5637247 86.5258343 5.69132014 86.7450872 5.85504199 86.6906591 6.12791175 86.1070971 7.00109498 86.1070971 7.16507305 85.3047957 7.23783832 84.9032599 7.49277298 85.1040278 7.838408 85.7969595 8.51174296 86.4349496 9.51252162 86.7271156 10.4225999 86.7271156 11.0047221 86.5078627 10.9865307 86.1435537 10.5681305 85.5230217 9.93117813 84.7027487 9.22120433 84.0829869 8.82125157 84.1012152 8.29319094 84.3561545 7.92910837 84.2470415 7.32879491 83.9731037 6.83762934 83.7910775 6.81918181 83.5905664 7.09230778 83.4629683 7.09230778 83.2627139 6.94677724 82.9520628 7.00109498 82.8976347 7.49277298 83.1163741 7.94755591 82.7333233 8.25706452 82.0586199 8.36621242 81.4386014 8.40259505 80.8188396 8.43897769 80.2352776 8.60269954 80.0891945 8.76667761 80.1076796 10.0405823 80.5816151 10.5499391 80.8188396 10.5681305 80.909981 10.440535 81.2745468 10.440535 81.6943109 10.7864263 82.2958444 11.5143352 82.7518083 12.3150093 83.0432042 13.0611096 83.2442289 14.0621444 83.2627139 15.0265405 82.3869858 15.3176015 82.223188 16.0821493 82.1500181 16.7370367 82.5330689 17.3378626 83.0432042 18.047324 83.1530874 18.2292372 83.1530874 18.5205545 82.8064932 18.7936804 82.4963556 18.9571461 82.4781273 18.6297024 82.1500181 18.0655153 81.8768505 17.5743497 81.4753147 17.2830325 80.909981 16.7188454 80.7641547 16.7188454 80.4173037 17.1013755 80.1076796 16.9735238 80.1076796 16.6278888 80.1990778 16.4823583 79.8342552 16.4459756 79.2689216 17.028354 79.2506933 17.3378626 79.615259 17.6834977 80.3811039 17.7378154 80.7641547 17.8472195 80.7092131 18.1018979 80.5087019 18.1928545 80.545672 18.6297024 81.2745468 19.8123942 81.6393693 20.576942 81.4203731 20.7042812 81.6575976 20.9043857 81.8945653 21.1593203 81.8945653 22.5241815 81.5117713 23.0335384 80.5266735 24.0161258 79.6699439 24.5800566 79.3603197 25.0532871 79.1228385 25.0532871 78.9954972 24.7440347 78.7400445 24.5439302 78.393707 24.707652 77.9924279 25.6720481 78.0838261 26.054322 78.9040991 26.8006784 79.4694327 27.4373745 79.5056326 28.6567052 79.2506933 29.1114881 78.9770122 29.4573794 78.5942182 29.7850793 78.4301636 30.0763966 78.1929391 30.0943317 78.1747108 29.766888 78.0288845 29.493762 77.7554602 29.3300401 77.427351 29.0205315 77.3906376 28.6567052 77.098985 28.5475573 76.8255607 28.3653879 76.7159342 28.129157 76.3328834 28.129157 76.4974515 29.0751055 76.4974515 29.8214619 76.843789 30.5670497 77.1716414 31.0771752 77.5729205 31.6774887 77.8463449 32.2962497 78.0653411 32.6964587 77.9741996 32.9698409 77.7374886 32.987776 77.4091227 32.6418847 77.2448113 32.6418847 76.6615061 31.3682363 76.3695968 30.9677711 75.8594614 30.4402229 75.8409764 29.1294232 75.7680632 28.2383049 75.4943822 27.4191832 75.166273 26.618509 74.9834766 26.673083 74.7282806 26.9825916 74.4181429 27.0917395 74.1447186 26.964144 74.2546018 26.1634699 73.59787 25.435561 73.2512757 25.1260523 73.1965909 24.8352475 73.1783626 24.3256344 72.7773402 24.3256344 72.4127745 24.8168 72.1208651 24.7806735 71.9930104 24.5987604 71.6469296 24.7624822 71.3185637 25.4721998 70.8628565 26.0725133 70.4430924 26.6003177 69.8230738 27.4919484 69.5863628 28.6930878 69.4582513 29.5301446 69.2215403 30.5854972 68.9663443 30.5491146 68.69292 30.4035841 68.3648108 29.5665273 67.9450467 28.7840444 67.2156584 27.1463134 66.9419773 26.0361306 66.8690642 24.8898214 66.5591833 24.8898214 66.5050119 25.4173696 66.3039872 25.4901349 65.975878 25.3082217 65.4287726 24.7440347 65.2464897 24.416591 65.0642069 24.1070824 64.6446995 23.7066172 62.4383064 23.6886821 62.0370273 23.5613428 61.5630918 23.3794297 61.5630918 23.0153471 61.2896675 22.8152426 60.8883884 22.8698166 60.6696489 23.0701773 60.086087 23.0701773 59.8124059 22.7970513 59.1741591 22.1964816 58.8278216 21.8326553 58.4267992 21.8690379 58.2075463 22.1239726 58.2627446 22.3053733 58.7002236 22.6879034 58.918963 23.1063037 59.1377025 23.1972603 59.1926441 23.4703863 59.374927 23.5249602 59.6483513 23.3794297 59.8124059 23.5431515 59.8124059 24.0345733 60.0681154 24.0891473 60.5600225 24.143465 60.7607904 23.8708515 60.9980149 23.4885776 61.3440956 23.4885776 61.326124 23.9436167 61.3985237 24.2346778 61.6906898 24.362017 62.0734839 24.4347823 62.2745085 24.5439302 62.4018498 24.7624822 62.0552556 25.8178348 61.5630918 26.4545309 61.0526997 26.9280176 60.6878772 27.1463134 60.0316588 27.582905 59.5572099 28.0561355 59.1015026 28.3653879 57.825009 28.6567052 57.4419582 28.7474056 57.0589074 28.129157 56.8945961 27.8012008 56.7307982 26.6369565 55.8008988 25.3812432 54.4147786 23.1972603 54.0319846 22.1964816 53.8497017 22.3965861 53.7400752 22.3602035 53.7218469 22.2510556 53.3572812 22.2328643 53.4486793 22.5787555 53.6494472 23.1608777 54.3418655 24.4893562 54.9256842 25.4173696 54.9439125 26.054322 55.7095006 26.8368048 55.8920402 27.6556703 56.1107797 27.7832657 56.6396568 28.3290053 57.1320773 28.8568097 57.1141057 29.6211012 57.4239866 29.6572276 58.1348899 29.4755707 59.2837855 29.0932968 59.8853191 29.0023402 59.9217756 29.2936575 58.8460499 31.914232 57.9158937 33.1514978 56.8039681 34.297807 55.9464683 35.3534159 55.8740686 36.6455118 56.2748343 39.1205558 56.3112908 39.7936346 55.563931 40.5943087 54.7616296 41.2676437 54.0866694 41.8318307 54.2692091 42.7052702 54.2509808 43.6153485 53.411966 44.161088 53.411966 44.4524053 52.7919475 45.6350971 51.9167329 46.6358758 51.2420295 47.1639364 50.5490978 47.254893 49.6556549 47.4729326 49.2361475 47.8190801 48.9809515 47.7824412 48.871325 47.5823367 48.360933 47.2185104 48.2880198 46.2902408 47.4310335 44.7616577 47.2305223 43.3786051 47.1026676 42.7052702 46.3917643 41.1221132 46.4099926 39.648104 47.066211 38.3741994 46.7743017 36.5909379 46.2641663 35.5171377 45.3340101 34.1158939 45.4980647 33.3882412 45.7168042 32.769224 45.7535175 32.314441 45.2428687 32.2416758 44.677535 32.2416758 44.0757448 31.3864276 43.4557262 31.4591929 42.0701196 31.8230192 40.3376619 32.369015 39.6629585 32.2416758 38.1494971 30.6221361 37.0555431 29.27521 36.6907206 28.474792 36.6907206 27.6013526 36.9276883 26.7092094 36.90946 25.7632609 37.0006015 25.0171607 37.8943011 23.2338991 38.3682366 22.6879034 38.6783742 22.6879034 39.4077625 21.814464 39.5168755 21.2136381 39.644987 20.9043857 40.2465205 20.4859854 40.4655167 20.1946681 40.8300825 19.6122897 41.0670502 19.6122897 41.4136444 19.7942029 41.8328951 19.7762678 42.853936 19.3939939 43.6929507 19.2118245 44.1853712 19.103189 44.677535 18.9755936 45.388695 18.9755936 46.2092247 19.0299113 46.1727681 19.4670154 45.972257 19.9943074 46.0451701 20.2131156 46.3917643 20.5221118 46.7927867 20.6678985 47.3945769 20.7406638 47.5766031 20.7952378 47.7044578 21.2502769 48.1604218 21.5049553 48.871325 21.6322946 49.1452628 21.6322946 49.1812059 21.3776161 49.0538647 21.3776161 49.0723497 21.0499162 49.4551437 20.8316204 50.0202207 20.7042812 50.3303583 20.9407683 50.7316374 21.2320856 51.2784861 21.5777206 51.7706498 21.5777206 52.0992725 21.3960637 52.6463779 21.2866595 52.9015739 21.3045946 53.2296831 21.3409773 53.3937377 21.4503814 53.5945056 21.1044902 53.7218469 20.7224725 53.886415 20.1764768 53.886415 19.8672244 53.886415 19.4303765 54.0137563 19.33942 54.0137563 19.1756981 53.3025963 19.230272 52.7919475 19.2118245 52.2083855 19.284846 51.588367 19.3030373 51.3334277 19.0483589 51.1691163 18.447533 51.0050617 17.8472195 51.3334277 17.8472195 51.5341956 17.647115 51.6979934 17.5377109 51.9531895 17.5377109 52.3726968 17.4649456 52.5549797 17.3012238 52.7737192 17.1556932 52.9927154 16.9555887 53.4666509 16.9555887 53.7585602 17.1375019 54.1962959 17.2102672 54.5061768 17.2830325 54.852771 17.3378626 55.4360762 17.3194151 55.417848 16.9555887 55.5089894 16.7736756 55.3084782 16.5917624 55.089482 16.5917624 54.8163144 16.3729542 54.6155465 16.1912972 54.2324957 15.9727452 54.0686979 15.790832 54.123126 15.4997709 54.3785788 15.2450925 54.5611184 15.1356884 54.5611184 14.9719665 54.3418655 14.9173926 54.1778109 14.9901578 53.411966 15.3724317 53.6309622 15.5907275 53.6309622 15.8272146 53.2663964 16.0457667 53.0289152 16.0457667 52.7919475 15.8090233 52.6278929 15.2814751 52.5367514 15.1356884 52.318012 15.2087099 51.862048 15.4090706 51.625337 16.0821493 51.3698842 16.5551236 51.3698842 17.0465453 51.5154538 17.3194151 51.0959464 17.701689 50.8407504 17.701689 50.6040394 17.5377109 50.1116189 17.647115 50.0202207 17.9197286 49.9657926 18.3568326 49.9657926 18.5569371 49.9657926 19.2484634 49.5460284 19.3212286 49.2726041 19.066294 49.2726041 18.5569371 49.4913436 18.5023631 49.1812059 18.3386413 48.9809515 18.0293889 48.7439838 17.4831369 48.4338461 17.0647366 48.032567 16.809802 47.4674901 16.2819976 47.1208959 16.136467 46.9203847 15.9181712 46.811015 15.7362581 46.6105038 15.7362581 46.5375906 16.0275754 46.7198735 16.2094885 46.9203847 16.5735711 46.9750696 16.7736756 47.3763486 16.9735238 47.7226861 17.1013755 47.7226861 17.3557977 48.1421935 17.6289237 48.3791613 17.8654108 48.507016 18.1382806 48.3791613 18.1382806 48.2151067 17.9748149 48.0872519 17.9748149 48.032567 18.6117673 47.9414256 18.7570416 47.7776277 18.7570416 47.7409144 18.2476847 47.5039467 17.9563674 47.2122941 17.647115 46.9024131 17.4103717 46.5193624 17.373989 46.2641663 17.2282023 45.9175721 16.6645277 45.7899741 16.3729542 45.5345213 16.1731059 45.2793253 16.2819976 44.8780462 16.7188454 44.5317087 16.7916107 44.3494258 16.5917624 43.8934619 16.7916107 43.8023204 17.1556932 42.872421 17.9384323 42.5075985 18.7206589 42.0880911 19.4124414 41.8328951 19.3939939 41.5045291 19.2484634 41.2128765 19.3212286 40.7936259 19.3939939 40.4105751 19.2118245 40.1553791 19.1575068"></polygon>
                                <polygon id="Shape" points="45.6311436 16.5187409 45.2978103 16.809802 45.345094 17.1741408 45.345094 17.3012238 45.7025722 17.3012238 45.7978103 17.1920759 45.7978103 16.8464408"></polygon>
                                <polygon id="Shape" points="45.2454737 17.6834977 45.4121404 17.5561584 45.7041005 17.5015845 45.7246404 17.647115 45.6204737 17.9197286 45.7041005 17.9748149 45.5788071 18.2292372 45.4121404 18.2656198 45.3082672 18.1749194 45.2246404 17.8836021"></polygon>
                                <polygon id="Shape" points="46.6287321 18.7027238 46.6651887 18.8118718 47.0115261 19.0483589 47.2849505 19.284846 47.6133164 19.2484634 47.6500297 18.8661895 47.4674901 18.6663412 47.1755807 18.6663412"></polygon>
                                <polygon id="Shape" points="50.038449 19.8079814 50.038449 19.6486723 50.3668149 19.8079814 51.0050617 19.7849487 51.0597466 19.9442578 50.7316374 20.1486723 50.5308695 19.9893633 50.31213 19.921545"></polygon>
                                <polygon id="Shape" points="52.9015739 19.958181 53.1020851 19.6486723 53.6494472 19.4852067 53.7038754 19.6853112 53.5215925 19.9215421 53.2114548 20.1037115 53.0289152 20.1219028"></polygon>
                                <polygon id="Shape" points="55.5821593 4.39922418 55.4360762 5.16325951 56.1839495 5.29085494 56.3659757 5.41793795 57.0042225 5.39974663 57.0042225 5.25447231 56.530287 5.14532441 56.4209173 4.99953765 56.256606 4.36258533"></polygon>
                                <polygon id="Shape" points="55.819127 4.19886348 56.384204 4.18067216 56.6761133 3.9078024 56.7854831 3.9078024 57.1141057 3.65312396 57.4239866 3.65312396 58.0619767 3.1798935 58.0804618 2.70666303 57.9158937 2.68847172 57.2961319 3.27085008 56.967766 3.27085008 56.4938305 3.23421123 56.2748343 3.48940211 56.1107797 3.74382433 55.8740686 3.78046318"></polygon>
                                <polygon id="Shape" points="81.9315354 10.440535 81.9859635 10.2588781 82.223188 10.2768132 82.4054709 10.4587263 82.7333233 10.9319568 83.0978891 11.3139745 83.2804287 11.3139745 83.9186755 12.0055007 84.1923566 12.1512875 84.1559 12.296818 84.0647586 12.4969225 84.3199546 12.9519617 84.5389508 13.1520661 84.7756618 13.3342355 84.7756618 13.588914 84.6113505 13.588914 84.6113505 13.6798706 84.4110961 13.6798706 84.1741283 13.1156835 83.8457624 12.9153228 83.5905664 12.5517527 83.1530874 12.0242045 82.6786385 11.4961438 82.2414163 10.7682349"></polygon>
                                <polygon id="Shape" points="84.6662921 14.2986316 84.7027487 14.1167184 84.994658 13.9893792 85.2133975 14.0982709 85.4688503 14.0982709 85.8516443 14.1715486 86.0156989 14.2440576 86.270895 14.4623534 86.270895 14.7716058 86.0521555 15.0083492 85.9792423 15.1905185 85.7422746 15.2269012 85.559735 15.099562 85.3774521 15.099562 85.3594805 15.4636445 85.0673145 15.4636445 84.9032599 15.2269012 84.7941469 15.0083492 84.848575 14.7900533 84.9399732 14.6260753 84.9032599 14.4987361"></polygon>
                                <polygon id="Shape" points="85.2680824 15.6998754 85.559735 15.6816841 85.8878442 15.9727452 86.2524099 16.5551236 86.4719196 17.2648411 86.6357175 17.7378154 86.544576 18.4111503 86.0703838 18.4659805 85.7969595 18.1928545 85.2863106 18.1928545 84.7941469 18.4841718 84.7756618 18.9755936 84.4478094 19.1211241 84.11893 19.066294 84.0829869 18.8298069 84.4110961 18.4295979 85.1771977 17.8654108 85.1951692 17.4103717 85.3594805 17.4103717 85.6329049 17.5197758 85.7969595 16.9735238 85.5415067 16.7554843 85.3409955 16.1185319"></polygon>
                                <polyline id="Shape" points="83.991332 19.6307372 84.2652698 19.6486723 84.3014696 19.8123942 84.3928678 20.1400941 84.5207225 20.3404548 84.7756618 20.3220073 84.9579447 20.0312024 84.720977 19.7214376 84.5024942 19.284846 84.1923566 19.2484634 84.0100737 19.3030373 83.9551321 19.5577158"></polyline>
                                <polygon id="Shape" points="84.994658 18.892959 85.3594805 18.8559413 85.5415067 18.7448881 85.7969595 18.485764 85.5959348 18.392959 85.231369 18.4672552 85.0493429 18.6155868"></polygon>
                                <polygon id="Shape" points="73.1783626 10.8773828 73.3244456 10.713661 73.4153303 10.8773828 73.3973588 11.6419306 73.2700175 12.0055007 73.0689929 12.2422441 72.7953118 12.3150093 72.7953118 12.0969697 73.0689929 11.8420351 73.2150759 11.4415699"></polygon>
                                <polygon id="Shape" points="58.7551652 15.5358974 58.5726255 15.5358974 58.5176839 15.7544494 58.2989445 15.8817886 58.1348899 16.0091278 58.1895748 16.1731059 58.4085709 16.337084 58.8460499 16.9371412 58.8460499 17.5015845 59.1559308 17.7562629 59.4113836 18.1382806 59.5387248 18.6297024 59.7212645 18.8661895 59.7032929 19.0483589 59.374927 19.2484634 59.1194742 19.2484634 58.4635126 18.8843808 58.0440052 18.7754891 58.0440052 18.1749194 58.2627446 17.5561584 57.7703241 17.028354 57.0224508 16.2274236 57.0042225 15.6998754 57.5148713 15.2814751 58.2440029 15.0447318 58.5176839 14.9537752 58.7733935 15.0083492 58.9007347 15.172071 58.8827632 15.3903668"></polygon>
                                <polygon id="Shape" points="60.8883884 14.8807537 61.3078958 14.8807537 61.3808089 15.0083492 61.4534653 15.6634928 61.2532109 16.0457667 60.9613015 16.136467 60.6147073 16.136467 60.5053376 15.7180667 60.5238226 15.2996664 60.7243338 15.0811144"></polygon>
                                <polygon id="Shape" points="64.8454674 15.0083492 64.662671 15.0447318 64.6991276 15.2630276 64.863439 15.3176015 65.009522 15.4815796 65.1550916 15.4997709 65.2100332 15.2630276 65.2100332 15.0811144 65.7204252 15.0631793 66.1217043 15.0265405 66.4680418 14.9173926 66.4680418 14.7354794 66.1946175 14.7354794 66.0487912 14.826436 65.84828 14.7716058 65.5928272 14.6809054 65.4105443 14.6081402 65.1735766 14.6081402 64.9912937 14.7536707"></polygon>
                                <polygon id="Shape" points="53.3937377 33.8248328 53.8497017 33.6611109 54.0866694 33.6793023 54.3785788 33.7702588 54.3600938 33.9160456 54.2145242 34.1525327 54.0137563 34.4254025 54.0137563 34.8804416 53.6494472 34.9168243 53.3210813 34.6257632"></polygon>
                                <polygon id="Shape" points="52.5367514 35.5901592 52.5185231 36.4090247 52.8286608 37.0093382 53.0289152 37.0277857 53.0289152 36.6455118 52.7737192 36.1722814 52.7737192 35.808455 52.700806 35.5537766"></polygon>
                                <polygon id="Shape" points="53.886415 37.719312 54.1589967 37.6465467 54.1817385 38.0467557 54.295768 38.8838125 54.386415 39.5025735 54.1589967 39.4298082 54.0001242 39.2112562 53.9546405 38.7564733 53.9773823 38.1559036"></polygon>
                                <polygon id="Shape" points="57.3141034 41.7406179 57.3325885 41.2494524 57.2052472 41.1948784 57.4055016 40.4487782 57.934122 40.0485692 58.2440029 39.8118259 58.5176839 39.3752343 59.2108724 38.629134 59.3564419 38.5924952 59.374927 39.1384909 59.3931553 40.266865 58.7002236 42.1595307 58.2809729 43.7063051 57.5880412 43.9430484 57.2052472 43.9609835 56.9130811 43.3240312 56.8768812 42.7052702"></polygon>
                                <polygon id="Shape" points="60.9613015 42.0503828 60.9980149 42.3833808 61.1982693 42.5503828 61.435237 42.5503828 61.4716936 42.3360971 61.1982693 42.0503828"></polygon>
                                <polygon id="Shape" points="61.9163917 41.6863002 62.1161442 41.6863002 62.2011794 41.9591729 62.0303068 42.1863002 61.7451179 42.1632676"></polygon>
                                <polygon id="Shape" points="82.4234424 22.9243905 82.7156085 22.8516253 82.8614348 23.3245995 82.8614348 23.5431515 83.0067476 24.2346778 82.7518083 24.2346778 82.4234424 23.9436167 82.2776161 23.5065127"></polygon>
                                <polygon id="Shape" points="82.8244648 25.6904956 83.3351136 25.654113 83.7001928 26.1273434 83.4811966 26.7092094 83.7001928 27.4009919 84.2105849 27.5465224 84.6478071 27.910605 84.720977 28.1655396 84.4293244 28.1655396 83.991332 27.7286918 83.4082835 27.7648182 82.8976347 27.0369093 82.8244648 26.673083 82.9702911 26.4911698 82.8976347 25.9815567"></polygon>
                                <polygon id="Shape" points="69.8777587 29.7302491 70.2790378 30.3490101 70.6076604 30.7130927 70.3886643 31.2224496 69.8415589 31.3682363 69.5863628 30.8947496 69.659276 30.3490101 69.7686457 29.9121623"></polygon>
                                <polygon id="Shape" points="75.3482991 31.477128 76.5518796 32.4599716 77.6460904 33.6244721 78.3390221 34.3890198 78.7762443 34.8983767 78.7038446 35.4443725 78.7038446 35.8809641 78.2293957 35.9903682 77.427351 35.2260766 76.5151663 33.7702588 75.8224914 32.7512889 75.275386 31.9503585 75.0566465 31.9503585 75.0201899 31.6229148"></polygon>
                                <polygon id="Shape" points="78.266109 36.5363639 78.4483918 36.208664 79.0316971 36.0264946 79.4694327 36.208664 80.3446473 36.3178119 80.8558096 36.5363639 81.4386014 37.0093382 81.5846844 37.4823124 81.2198619 37.4464422 80.8558096 37.2278902 80.3446473 37.1915076 79.8704551 37.0093382 78.9954972 36.7910424 78.7038446 36.5363639"></polygon>
                                <polyline id="Shape" points="83.2663082 28.9674949 83.1795313 29.3802584 82.9184303 29.8363224 82.7007178 29.8363224 82.7222837 29.4888939 82.9399962 29.2280663 83.0272866 28.9674949 83.2444856 28.9024161"></polyline>
                                <polygon id="Shape" points="84.0498679 28.5767659 84.4632136 28.6418447 84.4632136 28.8373373 84.2675804 29.119687 84.0280453 29.1847658 83.9628342 28.8591156"></polygon>
                                <polygon id="Shape" points="83.6799106 30.1186722 83.8542347 29.858357 84.0716905 29.727687 84.2241919 29.727687 84.3761799 29.6626082 84.5071155 29.4020368 84.7463939 29.4020368 84.8334275 29.641086 85.0074949 29.96648 84.5941492 30.6182929 84.1805467 30.639815 84.1587241 30.2708643 84.0932563 30.1840072 83.7669443 30.2055293"></polygon>
                                <polygon id="Shape" points="82.6349933 30.9006426 82.8532192 31.095879 83.0052072 31.2916278 83.2010971 31.5737213 82.8311399 31.8996277 82.7222837 32.464071 82.9836414 32.8114996 83.1358861 33.2895981 82.744363 33.6803271 82.3962284 34.4622975 82.0912254 35.244268 81.8740264 35.4179822 81.4599105 35.4179822 80.2850845 34.8748049 80.0455493 34.1366473 79.8933046 33.4200119 79.8933046 33.0287705 80.0676287 33.0287705 81.0468215 32.3992484 81.6563139 31.6823568 81.9821124 31.2480711 82.0912254 30.8788643"></polygon>
                                <polygon id="Shape" points="81.9389807 37.6262145 82.1127913 37.3022561 82.3307606 37.1553811 82.8750418 37.1553811 82.918687 37.4199645 82.7225404 37.6553811"></polygon>
                                <polygon id="Shape" points="87.4015623 34.2017261 87.7494402 35.0485191 88.2716422 35.1571546 88.8813913 35.700332 89.4688043 36.091061 89.6213057 36.3518886 89.6428716 37.0252235 90.2089755 37.459253 90.7745659 37.5896668 91.1227005 37.7633811 91.6012573 37.1771595 91.8407924 37.1553811 92.2982968 37.6985585 92.5373184 38.1543663 93.0163886 38.3716372 93.4946887 38.3931594 93.5604132 38.1108096 93.081343 37.4377309 92.7986761 36.9816669 92.711129 36.7643959 92.7986761 36.4602678 91.9932939 35.7871891 91.275202 35.244268 90.7527433 35.0485191 90.165587 34.7879477 89.359948 34.6360118 88.8813913 34.9401399 88.4893547 34.9834403 88.5116908 34.7228689 88.5116908 34.3969625 88.4241436 34.2447704 88.0978316 34.0930907 87.8146513 33.9844552 87.6408407 34.0277557"></polygon>
                                <polygon id="Shape" points="90.839777 38.4151939 91.0359236 38.4151939 91.1013914 40.0654795 91.275202 41.6509424 91.9714713 43.4101197 92.3632511 45.5169817 91.8410491 46.776282 90.6657096 48.6658731 89.142749 50.2948927 88.8159235 50.4688632 88.3591893 50.5552079 87.9894888 50.8595922 87.6192748 51.0117843 87.3360945 50.9461931 87.3360945 50.7076563 87.0097825 50.7076563 86.7702474 51.0335627 86.4875805 50.8160355 86.1173666 50.251336 85.9872012 49.5782573 85.8128771 48.948479 86.269868 48.5574938 86.2916906 48.3402229 86.0521555 48.3402229 85.573342 48.5790159 85.4865651 48.8613657 85.2691093 48.948479 85.2249506 48.5359717 85.24703 47.8844151 84.9856723 47.6235875 83.0924976 47.6886663 81.634748 47.971016 80.3069071 48.5574938 79.8065277 48.6443509 79.4799589 48.6658731 79.1315676 48.2098091 79.6106378 46.5592673 79.8935614 44.7567896 80.0458061 43.1495483 81.4167788 42.4329129 82.6136841 42.2156419 84.2026261 40.7605928 85.2033848 39.8699869 85.7040209 39.8484647 85.7040209 40.1741149 86.3348223 40.1741149 86.1173666 39.9135435 86.1612685 39.6311938 86.530969 39.50078 87.0529142 38.8494796 87.3145287 38.523317 87.6192748 38.523317 87.8801191 38.7623662 88.5550792 38.8712579 88.6639355 39.1318293 88.2716422 40.1308145 88.3152874 40.5215435 88.5550792 40.7823711 89.2295259 41.455706 89.6213057 41.3906272 90.1871529 40.2830066 90.3396543 39.3924007 90.5568534 38.7190658"></polygon>
                                <polygon id="Shape" points="96.1716797 49.9259421 96.345747 50.1647351 96.4761691 51.0338189 96.4761691 51.511405 96.9554961 51.5980059 96.9554961 51.902134 96.5198143 51.8806119 96.0849028 52.1844838 95.6055758 52.7056266 95.2795205 53.1399122 94.9313859 53.0748334 94.9750311 52.6623261 95.1270191 52.1191488 95.5408782 51.9239124 95.8669335 51.4896267 95.9973556 50.8378139 96.0628234 50.1647351"></polygon>
                                <polygon id="Shape" points="94.3873613 52.6187694 94.6700282 52.9446759 94.691594 53.3138827 94.213294 53.487597 93.4079117 53.7481684 92.7986761 54.2260107 92.4505415 54.46506 92.188927 54.8342669 91.9062602 54.9862028 91.340413 55.0079812 91.0793121 54.9644245 91.0138443 54.5301388 91.340413 54.3126117 92.1457953 54.0525527 92.6461747 53.6395329 93.3208781 53.3571832 93.8433368 52.7924837"></polygon>
                            </g>
                        </g>
                    </g>
                    <g id="Oval-6" transform="translate(40.101810, 7.214303)" fill="#F7284B">
                        <path d="M2.08525169,6 C2.08525169,6 0,3.33887663 0,2.1509434 C0,0.963010161 0.933598981,0 2.08525169,0 C3.2369044,0 4.17050338,0.963010161 4.17050338,2.1509434 C4.17050338,3.33887663 2.08525169,6 2.08525169,6 Z M2.08525169,2.94339623 C2.50954479,2.94339623 2.85350231,2.58860301 2.85350231,2.1509434 C2.85350231,1.71328378 2.50954479,1.35849057 2.08525169,1.35849057 C1.66095859,1.35849057 1.31700107,1.71328378 1.31700107,2.1509434 C1.31700107,2.58860301 1.66095859,2.94339623 2.08525169,2.94339623 Z"></path>
                    </g>
                    <g id="Oval-6" transform="translate(16.040724, 12.825428)" fill="#F7284B">
                        <path d="M2.08525169,6 C2.08525169,6 0,3.33887663 0,2.1509434 C0,0.963010161 0.933598981,0 2.08525169,0 C3.2369044,0 4.17050338,0.963010161 4.17050338,2.1509434 C4.17050338,3.33887663 2.08525169,6 2.08525169,6 Z M2.08525169,2.94339623 C2.50954479,2.94339623 2.85350231,2.58860301 2.85350231,2.1509434 C2.85350231,1.71328378 2.50954479,1.35849057 2.08525169,1.35849057 C1.66095859,1.35849057 1.31700107,1.71328378 1.31700107,2.1509434 C1.31700107,2.58860301 1.66095859,2.94339623 2.08525169,2.94339623 Z"></path>
                    </g>
                    <g id="Oval-6" transform="translate(7.218326, 20.039731)" fill="#F7284B">
                        <path d="M2.08525169,6 C2.08525169,6 0,3.33887663 0,2.1509434 C0,0.963010161 0.933598981,0 2.08525169,0 C3.2369044,0 4.17050338,0.963010161 4.17050338,2.1509434 C4.17050338,3.33887663 2.08525169,6 2.08525169,6 Z M2.08525169,2.94339623 C2.50954479,2.94339623 2.85350231,2.58860301 2.85350231,2.1509434 C2.85350231,1.71328378 2.50954479,1.35849057 2.08525169,1.35849057 C1.66095859,1.35849057 1.31700107,1.71328378 1.31700107,2.1509434 C1.31700107,2.58860301 1.66095859,2.94339623 2.08525169,2.94339623 Z"></path>
                    </g>
                    <g id="Oval-6" transform="translate(22.457014, 29.658802)" fill="#F7284B">
                        <path d="M2.08525169,6 C2.08525169,6 0,3.33887663 0,2.1509434 C0,0.963010161 0.933598981,0 2.08525169,0 C3.2369044,0 4.17050338,0.963010161 4.17050338,2.1509434 C4.17050338,3.33887663 2.08525169,6 2.08525169,6 Z M2.08525169,2.94339623 C2.50954479,2.94339623 2.85350231,2.58860301 2.85350231,2.1509434 C2.85350231,1.71328378 2.50954479,1.35849057 2.08525169,1.35849057 C1.66095859,1.35849057 1.31700107,1.71328378 1.31700107,2.1509434 C1.31700107,2.58860301 1.66095859,2.94339623 2.08525169,2.94339623 Z"></path>
                    </g>
                    <g id="Oval-6" transform="translate(38.497738, 19.238142)" fill="#F7284B">
                        <path d="M2.08525169,6 C2.08525169,6 0,3.33887663 0,2.1509434 C0,0.963010161 0.933598981,0 2.08525169,0 C3.2369044,0 4.17050338,0.963010161 4.17050338,2.1509434 C4.17050338,3.33887663 2.08525169,6 2.08525169,6 Z M2.08525169,2.94339623 C2.50954479,2.94339623 2.85350231,2.58860301 2.85350231,2.1509434 C2.85350231,1.71328378 2.50954479,1.35849057 2.08525169,1.35849057 C1.66095859,1.35849057 1.31700107,1.71328378 1.31700107,2.1509434 C1.31700107,2.58860301 1.66095859,2.94339623 2.08525169,2.94339623 Z"></path>
                    </g>
                    <g id="Oval-6" transform="translate(44.111991, 10.420660)" fill="#F7284B">
                        <path d="M2.08525169,6 C2.08525169,6 0,3.33887663 0,2.1509434 C0,0.963010161 0.933598981,0 2.08525169,0 C3.2369044,0 4.17050338,0.963010161 4.17050338,2.1509434 C4.17050338,3.33887663 2.08525169,6 2.08525169,6 Z M2.08525169,2.94339623 C2.50954479,2.94339623 2.85350231,2.58860301 2.85350231,2.1509434 C2.85350231,1.71328378 2.50954479,1.35849057 2.08525169,1.35849057 C1.66095859,1.35849057 1.31700107,1.71328378 1.31700107,2.1509434 C1.31700107,2.58860301 1.66095859,2.94339623 2.08525169,2.94339623 Z"></path>
                    </g>
                    <g id="Oval-6" transform="translate(53.736426, 7.214303)" fill="#F7284B">
                        <path d="M2.08525169,6 C2.08525169,6 0,3.33887663 0,2.1509434 C0,0.963010161 0.933598981,0 2.08525169,0 C3.2369044,0 4.17050338,0.963010161 4.17050338,2.1509434 C4.17050338,3.33887663 2.08525169,6 2.08525169,6 Z M2.08525169,2.94339623 C2.50954479,2.94339623 2.85350231,2.58860301 2.85350231,2.1509434 C2.85350231,1.71328378 2.50954479,1.35849057 2.08525169,1.35849057 C1.66095859,1.35849057 1.31700107,1.71328378 1.31700107,2.1509434 C1.31700107,2.58860301 1.66095859,2.94339623 2.08525169,2.94339623 Z"></path>
                    </g>
                    <g id="Oval-6" transform="translate(48.122172, 39.277872)" fill="#F7284B">
                        <path d="M2.08525169,6 C2.08525169,6 0,3.33887663 0,2.1509434 C0,0.963010161 0.933598981,0 2.08525169,0 C3.2369044,0 4.17050338,0.963010161 4.17050338,2.1509434 C4.17050338,3.33887663 2.08525169,6 2.08525169,6 Z M2.08525169,2.94339623 C2.50954479,2.94339623 2.85350231,2.58860301 2.85350231,2.1509434 C2.85350231,1.71328378 2.50954479,1.35849057 2.08525169,1.35849057 C1.66095859,1.35849057 1.31700107,1.71328378 1.31700107,2.1509434 C1.31700107,2.58860301 1.66095859,2.94339623 2.08525169,2.94339623 Z"></path>
                    </g>
                    <g id="Oval-6" transform="translate(70.579186, 14.428606)" fill="#F7284B">
                        <path d="M2.08525169,6 C2.08525169,6 0,3.33887663 0,2.1509434 C0,0.963010161 0.933598981,0 2.08525169,0 C3.2369044,0 4.17050338,0.963010161 4.17050338,2.1509434 C4.17050338,3.33887663 2.08525169,6 2.08525169,6 Z M2.08525169,2.94339623 C2.50954479,2.94339623 2.85350231,2.58860301 2.85350231,2.1509434 C2.85350231,1.71328378 2.50954479,1.35849057 2.08525169,1.35849057 C1.66095859,1.35849057 1.31700107,1.71328378 1.31700107,2.1509434 C1.31700107,2.58860301 1.66095859,2.94339623 2.08525169,2.94339623 Z"></path>
                    </g>
                    <g id="Oval-6" transform="translate(84.213802, 12.023838)" fill="#F7284B">
                        <path d="M2.08525169,6 C2.08525169,6 0,3.33887663 0,2.1509434 C0,0.963010161 0.933598981,0 2.08525169,0 C3.2369044,0 4.17050338,0.963010161 4.17050338,2.1509434 C4.17050338,3.33887663 2.08525169,6 2.08525169,6 Z M2.08525169,2.94339623 C2.50954479,2.94339623 2.85350231,2.58860301 2.85350231,2.1509434 C2.85350231,1.71328378 2.50954479,1.35849057 2.08525169,1.35849057 C1.66095859,1.35849057 1.31700107,1.71328378 1.31700107,2.1509434 C1.31700107,2.58860301 1.66095859,2.94339623 2.08525169,2.94339623 Z"></path>
                    </g>
                    <g id="Oval-6" transform="translate(82.609729, 22.444498)" fill="#F7284B">
                        <path d="M2.08525169,6 C2.08525169,6 0,3.33887663 0,2.1509434 C0,0.963010161 0.933598981,0 2.08525169,0 C3.2369044,0 4.17050338,0.963010161 4.17050338,2.1509434 C4.17050338,3.33887663 2.08525169,6 2.08525169,6 Z M2.08525169,2.94339623 C2.50954479,2.94339623 2.85350231,2.58860301 2.85350231,2.1509434 C2.85350231,1.71328378 2.50954479,1.35849057 2.08525169,1.35849057 C1.66095859,1.35849057 1.31700107,1.71328378 1.31700107,2.1509434 C1.31700107,2.58860301 1.66095859,2.94339623 2.08525169,2.94339623 Z"></path>
                    </g>
                </g>
                <g id="Oval-6" transform="translate(85.000000, 37.000000)" fill="#F7284B">
                    <path d="M2.08525169,6 C2.08525169,6 0,3.33887663 0,2.1509434 C0,0.963010161 0.933598981,0 2.08525169,0 C3.2369044,0 4.17050338,0.963010161 4.17050338,2.1509434 C4.17050338,3.33887663 2.08525169,6 2.08525169,6 Z M2.08525169,2.94339623 C2.50954479,2.94339623 2.85350231,2.58860301 2.85350231,2.1509434 C2.85350231,1.71328378 2.50954479,1.35849057 2.08525169,1.35849057 C1.66095859,1.35849057 1.31700107,1.71328378 1.31700107,2.1509434 C1.31700107,2.58860301 1.66095859,2.94339623 2.08525169,2.94339623 Z"></path>
                </g>
            </g>
        </g>
    </g>
</svg>