<?xml version="1.0" encoding="utf-8"?>
<!-- Generator: Adobe Illustrator 18.0.0, SVG Export Plug-In . SVG Version: 6.00 Build 0)  -->
<!DOCTYPE svg PUBLIC "-//W3C//DTD SVG 1.1//EN" "http://www.w3.org/Graphics/SVG/1.1/DTD/svg11.dtd">
<svg version="1.1" id="Capa_1" xmlns="http://www.w3.org/2000/svg" xmlns:xlink="http://www.w3.org/1999/xlink" x="0px" y="0px"
	 viewBox="0 0 16 22" enable-background="new 0 0 16 22" xml:space="preserve">
<title>Page 1</title>
<desc>Created with Sketch.</desc>
<g id="Page-1_1_">
	<g id="REDISEÑO" transform="translate(-1372.000000, -439.000000)">
		<g id="Page-1" transform="translate(1372.000000, 439.000000)">
			<g id="Group-3">
				<path id="Fill-1" fill="#C91B39" d="M2,3.1h11.2H2z M5.9,2h3.3V1H5.9V2z M14,3.1h0.8c0.2,0,0.4-0.2,0.4-0.5
					C15.2,2.3,15,2,14.7,2H10V1c0-0.6-0.4-1-0.8-1H5.9C5.5,0,5.1,0.5,5.1,1v1H0.4C0.2,2,0,2.3,0,2.5s0.2,0.5,0.4,0.5h0.8L14,3.1z"/>
			</g>
			<g id="Group-6" transform="translate(0.000000, 3.673570)">
				<path id="Fill-4" fill="#C91B39" d="M14.3,17.8H0.8c-0.3,0-0.5-0.2-0.5-0.5L0,0.5C0,0.2,0.2,0,0.5,0h14.1c0.3,0,0.5,0.2,0.5,0.5
					l-0.3,16.9C14.8,17.6,14.6,17.8,14.3,17.8"/>
			</g>
			<path id="Fill-7" fill="#FFFFFF" d="M4.5,8.7c0-0.3-0.2-0.5-0.5-0.5c0,0,0,0,0,0c-0.3,0-0.5,0.2-0.5,0.5L3.6,17
				c0,0.3,0.2,0.5,0.5,0.5c0,0,0,0,0,0c0.3,0,0.5-0.2,0.5-0.5L4.5,8.7z"/>
			<path id="Fill-9" fill="#FFFFFF" d="M7.6,8.2c-0.3,0-0.5,0.2-0.5,0.5V17c0,0.3,0.2,0.5,0.5,0.5c0.3,0,0.5-0.2,0.5-0.5V8.7
				C8.1,8.4,7.9,8.2,7.6,8.2"/>
			<path id="Fill-11" fill="#FFFFFF" d="M11.2,8.2c-0.3,0-0.5,0.2-0.5,0.5L10.5,17c0,0.3,0.2,0.5,0.5,0.5c0,0,0,0,0,0
				c0.3,0,0.5-0.2,0.5-0.5l0.2-8.3C11.7,8.4,11.5,8.2,11.2,8.2"/>
		</g>
	</g>
</g>
</svg>
