<?xml version="1.0" encoding="utf-8"?>
<!-- Generator: Adobe Illustrator 19.2.1, SVG Export Plug-In . SVG Version: 6.00 Build 0)  -->
<svg version="1.1" id="Capa_1" xmlns="http://www.w3.org/2000/svg" xmlns:xlink="http://www.w3.org/1999/xlink" x="0px" y="0px"
	 viewBox="0 0 20 25" style="enable-background:new 0 0 20 25;" xml:space="preserve">
<style type="text/css">
	.st0{fill:none;stroke:#C91C39;stroke-width:0.8;}
</style>
<title>Page 1</title>
<desc>Created with Sketch.</desc>
<g id="Page-1_1_">
	<g id="REDISEÑO" transform="translate(-1941.000000, -241.000000)">
		<path id="Page-1" class="st0" d="M1951.2,258.1c0,0.2,0,0.5-0.2,0.7c0,0.1-0.1,0.3-0.2,0.4c-0.1,0.2-0.3,0.4-0.4,0.6
			c-0.2,0.2-0.4,0.3-0.6,0.4c-0.1,0.1-0.3,0.2-0.5,0.2c-0.2,0.1-0.4,0.1-0.6,0.1c-0.2,0-0.5,0-0.8-0.1c-0.6-0.3-0.9-0.9-0.9-1.5
			c-0.1-1.7,0.3-3.2,1.3-4.5c0.6-0.8,1.4-1.1,2.3-1.2c0.4,0,0.8,0,1.3,0.1C1951.7,255,1951.4,256.6,1951.2,258.1 M1959.2,258.5
			c-0.1,0-0.2,0-0.4,0c-0.2,0.1-0.4,0.2-0.6,0.2c-1,0.4-2.4,1.2-2.4,0.9c0.1-0.7,0.2-1.4,0.3-2.2c0.2-1.1,0.3-2.3,0.5-3.4
			c0.2-1.1,0.3-2.2,0.5-3.4c0.2-1.1,0.3-2.3,0.5-3.4c0.2-1.2,0.4-2.5,0.6-3.7c0.1-0.8-0.2-1.3-0.9-1.5c-0.6-0.2-1.2-0.2-1.8-0.2
			c-1.1,0-1.7,0.5-2,1.6c-0.2,1.1-0.4,2.3-0.5,3.4c-0.1,0.9-0.3,1.7-0.4,2.5c-4.9-0.6-10.4,2.3-10.4,9.9c0,0.5,0.1,0.9,0.1,1.3
			c0.1,1.1,0.5,2,1.2,2.9c1.3,1.6,3.7,1.8,5.3,1c1-0.5,1.6-1.3,2.2-2.1c0-0.1,0.1-0.1,0.2-0.2c0,0.1,0,0.2,0,0.2
			c0,1.1,0.5,1.9,1.5,2.3c1.2,0.5,2.3,0.4,3.4-0.3c0.5-0.4,1.1-0.8,1.5-1.3C1960.5,258.8,1959.6,258.5,1959.2,258.5"/>
	</g>
</g>
</svg>
