<?xml version="1.0" encoding="utf-8"?>
<!-- Generator: Adobe Illustrator 18.0.0, SVG Export Plug-In . SVG Version: 6.00 Build 0)  -->
<!DOCTYPE svg PUBLIC "-//W3C//DTD SVG 1.1//EN" "http://www.w3.org/Graphics/SVG/1.1/DTD/svg11.dtd" [
	<!ENTITY ns_extend "http://ns.adobe.com/Extensibility/1.0/">
	<!ENTITY ns_ai "http://ns.adobe.com/AdobeIllustrator/10.0/">
	<!ENTITY ns_graphs "http://ns.adobe.com/Graphs/1.0/">
	<!ENTITY ns_vars "http://ns.adobe.com/Variables/1.0/">
	<!ENTITY ns_imrep "http://ns.adobe.com/ImageReplacement/1.0/">
	<!ENTITY ns_sfw "http://ns.adobe.com/SaveForWeb/1.0/">
	<!ENTITY ns_custom "http://ns.adobe.com/GenericCustomNamespace/1.0/">
	<!ENTITY ns_adobe_xpath "http://ns.adobe.com/XPath/1.0/">
]>
<svg version="1.1" id="Capa_1" xmlns:x="&ns_extend;" xmlns:i="&ns_ai;" xmlns:graph="&ns_graphs;"
	 xmlns="http://www.w3.org/2000/svg" xmlns:xlink="http://www.w3.org/1999/xlink" x="0px" y="0px" viewBox="0 0 20 25"
	 enable-background="new 0 0 20 25" xml:space="preserve">
<metadata>
	<sfw  xmlns="&ns_sfw;">
		<slices></slices>
		<sliceSourceBounds  height="23.9" width="18.4" x="287.6" y="409.5" bottomLeftOrigin="true"></sliceSourceBounds>
	</sfw>
</metadata>
<title>Page 1</title>
<desc>Created with Sketch.</desc>
<g id="Page-1_1_">
	<g id="REDISEÑO" transform="translate(-1941.000000, -241.000000)">
		<path id="Page-1" fill="none" stroke="#C91C39" stroke-width="0.8" d="M1951.2,258.1c-0.4,2.5-4.3,3.7-4.3,0.4
			c0-1.5,0.5-2.9,1.3-4.1c0.9-1.2,2.3-1.2,3.6-1.1C1951.7,255,1951.4,256.5,1951.2,258.1 M1959,258.5c-1-0.1-2.2,1.1-3,1.3
			c-0.2,0,0.3-3.7,0.4-4.2c0.5-3.3,1-6.5,1.4-9.8c0.2-1.2,1-3.2-0.6-3.6c-1-0.3-2.7-0.4-3.4,0.5c-0.8,1.1-0.7,3-0.9,4.3
			c-0.1,0.8-0.3,1.7-0.4,2.5c-0.5-0.1-1-0.1-1.5-0.1c-4.4,0.1-8,3.1-8.8,7.5c-0.5,2.5-0.4,6.2,2.2,7.6c2.7,1.4,5-0.2,6.6-2.3
			c0,1.7,1.1,2.8,2.8,2.8c2,0.1,3.4-1.7,4.4-3.2c0.2-0.3,2-2.9,1.1-3.3C1959.3,258.5,1959.1,258.5,1959,258.5z"/>
	</g>
</g>
</svg>
