<?xml version="1.0" encoding="UTF-8"?>
<svg width="20px" height="25px" viewBox="0 0 20 25" version="1.1" xmlns="http://www.w3.org/2000/svg" xmlns:xlink="http://www.w3.org/1999/xlink">
    <!-- Generator: Sketch 46.2 (44496) - http://www.bohemiancoding.com/sketch -->
    <title>Page 1</title>
    <desc>Created with Sketch.</desc>
    <defs></defs>
    <g id="Page-1" stroke="none" stroke-width="1" fill="none" fill-rule="evenodd">
        <g id="REDISEÑO" transform="translate(-1941.000000, -241.000000)" stroke="#1C1919" stroke-width="0.8">
            <path d="M1951.20542,258.12863 C1951.1726,258.358501 1951.16094,258.58494 1951.01649,258.869081 C1950.97968,259.00507 1950.93,259.134196 1950.85731,259.281101 C1950.75272,259.493194 1950.59354,259.693433 1950.41903,259.849695 C1950.22703,260.02124 1950.01111,260.174383 1949.77495,260.279494 C1949.6354,260.381173 1949.46947,260.454782 1949.28177,260.49876 C1949.1048,260.576423 1948.90115,260.621648 1948.66959,260.62352 C1948.42177,260.668121 1948.16782,260.653462 1947.88657,260.52839 C1947.23912,260.24113 1946.99222,259.656317 1946.95235,259.007877 C1946.85052,257.349504 1947.2747,255.831798 1948.25952,254.490627 C1948.84195,253.697153 1949.67006,253.38307 1950.596,253.312268 C1951.01465,253.280454 1951.44096,253.350632 1951.88906,253.375584 C1951.65351,255.012748 1951.429,256.570689 1951.20542,258.12863 M1959.17666,258.513827 C1959.08771,258.490435 1958.95613,258.50603 1958.79634,258.547512 C1958.58594,258.634844 1958.37278,258.710948 1958.15594,258.778006 C1957.11591,259.218721 1955.74954,260.001591 1955.77408,259.679398 C1955.82806,258.956413 1955.93878,258.23686 1956.04091,257.51793 C1956.20193,256.388539 1956.37767,255.261332 1956.54391,254.132566 C1956.70861,253.012532 1956.86779,251.891251 1957.0331,250.77153 C1957.19964,249.642763 1957.37201,248.514932 1957.54039,247.386477 C1957.72441,246.153224 1957.89586,244.918099 1958.09246,243.686718 C1958.2179,242.901041 1957.91181,242.385158 1957.15548,242.15404 C1956.55863,241.971891 1955.94737,242.001833 1955.33764,242.001833 C1954.24547,242.001833 1953.59157,242.474362 1953.36952,243.561022 C1953.14164,244.677001 1953.0073,245.812629 1952.83401,246.940148 C1952.70244,247.795066 1952.57393,248.65092 1952.44665,249.48806 C1947.54828,248.907614 1942,251.782086 1942,259.361572 C1942.0457,259.840962 1942.07024,260.275439 1942.13127,260.704614 C1942.28094,261.756653 1942.6312,262.725727 1943.30717,263.559124 C1944.61465,265.170712 1946.99069,265.331029 1948.63248,264.530693 C1949.59369,264.062219 1950.25279,263.254397 1950.8662,262.402598 C1950.91251,262.338347 1950.96005,262.275031 1951.049,262.154637 C1951.049,262.290002 1951.04808,262.342713 1951.049,262.395424 C1951.0674,263.46992 1951.548,264.261835 1952.51719,264.677286 C1953.68911,265.179445 1954.84753,265.091801 1955.89553,264.333572 C1956.43411,263.943697 1957.01194,263.560371 1957.41004,263.02016 C1960.52523,258.79828 1959.58365,258.539715 1959.17666,258.513827" id="Page-1"></path>
        </g>
    </g>
</svg>