<?xml version="1.0" encoding="utf-8"?>
<!-- Generator: Adobe Illustrator 19.2.1, SVG Export Plug-In . SVG Version: 6.00 Build 0)  -->
<svg version="1.1" id="Capa_1" xmlns="http://www.w3.org/2000/svg" xmlns:xlink="http://www.w3.org/1999/xlink" x="0px" y="0px"
	 viewBox="0 0 333 204" style="enable-background:new 0 0 333 204;" xml:space="preserve">
<style type="text/css">
	.st0{fill:#1C1919;}
</style>
<title>Group 4</title>
<desc>Created with Sketch.</desc>
<path class="st0" d="M326,204H7c-3.9,0-7-3.1-7-7V7c0-3.9,3.1-7,7-7h319c3.9,0,7,3.1,7,7v190C333,200.9,329.9,204,326,204z M7,2
	C4.2,2,2,4.2,2,7v190c0,2.8,2.2,5,5,5h319c2.8,0,5-2.2,5-5V7c0-2.8-2.2-5-5-5H7z"/>
<circle id="Oval-108" class="st0" cx="80" cy="112" r="21"/>
<circle id="Oval-108-Copy" class="st0" cx="253" cy="112" r="21"/>
<rect x="106.8" y="169" class="st0" width="120.4" height="2"/>
</svg>
