<?xml version="1.0" encoding="UTF-8"?>
<svg width="388px" height="267px" viewBox="0 0 388 267" version="1.1" xmlns="http://www.w3.org/2000/svg" xmlns:xlink="http://www.w3.org/1999/xlink">
    <!-- Generator: Sketch 46.2 (44496) - http://www.bohemiancoding.com/sketch -->
    <title>Group 11</title>
    <desc>Created with Sketch.</desc>
    <defs></defs>
    <g id="become-a-deviser" stroke="none" stroke-width="1" fill="none" fill-rule="evenodd">
        <g id="BECOME-A-DEVISER" transform="translate(-792.000000, -216.000000)" fill="#FFFFFF">
            <g id="Group-10" transform="translate(792.000000, 216.000000)">
                <g id="Group-11">
                    <path d="M56,110.112419 L77.8404797,110.112419 L77.8404797,105.562319 L62.0667999,105.562319 L62.0667999,56.1178993 L75.8687698,56.1178993 L75.8687698,51.5677994 L62.0667999,51.5677994 L62.0667999,5.15677994 L76.7787897,5.15677994 L76.7787897,0.606679993 L56,0.606679993 L56,110.112419 Z M97.496832,53.0844994 L85.2115621,110.112419 L90.671682,110.112419 L101.440252,57.3312593 L101.743592,57.3312593 L111.602142,110.112419 L117.668942,110.112419 L105.383672,53.0844994 L116.910592,0.606679993 L111.450472,0.606679993 L101.743592,48.8377394 L101.440252,48.8377394 L92.340052,0.606679993 L86.2732521,0.606679993 L97.496832,53.0844994 Z M128.831774,110.112419 L128.831774,0.606679993 L142.482074,0.606679993 C150.672254,0.606679993 154.919014,3.94341995 154.919014,11.0719099 L154.919014,46.8660294 C154.919014,53.0844994 150.672254,57.3312593 142.482074,57.3312593 L134.898574,57.3312593 L134.898574,110.112419 L128.831774,110.112419 Z M134.898574,52.7811594 L141.420384,52.7811594 C145.818814,52.7811594 148.852214,50.6577794 148.852214,46.2593494 L148.852214,11.9819299 C148.852214,7.28015991 146.122154,5.15677994 141.420384,5.15677994 L134.898574,5.15677994 L134.898574,52.7811594 Z M169.418586,110.112419 L169.418586,0.606679993 L183.068886,0.606679993 C190.349046,0.606679993 195.505826,3.94341995 195.505826,10.7685699 L195.505826,43.0742795 C195.505826,48.9894094 193.837456,53.2361694 186.102286,53.8428493 L186.102286,54.1461893 C191.562406,54.6011993 195.505826,57.3312593 195.505826,64.0047392 L195.505826,110.112419 L189.439026,110.112419 L189.439026,64.0047392 C189.439026,59.9096493 187.163976,56.1178993 181.097176,56.1178993 L175.485386,56.1178993 L175.485386,110.112419 L169.418586,110.112419 Z M175.485386,51.5677994 L181.400516,51.5677994 C186.557296,51.5677994 189.439026,49.1410794 189.439026,44.2876395 L189.439026,11.9819299 C189.439026,7.28015991 186.860636,5.15677994 182.007196,5.15677994 L175.485386,5.15677994 L175.485386,51.5677994 Z M212.887128,110.112419 L234.727608,110.112419 L234.727608,105.562319 L218.953928,105.562319 L218.953928,56.1178993 L232.755898,56.1178993 L232.755898,51.5677994 L218.953928,51.5677994 L218.953928,5.15677994 L233.665918,5.15677994 L233.665918,0.606679993 L212.887128,0.606679993 L212.887128,110.112419 Z M251.19889,79.626749 L245.73877,79.626749 L245.73877,99.0405088 C245.73877,106.472339 249.22718,110.719099 258.63072,110.719099 C268.18593,110.719099 271.67434,106.472339 271.67434,99.4955188 L271.67434,78.868399 C271.67434,72.8015991 269.70263,67.4931492 267.12424,62.3363692 L254.6873,38.5241795 C253.01893,34.8840996 252.26058,31.6990296 252.26058,28.0589497 L252.26058,11.0719099 C252.26058,7.43182991 254.53563,4.55009995 258.78239,4.55009995 C263.02915,4.55009995 265.3042,6.37013992 265.3042,10.7685699 L265.3042,29.7273196 L270.76432,29.7273196 L270.76432,10.1618899 C270.76432,3.03339996 266.51756,0 258.32738,0 C250.59221,0 245.73877,4.24675995 245.73877,11.3752499 L245.73877,27.3005997 C245.73877,31.5473596 247.1038,37.3108195 249.68219,42.1642595 L262.42247,66.2797892 C264.54585,71.2848991 265.60754,74.6216391 265.60754,80.385099 L265.60754,99.1921788 C265.60754,104.197289 263.33249,106.168999 258.17571,106.168999 C252.56392,106.168999 251.19889,103.135599 251.19889,99.4955188 L251.19889,79.626749 Z M289.813992,79.626749 L284.353872,79.626749 L284.353872,99.0405088 C284.353872,106.472339 287.842282,110.719099 297.245822,110.719099 C306.801032,110.719099 310.289442,106.472339 310.289442,99.4955188 L310.289442,78.868399 C310.289442,72.8015991 308.317732,67.4931492 305.739342,62.3363692 L293.302402,38.5241795 C291.634032,34.8840996 290.875682,31.6990296 290.875682,28.0589497 L290.875682,11.0719099 C290.875682,7.43182991 293.150732,4.55009995 297.397492,4.55009995 C301.644252,4.55009995 303.919302,6.37013992 303.919302,10.7685699 L303.919302,29.7273196 L309.379422,29.7273196 L309.379422,10.1618899 C309.379422,3.03339996 305.132662,0 296.942482,0 C289.207312,0 284.353872,4.24675995 284.353872,11.3752499 L284.353872,27.3005997 C284.353872,31.5473596 285.718902,37.3108195 288.297292,42.1642595 L301.037572,66.2797892 C303.160952,71.2848991 304.222642,74.6216391 304.222642,80.385099 L304.222642,99.1921788 C304.222642,104.197289 301.947592,106.168999 296.790812,106.168999 C291.179022,106.168999 289.813992,103.135599 289.813992,99.4955188 L289.813992,79.626749 Z" id="EXPRESS"></path>
                    <path d="M42.8105063,146.359747 C42.3355336,147.158309 41.8765079,147.967663 41.3797096,148.753766 C40.8136565,149.6516 40.439922,150.567786 40.3803319,151.667478 C40.3507174,152.212209 39.7629047,152.717168 39.4603469,153.256858 C38.4608579,155.038089 37.2536583,156.64827 35.9276101,158.219229 C35.1158407,159.181731 34.937684,160.654818 34.4108462,161.871512 C34.1313641,162.514419 33.6939846,163.088954 33.3632322,163.712532 C32.6637224,165.027142 31.9962613,166.358955 31.2967515,167.673565 C31.0535216,168.130442 30.8348116,168.649618 30.4610021,168.979078 C29.2307542,170.064655 28.4139685,171.379603 28.0040958,172.941251 C27.5390457,174.720466 26.310924,176.04022 25.1976158,177.387353 C23.3724623,179.599482 21.4245414,181.715191 19.4638449,183.814364 C17.8054862,185.590386 16.1108374,187.343207 14.3305881,188.997965 C12.9278353,190.302907 10.9985378,190.544965 9.54915228,189.554077 C8.48530528,188.82671 7.15947174,188.372678 6.3262715,187.376745 C5.35350625,186.213581 4.39978239,184.973527 3.74838257,183.621016 C2.93783589,181.941112 2.33943576,180.138319 1.85386391,178.335035 C1.55217667,177.209691 1.65781644,175.982833 1.52709931,174.807797 C1.16798821,171.566217 0.871608245,168.313638 0.367761794,165.093394 C0.0882123874,163.298692 -0.0643021444,161.521548 0.025973067,159.720605 C0.0745402696,158.722952 0.260881185,157.732986 0.316861122,156.73559 C0.36091535,155.949938 0.216995563,155.149012 0.303837359,154.370691 C0.701999667,150.827534 1.15777501,147.29222 1.5796065,143.751343 C1.71297594,142.622011 1.83315717,141.487834 1.90743103,140.350607 C2.05401897,138.131686 2.04100758,135.892618 2.33681703,133.693484 C2.51169847,132.397324 3.08767967,131.134045 3.60741417,129.908328 C3.9814451,129.025805 4.56173021,128.229419 5.23970869,127.440799 C5.95782034,129.468664 6.72679037,131.359287 6.58962651,133.521472 C6.49093393,135.098263 6.76384489,136.702525 6.92459802,138.288281 C7.03927806,139.413016 7.42122913,140.535282 7.37758609,141.645767 C7.22734329,145.440374 6.8503224,149.225681 6.73872896,153.018697 C6.65621026,155.861671 6.8049173,158.714098 6.9346091,161.558552 C7.03048909,163.63661 7.2214068,165.713564 7.45123173,167.781619 C7.62013268,169.304741 7.91715154,170.814732 8.17696437,172.453658 C8.48982096,172.337175 8.91067105,172.315139 9.04411403,172.109056 C10.00619,170.630867 11.8403474,170.224575 12.9408538,168.945768 C14.0507713,167.652655 14.9759383,166.168801 16.2356439,165.047663 C17.1398462,164.241986 17.4795097,162.903236 18.7822964,162.49614 C19.0164102,162.423757 19.1750441,162.092714 19.355065,161.870683 C20.7546739,160.150099 22.1485073,158.424925 23.5481162,156.704341 C23.9313243,156.234743 24.2963547,155.859622 24.2813519,155.107045 C24.2576876,153.926929 25.3055546,153.256437 26.0893873,152.370517 C26.1794734,152.677965 26.2349843,152.871555 26.3395217,153.232176 C27.4053753,151.925835 28.4133835,150.702358 29.4011001,149.465012 C29.6076651,149.205856 29.6752193,148.805825 29.9210264,148.612404 C31.2525386,147.559588 31.455061,145.984922 31.9958228,144.541922 C32.3759778,143.527927 33.0038983,142.601504 33.5422087,141.648574 C34.316323,140.280942 35.1487078,138.944587 35.8762059,137.551934 C36.1516653,137.023013 36.2070766,136.378216 36.3571514,135.784974 C36.5673156,134.961167 36.7481382,134.127568 36.9891779,133.312144 C37.0652272,133.049942 37.2424253,132.697593 37.4605405,132.615878 C38.6398247,132.175251 39.8367833,131.780593 41.0442098,131.425802 C41.5662217,131.271188 42.1279653,131.252557 42.6712225,131.168909 C42.9503154,131.125879 43.2266495,131.076902 43.5043114,131.03236 C44.0417415,130.945584 44.6345539,130.971921 45.1041355,130.746727 C45.9964115,130.321057 46.8736783,130.657169 47.720806,130.585484 C49.4030979,130.444626 50.7027214,131.178678 52.0995233,131.766845 C53.1262434,132.2003 53.7662621,132.992032 54.1963513,134.012077 C54.9990073,135.91557 55.0673639,137.890257 54.9399597,139.902074 C54.9131947,140.323999 54.9183754,140.766049 55.0152807,141.17469 C56.0002679,145.314323 56.4323937,149.515324 56.3508232,153.761491 C56.3078073,155.989844 56.0778357,158.216126 56.0243903,160.445582 C55.9867785,162.058136 56.1019722,163.673043 56.1517661,165.332512 C56.5990696,165.402105 57.0138602,165.467648 57.3799331,165.525655 C57.8745653,164.80093 58.3697003,164.104023 58.8343721,163.387041 C58.9851546,163.152295 59.1121262,162.877221 59.158834,162.605226 C59.4166487,161.104165 60.0031239,159.795891 60.9784645,158.572748 C61.8280973,157.504745 62.3264449,156.170015 63.0695152,155.009078 C64.2444735,153.176847 65.3271144,151.3107 67.1470563,149.919217 C68.1233747,149.173095 69.5047109,148.685314 69.8627199,147.205273 C69.9754856,146.743888 70.5952432,146.427316 70.876813,145.977616 C71.3677327,145.189848 71.4874614,144.362916 71.3453343,143.385011 C71.1420377,141.99531 71.9225458,140.782993 72.7060312,139.696609 C73.228935,138.969935 73.9693215,138.389775 74.649697,137.785594 C75.74832,136.812521 77.1385749,136.913234 78.4703923,136.861223 C79.8705615,136.807185 79.8860444,136.83113 80.1474423,135.480897 C80.8442285,131.88807 82.3901901,128.712319 84.7936683,125.927598 C85.7253053,124.84926 86.4269035,123.559596 87.431417,122.561323 C88.4927962,121.507952 89.4019502,120.393722 90.2556188,119.169301 C90.7308101,118.490725 91.838752,117.968624 92.7052043,117.896143 C94.2966483,117.763852 95.9410245,117.898219 97.5247834,118.151934 C98.5240323,118.312293 99.4631914,118.871479 100.414869,119.286246 C101.071249,119.572294 101.687162,119.953511 102.348403,120.228021 C104.354002,121.062551 105.704661,122.579687 106.764803,124.379415 C107.920138,126.341915 109.834086,127.964841 109.629922,130.553413 C109.517527,131.971711 109.46433,133.39498 109.338642,134.811354 C109.189569,136.469804 109.046219,138.134304 108.79521,139.778989 C108.580674,141.189367 108.228827,142.578906 107.91251,143.971136 C107.771937,144.58958 107.47478,145.186519 107.424693,145.806627 C107.397697,146.150997 107.733357,146.523993 107.810809,146.68469 C108.517856,146.628648 109.001901,146.582459 109.485276,146.555267 C110.646858,146.490058 110.89946,146.146168 110.882151,144.912135 C110.878904,144.667677 111.247234,144.367291 111.507609,144.181689 C111.920209,143.888685 112.421981,143.71874 112.824565,143.415148 C114.3403,142.273594 115.857518,141.132091 117.316375,139.919803 C117.776598,139.539193 118.055964,138.941639 118.464711,138.379282 C118.338811,138.161312 118.152333,137.935396 118.070872,137.677993 C117.833538,136.916271 118.252766,136.519612 119.032714,136.627036 C119.771357,136.72718 120.531787,136.798814 121.270277,136.73508 C123.448474,136.548443 125.542061,136.866595 127.551244,137.683691 C128.802473,138.190745 129.684298,139.996016 129.475098,141.339274 C129.290845,142.522447 128.902388,143.60346 128.385657,144.701987 C127.769273,146.016543 127.504768,147.496889 127.123722,148.914682 C126.949604,149.558304 126.923882,150.245095 126.720422,150.878924 C126.333202,152.093126 126.48452,153.273264 126.556115,154.525267 C126.728813,157.497038 127.409845,160.407364 127.135909,163.458806 C126.889318,166.19808 127.474474,169.007062 127.659858,171.787599 C127.70963,172.522356 127.643402,173.263347 127.631784,173.97111 C127.927159,174.013506 128.07054,174.072597 128.106031,174.034318 C129.014385,173.02687 130.390734,172.133625 130.702126,170.965086 C131.19363,169.109239 132.64849,167.926076 133.316069,166.212386 C133.958986,164.566612 135.301637,163.198141 136.256881,161.66119 C136.724273,160.909188 137.042264,160.058381 137.374255,159.231468 C137.899791,157.925478 138.384434,156.600517 138.880732,155.281811 C139.141109,154.591423 139.370816,153.886806 139.648829,153.201417 C140.588206,150.894301 141.20591,148.448776 142.72433,146.38992 C143.553633,145.267078 143.510975,145.003701 142.586322,143.823177 C142.14459,143.259233 142.28983,142.760928 142.665329,142.257412 C143.148281,141.611293 143.508492,140.783892 144.143926,140.359589 C145.446702,139.490138 146.362846,137.757237 148.396447,138.30303 C148.894956,138.435845 149.486351,138.249976 149.96921,138.405661 C150.581191,138.603848 151.327505,138.865204 151.65802,139.341906 C152.405155,140.421191 152.885547,141.614162 152.680511,143.049742 C152.50447,144.294652 152.681571,145.585417 152.659044,146.854652 C152.628368,148.523045 152.68618,150.207664 152.475097,151.856655 C152.098699,154.783115 150.825386,157.425459 149.37333,159.959205 C148.376923,161.695185 147.622402,163.51707 147.504164,165.479457 C147.430469,166.72644 147.718143,168.038583 148.071487,169.256428 C148.697538,171.411332 149.064285,173.595318 149.266302,175.820433 C149.394182,177.244107 150.171253,177.895723 151.427036,177.726959 C151.614971,177.701264 151.838333,177.681182 151.97282,177.571704 C155.097112,175.013804 158.505948,172.805188 161.514537,170.118923 C163.320028,168.506005 164.864115,166.60313 166.510923,164.81793 C167.350486,163.909062 168.118244,162.931871 168.990823,162.05487 C169.915717,161.125541 169.839379,159.503197 168.672088,159.015138 C166.472146,158.09342 165.150701,156.337336 164.252428,154.325193 C163.704974,153.097715 163.487535,151.646073 163.464181,150.288927 C163.430439,148.300804 163.522777,146.273144 163.892945,144.322388 C164.330654,142.014032 164.697485,139.611049 166.375762,137.733295 C166.237776,135.923 167.541572,134.730228 168.346008,133.344623 C169.610281,131.168712 171.352719,129.449732 173.630046,128.2628 C174.552501,127.78111 175.328779,127.025149 176.240302,126.516744 C176.667303,126.278374 177.261739,126.342809 177.777138,126.249419 C179.390666,125.954018 180.891608,126.36728 182.32448,127.026926 C182.723181,127.211891 183.208256,127.641261 183.279249,128.027059 C183.648872,130.003378 184.393709,131.904872 183.662353,134.037746 C182.912781,136.224126 182.550321,138.545324 182.079597,140.821813 C181.846948,141.946252 181.820838,143.064659 182.324461,144.188202 C182.694643,145.013041 182.627655,145.733522 181.811477,146.568578 C181.110719,147.287643 181.046049,148.615411 180.656843,149.801744 C182.485016,150.069757 183.997654,149.520671 185.51911,149.226478 C186.535442,149.028956 187.501188,148.582414 188.491183,148.24791 C188.536226,148.233371 188.588025,148.195656 188.627745,148.205808 C190.149919,148.564204 190.933714,147.469052 191.89932,146.647939 C192.454813,146.175516 193.071271,145.784209 193.994381,145.999001 C194.664247,146.155294 195.450771,145.824001 196.186618,145.708965 C198.841965,145.293007 200.970395,146.348327 202.817332,148.103547 C203.545466,148.795904 203.036605,151.900681 202.167521,152.384215 C201.68448,152.654301 200.928625,152.831561 200.785616,153.224596 C200.538891,153.906676 200.501154,154.765704 200.677922,155.47705 C201.106822,157.203755 201.066348,158.813284 200.313517,160.461113 C199.945236,161.264824 199.873167,162.213381 199.74805,163.108894 C199.386426,165.700804 199.045456,168.296354 198.753254,170.897978 C198.712502,171.253578 199.00143,171.646907 199.136636,172.021756 C199.468818,171.904477 199.863652,171.862521 200.121887,171.653435 C201.308947,170.698049 202.453387,169.688516 203.624861,168.712107 C203.880234,168.499996 204.164497,168.268399 204.474788,168.182553 C205.4777,167.902631 206.223115,167.264119 206.983974,166.608583 C210.947506,163.193015 215.341826,160.357108 219.63563,157.383118 C220.801122,156.576228 221.820268,155.541882 222.823711,154.531867 C223.790233,153.558618 224.637571,152.471515 225.563922,151.458836 C225.849539,151.146813 226.254495,150.944259 226.544405,150.636774 C227.222976,149.915479 227.946784,149.216231 228.50371,148.408796 C229.285829,147.277007 229.89391,146.029469 230.654307,144.882299 C231.071408,144.251463 231.291007,143.833274 230.607646,143.176117 C229.499479,142.106305 230.219796,140.790951 230.565827,139.692377 C231.018809,138.255123 232.084105,137.763737 233.637298,137.832038 C235.836624,137.929982 238.127886,139.965386 238.350916,142.183911 C238.639743,145.061664 238.775146,147.954599 239.035598,150.837224 C239.165979,152.274152 239.531427,153.695793 239.599438,155.133492 C239.663994,156.500841 239.456522,157.879274 239.419852,159.254831 C239.400873,159.960876 239.488637,160.67061 239.542354,161.377704 C239.559357,161.610932 239.691689,161.856924 239.649855,162.074951 C239.143173,164.739395 239.650774,167.390604 239.757468,170.045517 C239.775127,170.47044 239.889411,170.891387 239.963562,171.313873 C240.108552,172.126541 240.755238,172.350802 241.372301,172.152652 C242.589809,171.764556 243.753946,171.206355 244.939379,170.717657 C245.147271,170.631199 245.428054,170.414113 245.55037,170.481255 C246.28713,170.887132 246.884895,170.436654 247.468285,170.183204 C250.029473,169.070459 252.585092,167.94728 255.100657,166.739317 C256.468651,166.082813 257.753572,165.256639 259.06746,164.492918 C260.169201,163.852087 260.321238,162.698527 260.401725,161.637598 C260.584205,159.242876 261.576901,157.107328 262.521537,154.987677 C263.601538,152.565442 264.857742,150.19758 266.270038,147.949237 C267.42905,146.106213 268.71654,144.239829 270.330111,142.807563 C272.351243,141.014813 274.900893,140.018722 277.713749,139.934488 C278.51163,139.912312 279.312787,139.713207 280.098988,139.769637 C280.741588,139.815252 281.362735,140.132272 281.999263,140.307897 C282.552007,140.460144 283.106892,140.635874 283.672747,140.711027 C285.563806,140.963655 286.858091,141.933089 287.904286,143.539198 C289.188293,145.514924 289.350513,147.647948 289.21273,149.827669 C289.162901,150.608732 288.565856,151.375275 288.14811,152.108509 C287.917012,152.516058 287.436627,152.795015 287.245299,153.211254 C286.198212,155.500016 283.992526,156.2973 281.981634,157.379313 C281.023842,157.894897 280.154087,158.565692 279.243813,159.164855 C278.562974,159.613926 277.882187,160.061536 277.149703,160.543938 C277.123997,160.51525 276.945435,160.317407 276.704013,160.050088 C276.08964,161.475913 275.034926,162.298336 273.656104,162.756941 C273.435282,162.831247 273.19333,162.957496 273.056522,163.132736 C271.89982,164.615905 270.272843,165.418554 268.674976,166.321703 C267.619362,166.917308 266.747375,167.861634 265.876536,168.731379 C265.615065,168.9901 265.551868,169.51904 265.534411,169.929581 C265.464544,171.530779 265.403521,173.133745 265.427209,174.733785 C265.449428,176.291344 265.594905,177.847309 265.655722,179.404738 C265.688386,180.245714 265.663076,181.089077 265.655608,181.931593 C265.64707,182.762366 265.626672,183.59273 265.610992,184.541772 C267.346048,184.714389 268.789275,184.954468 270.302005,183.940104 C271.347887,183.241743 272.321602,182.317027 273.746975,182.095598 C274.527556,181.974792 275.192514,181.134511 275.915445,180.628369 C276.102698,180.49584 276.334505,180.278525 276.514653,180.305234 C277.849564,180.502066 278.736182,179.521666 279.825843,179.096964 C280.709301,178.752925 281.547909,178.291748 282.38457,177.843672 C282.665997,177.69245 283.020043,177.460338 283.102229,177.192495 C283.392747,176.236856 284.364296,175.541779 284.955716,175.607573 C286.36768,175.766099 286.891411,174.511256 287.964106,174.230819 C288.69829,174.036716 289.045182,173.460517 289.120061,172.684709 C289.145858,172.416381 289.438012,171.961195 289.623846,171.952985 C291.61434,171.869598 292.575978,170.3197 293.771083,169.13634 C294.859973,168.06051 295.695955,166.664289 296.929606,165.818786 C299.687499,163.927127 299.969814,161.058868 300.469289,158.22006 C300.517789,157.939348 300.47254,157.623208 300.58381,157.372465 C301.751191,154.745482 301.519423,151.849217 302.216347,149.135747 C302.890801,146.512215 303.74044,143.929853 304.341179,141.292069 C304.717185,139.638535 305.247725,138.02253 305.631041,136.372175 C305.979239,134.8757 306.64353,133.381368 307.111312,131.861226 C307.528893,130.501758 308.045186,129.163259 308.616681,127.858857 C309.609571,125.591632 310.685781,123.360939 311.709392,121.106481 C312.003906,120.45824 312.155657,119.733373 312.5227,119.132996 C313.056691,118.26039 313.709982,117.456285 314.342672,116.647078 C315.903351,114.652598 317.646989,112.857576 319.870363,111.559043 C321.06762,110.861524 322.220065,110.087835 323.390751,109.34404 C324.112032,108.884661 324.797433,108.895176 325.563328,109.316692 C326.036543,109.577389 326.649608,109.576626 327.160312,109.784483 C329.159221,110.598297 331.275612,111.237667 333.083993,112.360938 C334.227137,113.070561 334.921504,114.50942 335.779404,115.646668 C336.122606,116.100398 336.324165,116.656044 336.662816,117.112543 C338.028608,118.957948 338.514643,121.084604 338.348073,123.280888 C338.28637,124.103972 337.573854,124.987967 336.939476,125.634705 C335.92626,126.669256 335.20878,127.735973 335.157504,129.231003 C335.090188,131.180518 334.970777,133.134085 334.765739,135.074452 C334.619051,136.454985 333.910582,137.644918 332.795188,138.462318 C331.62191,139.321613 330.311168,139.99619 329.071149,140.769779 C328.790328,140.945896 328.521355,141.164853 328.304773,141.41342 C327.325681,142.532549 326.425551,143.727565 325.14094,144.54497 C325.027119,144.615658 324.909288,144.757901 324.887114,144.881503 C324.538861,146.884225 322.640552,147.930624 321.882474,149.685081 C321.53014,150.499586 321.081195,151.275636 320.645594,152.052148 C320.422269,152.449723 320.354043,153.205277 319.54152,152.632909 C319.486472,152.594428 318.997461,153.159864 318.71129,153.445532 C318.260555,153.893775 317.809872,154.340557 317.36205,154.790364 C316.895717,155.260016 316.457951,155.761381 315.961669,156.196345 C315.26933,156.803039 314.560993,157.400401 313.800637,157.915492 C313.599887,158.051944 313.180275,157.870645 312.822427,157.831944 C312.269048,158.412713 312.222531,159.394342 311.243984,159.740947 C310.952347,159.844996 310.967066,160.689741 310.766314,161.162717 C309.955843,163.055827 310.01961,164.992313 310.180233,167.002378 C310.274595,168.198105 309.74719,169.430873 309.598505,170.657707 C309.497636,171.496996 309.56828,172.355379 309.566484,173.205407 C309.566096,173.46876 309.655422,173.755698 309.577336,173.991493 C308.597682,176.93515 309.239124,179.579278 311.102225,181.970064 C311.320893,182.251229 311.869744,182.429677 312.247703,182.403232 C312.951578,182.352934 313.710836,182.247486 314.32175,181.929146 C315.646402,181.238954 317.189296,181.220574 318.452855,180.200526 C319.575792,179.295598 321.122786,178.908646 322.470837,178.270473 C323.525961,177.772883 324.596671,177.296316 325.592933,176.700124 C326.008382,176.452576 326.327235,175.955881 326.549451,175.505594 C326.816428,174.964675 326.972265,174.418452 327.770287,174.602585 C327.88367,174.62845 328.052384,174.432365 328.190906,174.334731 C328.547054,174.085134 328.867505,173.711399 329.263178,173.60363 C330.132441,173.367374 330.770479,172.953402 331.392907,172.266746 C332.07251,171.516223 333.058663,171.038197 333.918066,170.450444 C334.152361,170.288815 334.468427,170.207558 334.643382,170.00291 C336.177567,168.212355 338.222352,167.137366 340.229171,166.002539 C341.106132,165.506109 341.996023,165.02183 342.807985,164.432438 C343.159839,164.178303 343.469075,163.70176 343.550849,163.277346 C343.761246,162.19457 343.850796,161.087134 343.954966,159.986056 C344.116119,158.27974 344.206214,156.568042 344.405759,154.867442 C344.603151,153.185789 344.850898,151.507339 345.163464,149.842834 C345.497534,148.073725 346.1869,146.331524 346.252423,144.558989 C346.31511,142.866828 347.127564,141.506373 347.501842,139.985926 C348.272509,136.865322 349.741673,134.057095 350.940589,131.125404 C350.958444,131.082127 350.980799,131.037541 350.991293,130.992546 C351.560563,128.447317 353.205605,126.41771 354.319304,124.134175 C355.413613,121.895329 357.450072,120.467433 358.886294,118.550588 C360.183762,116.822085 361.919621,116.214871 363.862558,115.838674 C366.802348,115.270135 369.610584,116.57866 371.056211,119.148156 C371.149766,119.315261 371.330829,119.526359 371.493393,119.546607 C373.184115,119.755734 373.783458,121.153267 374.584144,122.313412 C375.463883,123.588951 375.913153,125.07494 376.569348,126.459807 C376.790259,126.929795 377.069182,127.438367 377.466567,127.744729 C378.245444,128.345197 378.375646,129.198323 378.160042,129.92391 C377.612717,131.763197 377.435628,133.752813 375.947287,135.253786 C375.373203,135.832376 375.174358,136.756068 374.692824,137.44613 C374.100304,138.294766 373.367278,139.044906 372.745675,139.876443 C372.388843,140.355731 372.126005,140.905571 371.835771,141.432518 C371.770758,141.55025 371.816806,141.759608 371.729619,141.832679 C369.480652,143.730219 368.786086,146.587159 367.233386,148.902345 C366.117833,150.56544 365.061633,152.397385 363.308446,153.495618 C362.657271,153.903283 362.021579,154.334893 361.439245,154.810778 C360.714806,155.401732 360.108467,156.137228 359.459559,156.817117 C359.138967,157.152805 358.819754,157.491468 358.532332,157.854639 C357.799047,158.780348 357.077262,159.716696 356.364166,160.659196 C356.22255,160.844512 356.193013,161.134658 356.026155,161.278134 C354.722128,162.393351 355.012972,163.868013 355.03211,165.302561 C355.045681,166.39015 355.032204,167.487046 354.916845,168.568716 C354.632597,171.239384 354.848394,173.873193 355.382332,176.493122 C355.411531,176.633131 355.484021,176.808287 355.43128,176.914738 C354.861629,178.040699 355.336581,179.135452 355.481273,180.250982 C355.673547,181.742722 355.820983,183.243156 355.898637,184.744104 C355.932127,185.393436 355.79261,186.066053 355.640885,186.706059 C355.408843,187.68713 355.948706,188.330549 356.939397,188.060447 C357.67527,187.86055 358.424615,187.573329 359.050947,187.154564 C360.075609,186.468638 360.984479,185.614839 361.982468,184.88556 C362.754903,184.322602 363.595406,183.849785 364.394824,183.321412 C365.156146,182.820985 365.969086,182.372089 366.641894,181.772036 C367.739241,180.793066 368.722213,179.690165 369.789561,178.677969 C370.950645,177.57537 371.167515,176.0568 371.728298,174.677407 C372.212593,173.488506 372.614059,172.16506 374.208095,171.749008 C373.795062,170.792467 374.041528,170.117693 374.696778,169.426318 C375.910216,168.144098 376.221378,166.393219 376.8472,164.811232 C376.933562,164.593281 376.910462,164.2384 377.057415,164.154226 C378.644852,163.25218 378.933673,161.503455 379.795515,160.131538 C380.635467,158.791055 381.488556,157.456878 382.361834,156.139493 C383.674102,154.15984 385.009524,152.197081 386.359836,150.190942 C386.452102,150.226319 386.59979,150.247517 386.705437,150.324325 C387.158437,150.653093 387.839054,150.925346 387.975112,151.360214 C388.111066,151.798004 387.650726,152.39223 387.542433,152.937169 C387.183302,154.743454 386.900746,156.567016 386.513601,158.367943 C386.348442,159.136242 386.004978,159.867654 385.732263,160.613215 C385.669944,160.780787 385.483246,160.939672 385.495724,161.090807 C385.576203,162.049025 385.771071,162.920479 385.514109,163.976773 C385.264212,165.001121 385.236787,166.072662 384.716099,167.073021 C384.282882,167.908141 383.85138,168.820868 384.507861,169.777041 C384.558654,169.851954 384.608209,169.961939 384.593461,170.043366 C384.454279,170.790615 384.244192,171.528099 384.15971,172.281628 C383.97414,173.922721 382.978843,175.206627 382.300668,176.63171 C381.818063,177.646554 381.339802,178.664475 380.881987,179.69188 C380.205114,181.206261 379.115888,182.375721 377.851297,183.424996 C377.232041,183.937648 376.739421,184.605379 376.097682,185.082138 C374.306592,186.413166 372.296577,187.302073 370.121794,187.854616 C369.405865,188.036181 368.744931,188.425951 368.053715,188.706401 C366.949834,189.155486 365.965871,189.823797 364.830045,190.252757 C363.677756,190.685537 362.703126,191.594127 361.661124,192.308717 C361.353811,192.520496 361.12114,192.888486 360.790492,193.004354 C358.644432,193.752488 357.481836,195.612946 356.105691,197.173395 C355.637243,197.702962 355.443088,198.998456 355.774493,199.576146 C356.354887,200.585291 356.192086,201.49706 355.984861,202.40583 C355.588279,204.137664 355.714353,205.780747 356.224858,207.466378 C356.570558,208.606411 356.689711,209.8147 356.949344,211.206348 C356.704196,210.918415 356.598717,210.794792 356.401965,210.565595 C356.324072,210.837975 356.213022,211.040442 356.220936,211.236777 C356.237372,211.654343 356.38877,212.075109 356.356488,212.485138 C356.21921,214.18789 355.997581,215.883337 355.885506,217.586959 C355.840512,218.273085 355.876837,219.010304 356.083992,219.659785 C356.642479,221.415841 356.010095,223.05759 355.735662,224.735118 C355.520494,226.037201 355.244851,227.328416 355.050387,228.632678 C355.003924,228.939797 355.217616,229.277853 355.237197,229.606275 C355.264564,230.050555 355.224908,230.501298 355.207644,230.948425 C355.170654,231.870394 355.101047,232.791236 355.098207,233.712922 C355.096954,234.463474 355.277847,235.226173 355.195415,235.963678 C355.074795,237.026145 354.913219,238.113535 354.552853,239.113582 C353.707327,241.453203 352.772552,243.756089 351.159017,245.734111 C350.204961,246.900926 348.986844,248.105438 348.663991,249.472568 C348.076029,251.958626 345.62209,252.261566 344.325641,253.835011 C344.300785,253.866341 344.234625,253.890392 344.19332,253.883112 C342.343954,253.542673 340.96496,254.889403 339.319628,255.202726 C337.666832,255.517254 335.949771,255.507669 334.259306,255.62776 C333.251857,255.699758 332.237731,255.70861 331.234871,255.818808 C330.38697,255.912414 329.698734,255.645749 329.164735,255.046427 C328.477984,254.275027 327.613054,254.052004 326.627509,253.881876 C324.603254,253.533931 322.789896,252.635813 321.428099,251.097808 C320.860067,250.453415 320.434593,249.554971 320.287669,248.712972 C320.162133,247.979986 319.774751,247.726644 319.294884,247.317938 C318.76309,246.86647 318.425084,246.307573 318.348112,245.418245 C318.268535,244.518585 317.324556,243.675381 316.702083,242.84914 C316.390105,242.435993 315.863621,242.170529 315.598324,241.738511 C315.341459,241.319954 315.225371,240.781893 315.171744,240.282569 C315.081312,239.438134 315.089192,238.583927 315.053924,237.732618 C315.030889,237.165584 315.003406,236.598395 314.981905,236.029951 C314.932239,234.619222 314.855887,233.207571 314.843336,231.796661 C314.833028,230.574575 314.839286,229.345746 314.959287,228.132553 C315.002463,227.708268 315.35892,227.281641 315.65079,226.918623 C317.405078,224.737697 319.18395,222.575179 320.952702,220.404995 C321.042712,220.293979 321.183697,220.168631 321.186443,220.048747 C321.216977,218.51057 322.401201,217.467296 322.927666,216.135001 C323.455819,214.796912 324.407632,213.609535 325.251529,212.409651 C325.984543,211.365417 326.813188,210.387404 327.620058,209.39547 C327.883798,209.072449 328.202483,208.790831 328.505168,208.499882 C328.978399,208.0451 329.448871,207.58437 329.940756,207.147791 C331.358167,205.890177 332.504917,204.352527 334.324586,203.515568 C335.581466,202.937161 336.768976,202.179315 337.784744,201.156558 C338.534233,200.402598 339.583311,199.950156 340.400623,199.251213 C340.787827,198.920753 341.584961,198.835635 341.446778,197.998328 C341.431927,197.914415 341.970917,197.741367 342.207803,197.632501 C342.142032,196.888412 341.945592,196.14566 342.040232,195.440766 C342.262209,193.77752 342.091284,192.18556 341.632849,190.580739 C341.459831,189.973406 341.336951,189.081028 341.654244,188.670605 C342.206438,187.955185 341.112577,187.741809 341.437734,187.192659 C341.726626,186.703708 341.991811,186.171506 342.122393,185.625874 C342.265107,185.030914 342.278594,184.396373 342.282567,183.779062 C342.285949,182.926163 342.094098,182.053349 342.222773,181.225263 C342.544714,179.168958 342.028409,177.058814 342.786528,175.008802 C343.01969,174.374536 342.5435,173.483118 342.369852,172.599229 C340.728822,173.884231 338.749386,174.579597 338.168645,176.692801 C336.8833,177.236572 336.25307,178.52285 335.094643,179.297796 C333.630695,180.275803 332.138308,181.134313 330.638805,182.02623 C329.53803,182.681726 328.005783,183.323775 327.620649,184.899447 C326.41718,185.352406 325.933207,186.65837 324.595896,187.118409 C323.006165,187.664831 321.468683,188.539341 320.379469,190.002894 C319.112683,191.703195 317.279645,192.624554 315.261187,193.205909 C314.716834,193.362677 314.176361,193.535674 313.573157,193.719671 C313.931785,195.208381 313.214383,196.357037 312.522286,197.503641 C312.385105,197.731542 312.155902,197.959189 311.916206,198.063568 C310.861043,198.520189 309.81328,199.019497 308.712661,199.334084 C307.50713,199.677236 306.34689,199.199663 305.504678,198.417039 C304.402376,197.391323 303.545083,196.110707 302.515555,194.999718 C301.054234,193.421695 300.594691,191.427638 299.980796,189.475068 C299.294785,187.294681 299.559797,185.000842 299.048121,182.801606 C298.54788,180.656901 298.846087,178.473945 298.849925,176.304227 C298.850534,175.487811 298.55729,174.67002 298.386452,173.790617 C297.082828,174.095263 296.814402,175.854935 295.386983,175.251078 C294.905276,177.165789 293.800812,178.346428 291.979391,178.896549 C290.65309,179.29698 290.068359,179.756688 289.262029,180.817409 C289.182603,180.922937 289.119678,181.065615 289.010717,181.124765 C287.805855,181.785443 287.029382,183.009605 285.740917,183.557658 C285.612838,183.611758 285.491371,183.772897 285.381972,183.760338 C284.177358,183.614829 283.558089,184.338173 282.802657,185.13436 C282.192154,185.777534 281.845879,186.840983 280.697574,186.950545 C280.502432,186.970139 280.233407,187.358819 280.19192,187.609047 C279.98802,188.844215 279.133387,189.380922 278.068775,189.81088 C276.575087,190.411831 275.280252,191.392756 273.804431,192.07626 C272.574598,192.64536 271.308062,193.20295 270.056558,193.755207 C269.24385,194.113395 268.363552,194.32586 267.567654,194.712429 C267.122154,194.928212 266.629625,195.298928 266.437988,195.723935 C266.064537,196.547952 265.501866,196.424625 264.883542,196.237924 C262.14724,195.414724 260.503193,193.546535 259.510323,190.934158 C258.558216,188.428537 258.382848,185.82685 258.342752,183.219596 C258.311138,181.129127 258.576445,179.037212 258.651831,176.943124 C258.691581,175.858841 258.606848,174.768793 258.577228,173.673334 C257.185518,172.982922 255.822903,172.940227 254.347998,173.639857 C252.488184,174.520787 250.54121,175.221663 248.628876,175.992505 C248.097337,176.206778 247.538261,176.360111 247.01786,176.595254 C245.471844,177.290964 243.841105,177.863769 242.430142,178.77045 C241.201519,179.557601 240.431428,180.811247 240.641143,182.439662 C240.779609,183.521325 240.795539,184.584122 240.32723,185.656522 C240.081821,186.217207 240.28414,186.961626 240.23716,187.619883 C240.067212,189.996017 239.760766,192.370361 239.73028,194.748388 C239.706036,196.613066 240.293671,198.510591 240.101397,200.341663 C239.844983,202.770409 240.353383,205.483097 238.152346,207.452524 C237.700194,207.856824 237.527996,208.572206 237.234475,209.15025 C236.462358,210.671581 235.833713,212.291512 234.860164,213.6742 C234.416377,214.304114 233.295815,214.468771 232.476868,214.835523 C231.799704,215.138406 231.052074,215.334971 230.449771,215.745788 C229.610209,216.318131 228.824237,216.844043 227.758272,217.017902 C226.941595,217.152092 226.144601,217.611781 225.422303,218.057956 C223.587562,219.195803 222.179968,218.955492 220.773218,217.30327 C220.005018,216.400299 219.080853,215.626548 218.233187,214.788136 C217.06421,213.632823 215.990232,212.435435 215.922378,210.656827 C215.907167,210.24662 215.642167,209.848265 215.505129,209.441164 C214.527833,206.555716 214.303942,203.646555 215.815262,200.905626 C217.115633,198.548069 217.838224,195.990579 218.862713,193.543016 C220.083454,190.623784 221.423663,187.726238 223.740597,185.416976 C224.991343,184.171161 226.151732,182.835897 227.355153,181.543089 C227.45237,181.438175 227.564051,181.344003 227.679922,181.257292 C229.170699,180.149991 230.654527,179.029282 232.163803,177.944567 C232.850688,177.450347 233.162065,176.829026 233.157363,175.994869 C233.147496,174.003182 233.205981,172.009467 233.166411,170.018217 C233.10359,166.83516 232.862657,163.651801 232.940678,160.473611 C232.972797,159.100823 232.526324,157.661752 233.206419,156.308429 C233.326172,156.069684 233.342584,155.7308 233.286738,155.462578 C233.184999,154.980612 232.993533,154.517494 232.83944,154.046888 C232.270335,154.232063 231.556649,154.265928 231.165088,154.635743 C230.451052,155.310455 229.944816,156.195725 229.325173,156.97173 C228.413505,158.115137 227.452668,159.221729 226.562722,160.380517 C226.038298,161.066171 225.736654,161.958511 225.115593,162.52231 C223.736935,163.77541 222.476699,165.290117 220.32288,165.332745 C220.028769,165.338677 219.6156,165.816018 219.481706,166.161084 C218.967772,167.474791 217.928864,168.269961 216.718898,168.73879 C215.650405,169.152519 215.592711,169.904047 215.541064,170.778688 C215.509154,171.30432 215.444629,171.828824 215.388058,172.422371 C213.721136,171.791216 213.492166,171.928156 212.693067,173.246641 C212.109817,174.211186 211.447553,175.101307 210.41687,175.74752 C209.598644,176.262075 208.839177,177.046416 208.365777,177.884537 C207.724448,179.022654 206.898911,179.870554 205.784497,180.491926 C204.701784,181.098299 203.701539,181.681185 203.053133,182.893678 C202.563605,183.810251 201.498373,184.426007 200.693978,185.179533 C200.456035,185.402489 200.101589,185.603861 200.025179,185.876293 C199.59174,187.432738 198.443522,188.759643 196.999403,189.259886 C196.862686,189.306372 196.727194,189.360216 196.595994,189.418598 C195.194675,190.052003 194.085422,189.685928 193.323644,188.348624 C192.717093,187.281513 192.092339,186.225478 191.487271,185.158419 C190.566332,183.536153 189.83574,181.861939 189.615879,179.974195 C189.447159,178.530089 189.026598,177.11386 188.868307,175.668651 C188.790109,174.940227 189.023568,174.171362 189.15963,173.428394 C189.236698,173.011134 189.479245,172.615686 189.514699,172.199913 C189.807252,168.789179 190.050983,165.373832 190.35238,161.964867 C190.428458,161.113017 190.658462,160.273801 190.81889,159.429255 C191.018084,158.369503 190.98604,157.342728 190.313045,156.223574 C189.282803,156.43671 188.210547,156.620594 187.157693,156.885622 C185.019007,157.42478 182.865405,157.923918 180.770847,158.600673 C179.398522,159.043408 178.081451,159.518779 176.610093,159.65522 C175.852125,159.724133 174.986225,160.327756 174.479152,160.942315 C173.773547,161.798748 173.36668,162.896683 172.810927,163.881199 C172.62571,164.208397 172.405325,164.522675 172.156372,164.805239 C171.718709,165.303681 171.260806,165.786792 170.785732,166.251752 C170.381433,166.646001 169.912586,166.976566 169.52408,167.385992 C168.814877,168.134028 168.101021,168.887757 167.469659,169.701398 C166.951784,170.36972 166.594396,171.159177 166.089451,171.839651 C165.358345,172.829813 164.587983,173.796672 163.7774,174.725562 C163.246813,175.333456 162.70648,176.049286 162.00789,176.370449 C161.082998,176.794993 160.821886,177.548271 160.487407,178.319498 C160.377466,178.574676 160.443405,178.935426 160.286345,179.137766 C159.498077,180.149364 158.654813,181.121019 157.846305,182.117286 C157.709703,182.286681 157.519343,182.549322 157.5673,182.70461 C157.912239,183.824133 157.043529,184.255007 156.384709,184.753123 C154.821364,185.939853 153.229607,187.090485 151.623694,188.221608 C150.69817,188.874381 149.714054,189.042289 148.650013,188.446599 C147.156615,187.609284 145.531256,186.978103 144.59553,185.396294 C143.382558,183.34255 142.381602,181.253701 142.176995,178.807562 C142.044101,177.231547 141.537488,175.687977 141.124948,173.792112 C140.187907,175.654511 139.408467,177.215095 138.615839,178.770833 C138.241087,179.505553 137.693741,180.083605 137.838769,181.105505 C137.933598,181.783293 137.245241,182.571555 136.897278,183.304274 C136.507726,184.121882 136.116742,184.937978 135.706795,185.744639 C135.082819,186.979923 134.454446,188.213591 133.795506,189.430109 C133.668496,189.664214 133.42011,189.930703 133.180582,189.988268 C132.170167,190.228426 132.14054,190.815588 132.561219,191.513415 C131.521265,192.885029 130.259617,192.841434 128.865535,192.386506 C128.291739,192.19988 127.576029,192.333169 127.072196,192.056782 C126.163642,191.555716 125.163286,191.006121 124.560537,190.209824 C122.756326,187.832778 121.530567,185.131881 120.956949,182.206245 C120.519362,179.968601 120.355299,177.677493 119.943173,175.433413 C119.503536,173.04353 119.499769,170.668709 119.640028,168.25058 C119.727969,166.726091 119.301672,165.177981 119.24627,163.63537 C119.198563,162.337371 119.373754,161.032443 119.407896,159.728494 C119.42449,159.132103 119.267678,158.528256 119.316733,157.937376 C119.434492,156.535359 119.721106,155.143565 119.7676,153.742012 C119.821042,152.185605 119.683288,150.621128 119.62358,148.948148 C117.323694,150.185511 115.25212,151.262501 113.219736,152.406686 C111.659861,153.284811 109.996182,154.07595 108.655439,155.222088 C107.253486,156.420247 105.364164,157.001674 104.334445,158.672125 C104.010164,159.196432 103.731586,159.561372 104.017315,160.213568 C104.160257,160.537474 104.105349,161.210088 103.87652,161.385075 C102.877551,162.142119 103.131126,163.284822 102.809319,164.24377 C102.16069,166.177588 101.541352,168.122659 100.81068,170.025842 C100.230431,171.536246 99.3465432,172.943979 98.870781,174.47994 C97.8763268,177.674748 96.0956346,180.435631 94.3608882,183.240534 C93.6084454,184.456747 92.9911977,185.753716 92.3187478,187.016588 C92.2327594,187.181879 92.0974213,187.399601 92.1428769,187.541634 C92.5724104,188.871847 91.8758279,189.977328 91.382509,191.085444 C90.9972366,191.95002 90.3839359,192.714539 89.8700044,193.52346 C89.7929759,193.645166 89.6214124,193.795794 89.6511403,193.878758 C90.203389,195.475115 88.5848417,196.796011 89.0826872,198.419751 C89.2077609,198.829365 88.8782463,199.41787 88.6615992,199.878592 C88.3775278,200.483299 87.9869323,201.036041 87.6619169,201.623238 C86.9230357,202.959898 86.7720862,203.073197 85.2789428,202.901624 C83.7206705,202.724874 82.3096359,202.203519 81.0596337,201.199037 C79.5930772,200.021736 78.0859632,198.900096 76.8923899,197.432282 C76.6519478,197.137196 76.3308292,196.856881 76.2196396,196.516514 C75.4227742,194.070393 74.6890009,191.603042 73.8936181,189.156973 C73.6190925,188.313491 73.1839747,187.520061 72.9019848,186.677785 C72.7433929,186.208486 72.6084447,185.658069 72.700661,185.190121 C73.1213393,183.069923 73.1035316,180.966762 72.7556317,178.837564 C72.5260103,177.436711 72.4651029,176.008036 72.3056769,174.594978 C72.2050349,173.703369 72.0210094,172.81912 71.9441913,171.925408 C71.7195512,169.28983 71.533612,166.651199 71.3193497,164.01598 C71.2850724,163.599261 71.1465526,163.192108 71.1285833,162.775953 C71.098484,162.072601 71.1012587,161.36307 71.1394597,160.659152 C71.1551372,160.383159 71.4206045,160.095312 71.3759487,159.846497 C70.9604457,157.445743 71.9984831,155.161058 71.9159343,152.789367 C71.8874084,151.957312 71.9376122,151.123589 71.9523249,150.328144 C71.808544,150.238313 71.7026003,150.127842 71.6529027,150.148072 C70.5050483,150.623437 69.4363349,151.421966 68.9903289,152.451243 C68.1869741,154.310946 67.108111,156.027982 66.3474406,157.897939 C66.2565273,158.11866 66.1583045,158.336201 66.0835445,158.561869 C65.3050945,160.893566 64.5335031,163.199164 63.339515,165.402377 C62.6392962,166.695016 61.8483464,167.782605 60.8435234,168.789646 C60.7758159,168.857537 60.7298693,168.98178 60.6550199,168.999678 C59.4269024,169.30986 59.1043205,170.627253 58.1272293,171.227033 C57.8829694,171.376613 57.6542301,171.75937 57.6472416,172.041516 C57.5866029,174.222439 57.5867486,176.405463 57.5587259,178.587513 C57.5482545,179.388957 57.5110457,180.19094 57.4827838,180.99177 C57.4589956,181.707891 57.4397067,182.422704 57.4026272,183.136903 C57.3445967,184.318585 57.2910138,185.500421 57.2033324,186.681079 C57.1297682,187.672016 56.9880584,188.659134 56.9159252,189.651583 C56.8046633,191.205992 56.5950891,192.770173 56.6740574,194.317987 C56.748862,195.773479 57.1999887,197.206859 57.371262,198.662758 C57.4624806,199.442842 57.3256317,200.250161 57.2679251,201.04412 C57.2507782,201.277632 57.1107861,201.501046 57.0996209,201.733301 C56.9780809,204.125739 56.7703984,206.519591 56.8018185,208.909999 C56.8204156,210.27576 56.499407,211.46445 56.0963681,212.748336 C55.6831961,214.066988 55.8808328,215.575008 55.8157237,216.999329 C55.6800259,220.045306 55.0221366,222.998618 54.2461078,225.93468 C54.0163481,226.80902 53.9951502,227.746166 53.6996042,228.591896 C53.1514421,230.160471 52.421507,231.66424 51.8586741,233.227919 C50.6802549,236.504158 49.6732306,239.844846 48.3835818,243.076274 C47.1151143,246.254297 45.7861718,249.421451 43.5313355,252.116204 C42.0080818,253.933473 40.7243295,255.946302 39.2327119,257.792464 C37.7705521,259.603065 36.2929995,261.429229 34.6054031,263.024274 C33.6702474,263.907891 32.3426693,264.470687 31.097431,264.929519 C29.2656962,265.603651 27.5834263,266.66922 25.595729,266.967786 C25.0242003,267.053384 24.6828281,266.968431 24.1782733,266.712503 C23.5235432,266.379691 22.7009875,266.343952 21.9414855,266.246014 C20.3397683,266.0385 18.7323141,265.867366 17.1262909,265.697745 C16.8468116,265.667603 16.5579982,265.733707 16.2763143,265.723974 C15.1421144,265.686245 14.0022291,265.683436 12.875468,265.561101 C12.4895547,265.518503 11.9659846,265.254603 11.7975299,264.938594 C10.3539399,262.227243 8.18135969,260.109614 6.18673737,257.828409 C5.33783492,256.856808 4.85677327,255.514572 4.40195875,254.269811 C3.96859577,253.090169 3.78934174,251.818351 3.4973495,250.586532 C3.43000434,250.30767 3.4050988,250.003937 3.2727148,249.759406 C2.05162094,247.515172 2.75813368,245.539461 4.08571735,243.630567 C4.29991444,243.323392 4.5391216,242.980502 4.59766434,242.625516 C5.17740632,239.110581 6.75582927,235.940341 8.19699423,232.747802 C8.97960576,231.013213 9.92712794,229.316512 11.3036466,227.871665 C12.7495617,226.353132 13.9598172,224.614299 15.2749979,222.972734 C16.0730765,221.97757 16.8610866,220.973279 17.6793535,219.994907 C20.3463399,216.809609 23.063823,213.665562 25.6759167,210.437399 C26.459724,209.468079 27.3513571,208.64002 28.2049211,207.755046 C29.1570813,206.768133 29.8520142,205.541153 30.6850942,204.437463 C30.9326809,204.109494 31.2613305,203.839925 31.5638615,203.55336 C31.6283461,203.492673 31.8111636,203.485822 31.8141417,203.443493 C31.9878398,201.507896 34.3203268,200.98714 34.67019,199.064946 C34.819415,198.243423 35.7697434,197.560782 36.3701007,196.826542 C37.4109958,195.554454 38.5111797,194.326846 39.4970789,193.014816 C41.063869,190.931295 42.308109,188.734208 42.1757354,185.965745 C42.1071704,184.50169 42.3983101,183.023727 42.475602,181.548617 C42.5670372,179.798924 42.6021873,178.045823 42.6595755,176.29349 C42.6629278,176.198501 42.624975,176.096233 42.6488766,176.007806 C43.3743042,173.369942 42.9226543,170.647509 43.2146239,167.96833 C43.4725453,165.623035 43.1684396,163.220278 43.1439681,160.843278 C43.11478,158.011076 42.8984301,155.182648 43.1588544,152.345822 C43.3183321,150.60287 43.3195383,148.844206 43.3709963,147.091668 C43.3768887,146.882641 43.2493519,146.669004 43.1825479,146.458929 C43.0590454,146.425398 42.9340088,146.393278 42.8105063,146.359747 L42.8105063,146.359747 L42.8105063,146.359747 Z M14.3200284,248.686771 C15.8121258,249.266527 15.7938842,249.236633 17.1497737,248.376333 C17.8755533,247.915647 18.6997992,247.609067 19.4468887,247.175453 C20.8380884,246.36612 22.4046406,245.719403 23.5384197,244.633419 C25.3973348,242.852622 26.8841837,240.720981 28.0643007,238.406089 C29.5185493,235.557841 31.0384295,232.742588 32.4722319,229.884855 C33.1763187,228.482614 33.7856902,227.030279 34.3700131,225.572689 C34.8991332,224.249265 35.3389009,222.892027 35.8109237,221.546146 C36.3869194,219.903912 36.9967042,218.271624 37.5153962,216.612778 C37.9972948,215.071176 38.3411234,213.488224 38.8142299,211.943392 C39.1582241,210.818412 39.759859,209.753544 39.9842311,208.611262 C40.3784422,206.610128 40.5928656,204.572054 40.8336654,202.543671 C40.9223892,201.796142 40.8706837,201.032054 40.8914683,200.274861 C40.9148184,199.487031 40.6501281,198.911646 39.8424502,198.706696 C39.2132541,199.45896 38.4405996,200.070194 38.1038132,200.864752 C37.6796459,201.864057 36.4599493,201.557081 36.0233543,202.572052 C36.1857592,203.77452 36.3582317,205.154377 34.862828,206.014246 C34.7477305,206.079036 34.7791851,206.365437 34.7007126,206.528062 C34.0299124,207.912432 32.9219678,209.107582 32.8402791,210.749339 C32.8365273,210.813588 32.6791064,210.857896 32.62888,210.93517 C31.7811671,212.243196 30.7990196,213.490977 30.1470283,214.889166 C29.7568056,215.725771 29.2590927,216.327485 28.5612106,216.838883 C28.2961303,217.031638 27.9287805,217.135996 27.7465036,217.379896 C26.0515433,219.646271 23.7146553,221.343247 22.1085185,223.700481 C21.42127,224.709717 20.2875053,225.416746 19.5739835,226.413369 C18.7183813,227.60846 18.0391115,228.938401 17.3854575,230.257522 C16.5831994,231.875843 15.9415461,233.569945 15.13203,235.183626 C14.2969366,236.849096 13.3085997,238.440503 12.455922,240.099514 C12.095802,240.79816 11.9135615,241.587816 11.6346975,242.381449 C12.2172085,242.657629 12.6347703,242.854951 13.0245763,243.039609 C13.4504206,244.894966 13.8632445,246.698662 14.3200284,248.686771 L14.3200284,248.686771 L14.3200284,248.686771 Z M96.2139866,128.96467 C97.0153555,127.245361 96.4706881,125.434182 94.8668825,125.201722 C93.9571406,125.070792 93.5912369,124.629446 93.3903869,123.92751 C93.1472527,123.077798 92.5167838,122.982855 91.9390018,123.287709 C90.7925907,123.890417 88.9563856,123.807947 89.0891876,125.84924 C89.1013952,126.050113 88.9001546,126.284579 88.7583837,126.474279 C87.191542,128.559261 86.3917814,131.032148 85.2420373,133.327605 C84.9450872,133.918699 84.6245448,134.58945 84.6259345,135.223041 C84.6296882,137.808556 83.2060085,140.000906 82.7175443,142.443581 C82.5333179,143.37363 82.2368305,144.288096 82.1443672,145.225706 C81.9978598,146.685255 82.0067103,148.158952 81.9015595,149.624321 C81.7963054,151.092612 81.6997404,152.567056 81.4704166,154.017891 C81.2640407,155.323205 80.9378363,156.617062 80.5606195,157.884283 C80.146403,159.274593 80.4471111,160.259441 81.7621659,161.018899 C82.2727926,161.313079 82.6709396,161.471689 83.2162727,161.287155 C84.3446216,160.901831 85.4961624,160.574371 86.6026987,160.134158 C87.4307864,159.802837 88.6165158,159.516064 88.9046353,158.880771 C89.3649511,157.86662 90.0091754,157.950333 90.5701324,157.996054 C90.9562176,156.982264 91.2472259,156.096872 91.6303454,155.251242 C91.921791,154.605822 92.5968422,154.026331 92.6341534,153.389687 C92.7330784,151.722189 93.8011614,150.647103 94.7402249,149.358328 C94.2585808,148.579384 94.3982785,147.817521 94.9410874,147.031546 C95.1975825,146.661453 95.1797555,146.115083 95.3468081,145.671668 C95.7253259,144.662006 95.951129,143.521237 96.5887307,142.699032 C97.4300356,141.614646 97.7245777,140.376758 97.9291355,139.165023 C98.1262675,137.995463 98.204113,136.714971 97.4311305,135.568952 C97.184217,135.204874 97.1597385,134.510496 97.3319994,134.087746 C97.9758181,132.500528 97.7367609,130.86232 97.7716655,129.242356 C97.7778934,128.9397 97.5764617,128.632794 97.4591871,128.296607 C96.9947105,128.545387 96.6043228,128.755759 96.2139866,128.96467 L96.2139866,128.96467 L96.2139866,128.96467 Z M323.314844,112.630576 C323.187601,113.12365 323.117572,113.425565 323.032872,113.722584 C322.853185,114.355771 322.763868,115.035975 322.464572,115.60943 C321.235569,117.963601 320.001964,120.322002 318.637561,122.601262 C318.143766,123.428437 317.787603,124.225251 317.580881,125.161839 C317.218681,126.802682 316.015801,128.164277 315.957433,129.944376 C315.940865,130.455906 315.300558,130.934177 315.240377,131.461758 C315.04537,133.202019 314.047622,134.807733 314.360341,136.629917 C314.388509,136.799153 314.281958,137.000312 314.210486,137.174883 C313.434771,139.092604 313.020887,141.062333 312.951792,143.146396 C312.910507,144.400351 312.423131,145.634503 312.212578,146.889925 C311.940105,148.511921 311.831937,150.14691 312.263725,151.791779 C312.291714,151.545474 312.319755,151.297707 312.350103,151.02661 C313.569939,151.87642 313.650616,151.86165 314.449326,150.806518 C314.645616,150.544082 314.879525,150.309281 315.107554,150.072815 C316.227707,148.910276 317.366824,147.757171 317.954086,146.216283 C318.217531,145.523075 318.490941,145.010178 319.349981,144.76918 C320.015658,144.581488 320.649559,143.990333 321.108816,143.426795 C322.503565,141.717748 323.808819,139.93684 325.234341,138.070836 C325.29666,138.071527 325.597772,138.077542 325.919691,138.082813 C325.648004,136.65417 326.323148,135.441139 327.538516,135.029559 C328.115395,134.83441 328.342445,134.457447 328.206543,133.849934 C327.883838,133.909014 327.64186,133.951863 327.399831,133.996173 C327.37486,133.904595 327.348407,133.812965 327.323436,133.721387 C327.764127,133.51568 328.206249,133.311485 328.497538,133.175235 C328.832868,132.295764 329.155834,131.556329 329.389242,130.788925 C329.488522,130.457295 330.167454,129.894032 329.163241,129.748132 C329.132211,129.744134 329.075037,129.471476 329.127662,129.410379 C329.95512,128.465977 329.835155,127.238639 330.010229,126.147327 C330.333587,124.134965 331.397046,122.139398 330.39533,120.030039 C330.301324,119.833655 330.342257,119.557071 330.36835,119.322405 C330.65796,116.83628 329.237351,115.198212 327.483968,113.778359 C327.140508,113.500197 326.416704,113.358135 326.023519,113.521589 C324.905625,113.989211 324.110362,113.642764 323.314844,112.630576 L323.314844,112.630576 L323.314844,112.630576 Z M329.839776,235.245545 C330.538481,235.215552 331.229425,235.321363 331.828181,235.137212 C334.508191,234.316814 336.682721,232.762005 338.416923,230.561364 C339.304303,229.433213 339.352614,227.938081 340.239272,226.830389 C340.290569,226.764857 340.287282,226.647691 340.290583,226.554164 C340.33148,225.3953 340.350139,224.235667 340.414705,223.079084 C340.44833,222.462797 340.541307,221.847098 340.638526,221.237397 C340.856118,219.86663 341.184695,218.50555 341.297181,217.126761 C341.45225,215.256362 341.428189,213.372457 341.524111,211.495625 C341.545513,211.05742 341.842823,210.624359 341.835799,210.192487 C341.81095,208.709459 341.707423,207.226637 341.631871,205.708204 C340.310531,206.598961 338.959051,207.418446 337.725619,208.383935 C337.205063,208.791724 337.01648,209.592866 336.530615,210.069158 C335.086827,211.485344 333.575732,212.8319 332.081809,214.196606 C331.630881,214.608264 331.122765,214.957957 330.693457,215.38792 C329.694873,216.386397 329.150013,217.693183 328.393148,218.824381 C327.529695,220.115768 327.313482,221.48951 326.832822,222.827777 C326.567675,223.569211 326.309257,224.372329 326.335656,225.138468 C326.364853,225.951525 326.735912,226.751521 326.955287,227.559444 C326.980309,227.649561 326.982887,227.744754 326.998859,227.838948 C327.27195,229.522227 327.852148,231.167834 327.624267,232.914276 C327.608281,233.030775 327.735638,233.165396 327.762001,233.217517 C329.120117,233.26152 329.040814,234.625361 329.839776,235.245545 L329.839776,235.245545 L329.839776,235.245545 Z M354.923464,148.40236 C354.999471,149.108761 355.032729,149.680539 355.127288,150.239803 C355.253585,150.993299 355.985961,151.523393 356.670731,151.257351 C357.186929,151.057179 357.872898,150.715095 358.024816,150.279936 C358.416045,149.162441 359.293264,148.658703 360.18139,148.09828 C360.377228,147.974827 360.576857,147.828094 360.715353,147.64706 C361.630412,146.449634 362.409013,145.123125 363.458892,144.059115 C365.335379,142.158947 366.946646,140.076963 368.413938,137.868562 C368.841881,137.224932 369.086531,136.475475 369.936715,136.106876 C370.312058,135.944268 370.603104,135.268108 370.668995,134.789009 C370.855918,133.404013 370.886207,131.998973 371.019964,130.606288 C371.156648,129.172735 371.509165,127.764198 370.660238,126.372672 C370.205576,125.628313 370.152557,124.649097 369.733076,123.875228 C368.809096,122.170921 367.463257,120.937802 365.402866,120.730533 C364.397055,120.629936 363.902785,121.007907 363.539235,121.887866 C362.959837,123.290026 362.761697,124.908738 361.353325,125.868182 C361.278824,125.918281 361.233806,126.01622 361.186338,126.099442 C359.487133,129.032867 358.376886,132.228062 357.079657,135.337787 C356.885094,135.803661 356.914368,136.362132 356.844171,136.879125 C356.793853,137.253415 356.787754,137.63655 356.699199,138.00074 C356.360953,139.383433 355.987384,140.75759 355.650621,142.140335 C355.470289,142.87592 355.041108,143.722885 355.253792,144.34183 C355.602496,145.354674 355.16518,146.221841 355.16653,147.150988 C355.168333,147.604626 354.994989,148.058065 354.923464,148.40236 L354.923464,148.40236 L354.923464,148.40236 Z M232.369256,184.78311 C231.487206,184.372212 230.904165,184.657864 230.362298,185.206842 C228.036198,187.565534 225.863908,189.982214 224.517136,193.107785 C223.85759,194.635933 223.110896,196.109859 222.710666,197.734756 C221.944499,200.854052 222.291841,203.798205 224.034312,206.620841 C225.514167,205.949182 227.043346,205.478214 227.785464,203.923657 C228.370533,202.69727 229.293223,201.620086 229.375724,200.165641 C229.408161,199.582965 229.54354,198.901426 230.535067,199.070298 C230.526427,199.56747 230.518265,200.009059 230.50987,200.541355 C231.485288,199.400151 232.154584,197.091019 232.098717,195.729823 C231.986493,192.937182 231.90704,190.141285 231.907645,187.348154 C231.908525,186.482 232.210723,185.616016 232.369256,184.78311 L232.369256,184.78311 L232.369256,184.78311 Z M177.301068,130.443912 C175.519087,133.073068 173.74849,135.589955 172.101331,138.184264 C171.700641,138.812741 171.697711,139.694918 171.531069,140.463166 C171.461904,140.782669 171.502847,141.136703 171.386962,141.434107 C170.556379,143.560625 169.721399,145.685529 168.842511,147.79282 C168.145398,149.460132 168.908646,150.839919 170.698144,151.026122 C171.462764,151.105216 172.229176,151.175594 172.996465,151.221128 C173.220123,151.234709 173.533508,151.229443 173.661407,151.096327 C175.142401,149.551206 177.281708,148.321463 176.356816,145.591457 C176.198173,145.12362 176.174532,144.53169 176.308517,144.057871 C176.695171,142.691482 177.250874,141.371902 177.633132,140.003898 C178.029107,138.583695 178.362106,137.139368 178.601859,135.687429 C178.737896,134.861061 178.798142,133.953064 178.590112,133.160165 C178.349453,132.240307 177.776214,131.406988 177.301068,130.443912 L177.301068,130.443912 L177.301068,130.443912 Z M280.95582,146.699456 C281.031211,146.582083 281.10512,146.464658 281.180511,146.347285 C280.548251,146.092797 279.912819,145.844052 279.283937,145.577975 C278.957867,145.437951 278.583222,145.328437 278.339182,145.093216 C277.298374,144.091573 276.47752,144.007609 275.524212,145.069104 C274.63887,146.0554 273.91769,147.184905 273.098482,148.232012 C272.215549,149.360317 272.183907,150.845783 271.297429,152.032491 C270.326768,153.333342 269.750837,154.931684 269.06717,156.428272 C268.845147,156.915145 268.827741,157.492487 268.716793,158.028556 C268.810734,158.10057 268.904624,158.174045 268.998514,158.247521 C269.939212,157.627462 271.717259,158.642875 271.785025,156.8909 C273.158911,156.193631 274.368323,155.698446 275.436701,154.993547 C276.147965,154.52358 276.958984,154.171186 277.538933,153.46843 C277.917281,153.01037 278.588283,152.797989 279.01473,152.365001 C279.998436,151.367472 280.694426,150.194666 280.814802,148.76055 C280.87314,148.074885 280.909291,147.386991 280.95582,146.699456 L280.95582,146.699456 L280.95582,146.699456 Z M82.4727605,175.835892 C83.5041813,174.285478 84.5271057,172.93376 85.3373946,171.46642 C85.932081,170.388144 86.2485518,169.159793 86.7232557,167.906182 C84.9000724,167.538848 83.2893058,167.167148 81.6612768,166.906052 C80.7859945,166.766071 80.5060998,167.420669 80.4444228,168.158891 C80.2442947,170.591045 80.916369,172.871908 81.7426928,175.114206 C81.8497057,175.404681 82.2228943,175.597543 82.4727605,175.835892 L82.4727605,175.835892 L82.4727605,175.835892 Z" id="Imported-Layers"></path>
                </g>
            </g>
        </g>
    </g>
</svg>