<?xml version="1.0" encoding="utf-8"?>
<!-- Generator: Adobe Illustrator 18.0.0, SVG Export Plug-In . SVG Version: 6.00 Build 0)  -->
<!DOCTYPE svg PUBLIC "-//W3C//DTD SVG 1.1//EN" "http://www.w3.org/Graphics/SVG/1.1/DTD/svg11.dtd">
<svg version="1.1" id="Capa_1" xmlns="http://www.w3.org/2000/svg" xmlns:xlink="http://www.w3.org/1999/xlink" x="0px" y="0px"
	 viewBox="0 0 23 42" enable-background="new 0 0 23 42" xml:space="preserve">
<title>Path</title>
<desc>Created with Sketch.</desc>
<g id="Page-1">
	<g id="Path">
		<path fill="#1C1919" d="M15.3,42H4.4V22H0v-8.9h4.4V10C4.4,3.3,7.9,0,15,0H22v8.9h-4.7c-1.9,0-1.9,0.2-1.9,1.8l0,2.5h6.8l-1,8.9
			h-5.8V42z M6.4,40h6.9V20h6l0.6-4.9h-6.6l0-4.5c0-2,0.3-3.8,3.9-3.8H20V2H15c-6,0-8.6,2.4-8.6,8v5.1H2V20h4.4V40z"/>
	</g>
</g>
</svg>
