<?xml version="1.0" encoding="utf-8"?>
<!-- Generator: Adobe Illustrator 18.0.0, SVG Export Plug-In . SVG Version: 6.00 Build 0)  -->
<!DOCTYPE svg PUBLIC "-//W3C//DTD SVG 1.0//EN" "http://www.w3.org/TR/2001/REC-SVG-20010904/DTD/svg10.dtd">
<svg version="1.0" id="Capa_1" xmlns="http://www.w3.org/2000/svg" xmlns:xlink="http://www.w3.org/1999/xlink" x="0px" y="0px"
	 viewBox="0.5 0.5 28.3 23.5" enable-background="new 0.5 0.5 28.3 23.5" xml:space="preserve">
<g id="Page-1">
	<g id="REDISEÑO" transform="translate(-1395.000000, -1016.000000)">
		<path id="Favorite-2-Copy" fill="none" stroke="#C91B39" d="M1419.3,1017.7c-3.3-1.5-7.2-0.3-9,2.7c0,0,0,0,0,0c0,0,0,0,0,0
			c0,0,0,0,0,0c-0.1,0.2-0.3,0.3-0.6,0.3c-0.3,0-0.5-0.1-0.6-0.3c0,0,0,0,0,0c0,0,0,0,0,0c0,0,0,0,0,0c-1.8-3-5.7-4.2-9-2.7
			c-3.5,1.6-5,5.7-3.4,9.2c1.3,2.7,8.6,9.4,11.7,12.1h0c0.3,0.3,0.8,0.5,1.3,0.5c0.5,0,1-0.2,1.3-0.5l0,0c3-2.7,10.4-9.4,11.7-12.1
			C1424.3,1023.4,1422.8,1019.3,1419.3,1017.7L1419.3,1017.7z"/>
	</g>
</g>
</svg>
