<?xml version="1.0" encoding="UTF-8"?>
<svg width="25px" height="25px" viewBox="0 0 25 25" version="1.1" xmlns="http://www.w3.org/2000/svg" xmlns:xlink="http://www.w3.org/1999/xlink">
    <!-- Generator: Sketch 46.2 (44496) - http://www.bohemiancoding.com/sketch -->
    <title>Page 1</title>
    <desc>Created with Sketch.</desc>
    <defs></defs>
    <g id="Home-nueva" stroke="none" stroke-width="1" fill="none" fill-rule="evenodd">
        <g id="TODEVISE" transform="translate(-1065.000000, -78.000000)" stroke="#1C1919">
            <path d="M1087.84771,79 L1067.43915,79 C1066.64762,79 1066,79.6476166 1066,80.4391481 L1066,95.6360722 C1066,96.4276037 1066.64762,97.0752203 1067.43915,97.0752203 L1077.10351,97.0752203 L1083.81761,101.997347 C1083.81761,101.997347 1084.17644,102.035724 1084.32803,101.820571 C1084.38967,101.733263 1084.39351,101.63684 1084.39447,101.598463 C1084.39999,101.304157 1084.40191,99.5212924 1084.39447,97.0752203 L1086.51218,97.0752203 L1087.84771,97.0752203 C1088.63924,97.0752203 1089.28686,96.4276037 1089.28686,95.6360722 L1089.28686,80.4391481 C1089.28686,79.6476166 1088.63924,79 1087.84771,79 Z" id="Page-1"></path>
        </g>
    </g>
</svg>