<?xml version="1.0" encoding="UTF-8"?>
<svg width="190px" height="120px" viewBox="0 0 190 120" version="1.1" xmlns="http://www.w3.org/2000/svg" xmlns:xlink="http://www.w3.org/1999/xlink">
    <!-- Generator: Sketch 46.2 (44496) - http://www.bohemiancoding.com/sketch -->
    <title>Group 12</title>
    <desc>Created with Sketch.</desc>
    <defs></defs>
    <g id="Page-1" stroke="none" stroke-width="1" fill="none" fill-rule="evenodd">
        <g id="REDISEÑO" transform="translate(-2524.000000, -2135.000000)">
            <g id="Group-12" transform="translate(2524.000000, 2135.000000)">
                <rect id="IMG" fill="#E9E9E9" x="0" y="0" width="190" height="120" rx="6"></rect>
                <path d="M88.3333333,52.3333333 C88.3333333,50.125 86.5416667,48.3333333 84.3333333,48.3333333 C82.125,48.3333333 80.3333333,50.125 80.3333333,52.3333333 C80.3333333,54.5416667 82.125,56.3333333 84.3333333,56.3333333 C86.5416667,56.3333333 88.3333333,54.5416667 88.3333333,52.3333333 L88.3333333,52.3333333 Z M109.666667,60.3333333 L101,51.6666667 L90.3333333,62.3333333 L87,59 L80.3333333,65.6666667 L80.3333333,69.6666667 L109.666667,69.6666667 L109.666667,60.3333333 Z M115,46.3333333 C115,44.5 113.5,43 111.666667,43 L78.3333333,43 C76.5,43 75,44.5 75,46.3333333 L75,71.6666667 C75,73.5 76.5,75 78.3333333,75 L111.666667,75 C113.5,75 115,73.5 115,71.6666667 L115,46.3333333 Z" id="photo-icon" stroke="#939393"></path>
            </g>
        </g>
    </g>
</svg>