<?xml version="1.0" encoding="utf-8"?>
<!-- Generator: Adobe Illustrator 18.0.0, SVG Export Plug-In . SVG Version: 6.00 Build 0)  -->
<!DOCTYPE svg PUBLIC "-//W3C//DTD SVG 1.1//EN" "http://www.w3.org/Graphics/SVG/1.1/DTD/svg11.dtd">
<svg version="1.1" id="Capa_1" xmlns="http://www.w3.org/2000/svg" xmlns:xlink="http://www.w3.org/1999/xlink" x="0px" y="0px"
	 viewBox="-1.5 -1.5 42 42" enable-background="new -1.5 -1.5 42 42" xml:space="preserve">
<g>
	<path fill="#1C1919" d="M27.5,40.5h-16c-7.2,0-13-5.8-13-13v-16c0-7.2,5.8-13,13-13h16c7.2,0,13,5.8,13,13v16
		C40.5,34.7,34.7,40.5,27.5,40.5z M11.5,0.5c-6.1,0-11,4.9-11,11v16c0,6.1,4.9,11,11,11h16c6.1,0,11-4.9,11-11v-16
		c0-6.1-4.9-11-11-11H11.5z"/>
</g>
<g>
	<path fill="#1C1919" d="M19.5,29.6c-5.6,0-10.1-4.5-10.1-10.1c0-5.6,4.5-10.1,10.1-10.1c5.6,0,10.1,4.5,10.1,10.1
		C29.6,25.1,25.1,29.6,19.5,29.6z M19.5,11.4c-4.5,0-8.1,3.6-8.1,8.1s3.6,8.1,8.1,8.1s8.1-3.6,8.1-8.1S24,11.4,19.5,11.4z"/>
</g>
<g>
	<circle fill="#1C1919" cx="30.5" cy="10" r="1.6"/>
</g>
</svg>
