<?xml version="1.0" encoding="utf-8"?>
<!-- Generator: Adobe Illustrator 19.2.1, SVG Export Plug-In . SVG Version: 6.00 Build 0)  -->
<svg version="1.1" id="Capa_1" xmlns="http://www.w3.org/2000/svg" xmlns:xlink="http://www.w3.org/1999/xlink" x="0px" y="0px"
	 viewBox="0 0 103 60" style="enable-background:new 0 0 103 60;" xml:space="preserve">
<style type="text/css">
	.st0{fill:#FFFFFF;}
	.st1{fill:none;stroke:#F34D4D;stroke-width:3;}
	.st2{fill:#F34D4D;}
</style>
<title>Group</title>
<desc>Created with Sketch.</desc>
<g id="primera-vez-deviser">
	<g id="BECOMEADEVISER" transform="translate(-1032.000000, -561.000000)">
		<g id="Group-6" transform="translate(217.000000, 509.000000)">
			<g id="iconos">
				<g id="Group" transform="translate(731.125230, 52.000000)">
					<g transform="translate(84.077348, 0.000000)">
						<g id="noun_15040">
							<g id="XMLID_39_">
								<g id="XMLID_91_">
									<path id="Shape" class="st0" d="M18,50.9h67.4V7.6H18V50.9L18,50.9z M100,57.9c0,1-3.1,1.9-4.1,1.9H6.6
										c-1,0-4.1-0.8-4.1-1.9l-2.4-4.7c0-1,0.8-1.8,1.7-1.8h8.8V5.5c0-2.8,2.4-5.2,5.3-5.2h71.2c3,0,5.4,2.3,5.4,5.2v45.9h8
										c1,0,1.7,0.8,1.7,1.8L100,57.9L100,57.9z"/>
								</g>
							</g>
						</g>
						<g id="Rectangle-32" transform="translate(25.023020, 13.500000)">
							<rect x="13.8" y="14.5" class="st0" width="9.6" height="16.8"/>
							<rect x="0" y="22" class="st0" width="9.6" height="9.3"/>
							<rect x="28.1" y="6.1" class="st0" width="9.6" height="25.2"/>
							<rect x="43" y="0.7" class="st0" width="9.6" height="30.7"/>
						</g>
						<polyline id="Path-149" class="st1" points="30,39 43.5,24.7 57.9,30 75.3,12.7 						"/>
						<polygon id="Rectangle-36" class="st2" points="71.6,11.3 78.4,9.7 76.7,16.3 						"/>
					</g>
				</g>
			</g>
		</g>
	</g>
</g>
</svg>
