<?xml version="1.0" encoding="utf-8"?>
<!-- Generator: Adobe Illustrator 21.1.0, SVG Export Plug-In . SVG Version: 6.00 Build 0)  -->
<svg version="1.1" id="Layer_1" xmlns="http://www.w3.org/2000/svg"  x="0px" y="0px"
	 viewBox="0 0 841.9 329.8" style="enable-background:new 0 0 841.9 329.8;" xml:space="preserve">
<style type="text/css">
	.st0{fill:none;}
</style>
<g>
	<path d="M666.5,207.6c-5,3.2-9.8,6.1-14.4,9.2c-9.9,6.8-20.4,12.3-32.3,15c-15.9,3.6-31.9,4.3-47.7-0.6
		c-8.3-2.6-15.7-6.7-20.8-14.1c-4.7-6.7-6.2-14.3-5-22.3c1.1-7.2,2.8-14.3,4.1-21.5c0.7-3.6,0.9-7.2-0.2-10.7
		c-1.3-4.5-4.9-5.9-9-3.7c-2.8,1.5-4.7,3.8-6.2,6.5c-7.8,14.1-15.6,28.2-23.3,42.3c-3.1,5.7-6.2,11.5-9.3,17.2
		c-2.4,4.4-5.4,8.1-10.6,9.4c-5,1.2-10,0.9-14.9-0.6c-3.4-1.1-5.5-3.6-6.4-6.9c-1.4-4.6-2.5-9.3-3.6-14c-1.7-7.5-3.2-15.1-4.7-22.6
		c-0.1-0.3-0.2-0.5-0.4-1c-1.1,1.9-2.1,3.6-3.1,5.3c-8.1,13.3-19.1,23.8-32.3,32c-10,6.2-21.1,8.6-32.8,8.5c-8.9,0-16.8-2.7-24-7.8
		c-4-2.8-7.2-6.4-9.7-10.5c-0.3-0.5-0.7-1.1-1.2-1.8c-2.4,2.1-4.6,4.2-6.9,6.2c-3.4,3-6.6,6.2-10.3,8.8c-7.1,5.1-15,5.6-22.9,2.3
		c-6.6-2.8-9.8-8.1-10-15.2c0-0.4,0-0.7,0-1.6c-0.6,0.8-0.9,1.2-1.2,1.7c-4.2,5.7-8.6,11.1-15.1,14.2c-11.1,5.3-27.3,4.3-36.1-6.5
		c-4.6-5.6-7-12-8-19c-0.4-2.9-0.6-5.8-0.9-9c-0.3,0.6-0.5,1.1-0.7,1.5c-4.3,10.3-10.4,19.4-19.6,26c-10.2,7.3-21.5,10.6-34.1,9.7
		c-8.7-0.6-16.9-2.8-24.1-7.9c-1.1-0.8-2.1-1.6-3.2-2.5c-5,3.1-10.4,5.5-16.1,7.1c-10.1,2.9-20.3,4.1-30.9,3.3
		c-6.6-0.6-13-2-18.7-5.5c-8.1-5.1-12.3-12.4-11.7-22c0.4-6.8,1.4-13.5,2.3-20.3c1.1-8.4,2.5-16.7,3.7-25.1c0.2-1.3,0.4-2.7,0.6-4.2
		c-0.8,0-1.4,0-2.1,0c-4.8,0-9.6-0.1-14.4,0c-3.5,0.1-5.2-1-6-4.9c-0.6-3-0.1-5.9,1.6-8.5c1.3-2,3.2-3.1,5.5-3.5
		c3.1-0.5,6.1-1.3,9.2-2c7.8-1.8,12.3-6.9,13.8-14.7c1-5.7,2.1-11.4,2.8-17.1c0.4-3.1,1.8-4.9,4.8-5.6c4.5-1.2,9.1-1.3,13.7-0.9
		c2.9,0.3,5.7,0.8,8.5,1.6c2.8,0.8,3,1.6,2.6,4.4c-1.2,7.6-2.2,15.3-3.3,23c-0.3,1.9-0.6,3.9-0.9,6.1c2.9-0.2,5.7-0.3,8.4-0.5
		c4.4-0.3,8.7-0.7,13.1-0.9c2.2-0.1,3.1,0.7,3.6,2.8c1,4.6-0.1,9-1.6,13.4c-0.6,1.7-1.4,3.2-2.4,4.7c-1.2,1.9-2.9,2.8-5.2,2.7
		c-6.3-0.1-12.7,0-19.2,0c-0.5,3.3-1,6.6-1.5,9.8c-1,6.8-2.2,13.5-3,20.3c-0.5,3.8-0.7,7.7-0.5,11.5c0.2,5,4.1,8.5,9.2,9.2
		c7.1,0.9,13.5-1.3,20-3.8c0.7-0.3,1.3-0.5,2-0.8c0.2-0.1,0.3-0.2,0.5-0.3c-1-5.3-1.4-10.7-1.1-16.2c0.7-12.8,4.8-24.4,12.5-34.6
		c8.2-10.9,18.8-18.4,32.3-20.9s26.6-1.3,37.9,7.5c8.2,6.4,13.1,14.8,14.7,25.1c0.4,2.8,0.7,5.7,1.1,8.6
		c12.6-29.3,33.3-45.3,66.5-41.4c0.9-5.6,1.7-11.3,2.6-17c1.2-7.5,2.1-15.1,3.6-22.5c1.5-7.2,5.9-10.4,13.3-10.4
		c4.1,0,8.3-0.2,12.3,1c5.1,1.5,7.2,5,6.4,10.2c-1.3,8.2-2.5,16.5-3.7,24.7c-1.1,7.5-2.3,15-3.4,22.6c-1.1,7.5-2.2,14.9-3.3,22.4
		c-1.1,7.5-2.3,15-3.4,22.6c-0.7,4.8-1.4,9.6-1.8,14.4c-0.2,3.1,1.2,5.1,4.7,3.4c2.8-1.4,5.3-3.5,7.9-5.3c0.3-0.2,0.4-0.8,0.4-1.2
		c-1-18.6,5.1-34.9,17.3-48.6c8.7-9.8,19.9-15.2,33-16.7c9-1,17.8-0.1,26.1,3.9c9.9,4.8,14.1,14,13.4,24.3c-0.6,10.1-6.3,17.2-14,23
		c-8.5,6.3-18.2,10.1-28.3,13.1c-4.3,1.3-8.7,2.4-13.1,3.5c0,5.6,5.4,11.9,11.2,13c6,1.1,11.9,0.1,17.2-2.6
		c11.8-6,22.2-13.9,29.8-25c5.8-8.4,8.7-17.8,8.2-28.1c-0.1-2.6-0.7-5.3-1.1-7.9c-1.4-8.9,5.5-17.6,15.7-17.9
		c6.5-0.2,12.1,3.7,14.5,10.6c1.4,4,2.1,8.2,2.9,12.4c2,10.4,3.9,20.7,5.8,31.1c0,0.2,0.2,0.4,0.4,0.8c0.4-0.7,0.7-1.2,1-1.7
		c4.3-8.4,8.4-16.9,12.9-25.1c4.8-8.5,11.1-15.8,19.5-21.1c7.7-4.9,16.2-7.1,25.3-6.6c6.1,0.3,12,1.9,17.5,4.6
		c6.9,3.5,10.3,9.5,11.9,16.7c1.7,7.5,1.6,15.1,0.4,22.6c-0.9,5.9-2.3,11.8-3.4,17.7c-0.9,4.9-1,9.9,0.8,14.7
		c2.1,5.8,7.2,9.5,13.3,9.8c7.4,0.4,14.3-0.8,20.3-5.4c2.9-2.2,5-5,6.2-8.5c1.4-4,0.5-7.5-2.6-10.3c-4.5-4-9.1-7.7-13.7-11.6
		c-5.1-4.3-8.9-9.6-10.1-16.3c-1.9-10.2,1.4-18.6,9.2-25.2c6.2-5.3,13.6-7.8,21.6-8.6c11.9-1.1,23.5-0.2,34.7,4.4
		c2.6,1.1,5.2,2.6,7.4,4.4c3.3,2.8,3.7,6.7,1.6,11.6c-1.7,4-4.8,6.3-8.8,6.2c-2.2-0.1-4.3-0.4-6.4-1c-6-1.7-12.1-2.8-18.4-2.4
		c-2.2,0.1-4.5,1.1-6.3,2.3c-3.3,2.3-3.2,6.2-0.1,8.6c2.5,1.9,5.2,3.5,7.9,5.2c6.5,4.2,12.9,8.6,18.1,14.6c2.4,2.8,4.1,5.9,5.3,9.6
		c2.2-1.1,4.4-2.1,6.5-3.2c0.3-0.2,0.4-0.8,0.5-1.2c1-14.1,5.8-26.8,14.3-37.9c8.6-11.2,20-18.5,34-20.9c8.9-1.5,17.7-0.7,26.1,2.9
		c10.5,4.6,15.9,13.3,15.6,24.7c-0.2,9.7-5,16.8-12.2,22.7c-8.5,7-18.5,11-28.9,14.2c-4.4,1.3-8.9,2.5-13.3,3.5
		c-1.2,0.3-1.3,0.7-1,1.7c2,8.6,9.3,13.1,18,11.9c9.3-1.3,16.7-6.3,23.9-11.8c2.1-1.6,4.2-3.3,6.5-4.6c2.7-1.5,5.6-1.7,8.1,0.5
		c2.6,2.3,3.6,5.3,2.5,8.5c-0.9,2.6-2.3,5.3-4.2,7.3c-10.1,10.4-21.6,18.6-36.2,21.6c-8.7,1.8-17.5,2.2-26.2-0.5
		c-12.2-3.8-20.2-11.8-24.5-23.8C666.9,208.9,666.8,208.4,666.5,207.6z M218.3,176.5c-0.1-5.3-0.6-10.4-3.6-14.8
		c-2.4-3.6-5.8-5.4-10.2-5.5c-4.6-0.1-8.1,2.2-10.5,5.7c-7.8,11.1-9.9,23.5-6.3,36.5c3,10.9,12.9,11.1,19.6,6.5
		c3.3-2.2,5.5-5.4,7.1-8.9C217.2,189.7,218.1,183,218.3,176.5z M314.3,156.7c-3-0.2-5.9-0.6-8.8-0.4c-6.3,0.5-11.9,2.6-15.8,7.9
		c-6.7,8.9-9.6,19.1-8.9,30.1c0.3,4.3,1.9,8.2,6.3,10.1c4.5,2,8.7,1.2,12.2-2c3.1-2.8,5.6-6.2,8.4-9.4c1.2-1.3,1.6-3,1.9-4.7
		C311.2,178,312.7,167.6,314.3,156.7z M387.4,181.9c9.5-2.5,18.3-5.5,25.2-12.4c2.1-2.1,3.6-4.5,4.3-7.4c1.5-5.9-2-10.5-8.1-10.4
		c-3.4,0-6.4,1.4-9.1,3.5c-3.3,2.7-5.6,6.1-7.5,9.8C389.8,170.2,388.3,175.7,387.4,181.9z M698.3,182.6c9.8-2.6,18.7-5.6,25.6-12.7
		c2.1-2.1,3.6-4.7,4.2-7.7c1.1-4.8-1.4-8.8-6.2-9.8c-4.3-0.9-7.9,0.8-11.1,3.4c-5.5,4.5-8.4,10.8-10.3,17.4
		C699.6,176.3,699.1,179.3,698.3,182.6z"/>
	<path d="M571.2,117.1c-11.5,0-18-7.5-17-18.9c1.1-12.8,14.6-20.7,26.4-16.1c7.5,2.9,10.8,10.1,9.7,18.1
		c-1.3,9.3-6.6,14.7-15.7,16.7C573.4,117.1,572,117.1,571.2,117.1z"/>
</g>
<rect x="789" y="161.9" class="st0" width="63.1" height="55.9"/>
</svg>
