<?xml version="1.0" encoding="utf-8"?>
<!-- Generator: Adobe Illustrator 16.0.0, SVG Export Plug-In . SVG Version: 6.00 Build 0)  -->
<!DOCTYPE svg PUBLIC "-//W3C//DTD SVG 1.1//EN" "http://www.w3.org/Graphics/SVG/1.1/DTD/svg11.dtd">
<svg version="1.1" id="Layer_1" xmlns="http://www.w3.org/2000/svg" xmlns:xlink="http://www.w3.org/1999/xlink" x="0px" y="0px"
	 width="841.89px" height="329.752px" viewBox="0 0 841.89 329.752" enable-background="new 0 0 841.89 329.752"
	 xml:space="preserve">
<g>
	<path fill-rule="evenodd" clip-rule="evenodd" fill="#C91C39" d="M675.028,215.752c-4.967,3.174-9.779,6.083-14.418,9.247
		c-9.941,6.78-20.422,12.339-32.271,14.99c-15.943,3.568-31.865,4.293-47.684-0.572c-8.326-2.561-15.676-6.727-20.777-14.072
		c-4.68-6.737-6.18-14.326-4.98-22.306c1.084-7.215,2.785-14.335,4.123-21.514c0.664-3.567,0.883-7.17-0.186-10.725
		c-1.336-4.451-4.881-5.901-9.008-3.684c-2.758,1.482-4.703,3.783-6.188,6.462c-7.791,14.074-15.559,28.162-23.307,42.26
		c-3.131,5.701-6.174,11.452-9.291,17.161c-2.395,4.384-5.447,8.093-10.58,9.351c-5.002,1.226-10,0.901-14.871-0.632
		c-3.352-1.055-5.457-3.645-6.428-6.883c-1.385-4.617-2.523-9.317-3.566-14.025c-1.666-7.521-3.166-15.077-4.748-22.616
		c-0.059-0.283-0.234-0.541-0.445-1.014c-1.094,1.866-2.088,3.625-3.139,5.348c-8.131,13.317-19.113,23.778-32.297,31.974
		c-10.035,6.238-21.083,8.594-32.824,8.549c-8.913-0.035-16.846-2.665-24.019-7.812c-3.95-2.834-7.158-6.372-9.721-10.5
		c-0.338-0.545-0.704-1.073-1.195-1.82c-2.355,2.129-4.597,4.209-6.897,6.222c-3.389,2.964-6.621,6.159-10.274,8.759
		c-7.107,5.057-14.965,5.643-22.911,2.293c-6.573-2.771-9.835-8.053-9.958-15.218c-0.006-0.352,0-0.704,0-1.606
		c-0.604,0.803-0.927,1.224-1.242,1.652c-4.16,5.682-8.628,11.07-15.147,14.194c-11.136,5.338-27.252,4.269-36.119-6.48
		c-4.584-5.557-6.958-12.02-7.974-19.038c-0.415-2.862-0.581-5.759-0.891-8.956c-0.302,0.648-0.516,1.069-0.698,1.503
		c-4.342,10.341-10.354,19.415-19.627,26.049c-10.208,7.303-21.499,10.633-34.078,9.722c-8.731-0.632-16.888-2.796-24.101-7.928
		c-1.06-0.755-2.063-1.589-3.198-2.469c-4.98,3.123-10.375,5.463-16.064,7.119c-10.087,2.937-20.339,4.131-30.852,3.255
		c-6.64-0.552-12.973-1.981-18.656-5.531c-8.108-5.065-12.273-12.443-11.667-22.029c0.428-6.774,1.413-13.521,2.331-20.255
		c1.141-8.376,2.471-16.726,3.715-25.087c0.198-1.332,0.372-2.667,0.589-4.232c-0.806,0-1.441-0.001-2.077,0
		c-4.805,0.006-9.611-0.061-14.415,0.042c-3.483,0.075-5.24-1.033-6.022-4.89c-0.602-2.971-0.117-5.908,1.597-8.522
		c1.309-1.996,3.16-3.053,5.529-3.472c3.078-0.544,6.124-1.287,9.168-2.004c7.836-1.847,12.336-6.884,13.77-14.7
		c1.045-5.695,2.076-11.399,2.847-17.135c0.411-3.059,1.845-4.856,4.751-5.646c4.528-1.23,9.142-1.325,13.75-0.854
		c2.86,0.292,5.729,0.816,8.499,1.58c2.822,0.778,3.034,1.56,2.6,4.431c-1.154,7.645-2.224,15.303-3.331,22.955
		c-0.278,1.926-0.566,3.85-0.899,6.108c2.928-0.175,5.669-0.318,8.407-0.507c4.369-0.303,8.732-0.687,13.104-0.937
		c2.193-0.125,3.112,0.654,3.583,2.812c1.01,4.63-0.081,9.049-1.571,13.375c-0.571,1.657-1.449,3.234-2.362,4.741
		c-1.154,1.906-2.875,2.78-5.205,2.746c-6.34-0.093-12.682-0.032-19.217-0.032c-0.514,3.347-1.02,6.589-1.509,9.834
		c-1.02,6.766-2.161,13.517-2.996,20.306c-0.466,3.791-0.707,7.659-0.533,11.47c0.23,5.043,4.142,8.538,9.236,9.15
		c7.077,0.851,13.537-1.314,19.966-3.76c0.661-0.252,1.31-0.534,1.961-0.811c0.158-0.066,0.3-0.169,0.528-0.3
		c-0.988-5.347-1.373-10.729-1.067-16.188c0.717-12.818,4.804-24.415,12.515-34.642c8.201-10.875,18.804-18.4,32.323-20.931
		c13.524-2.531,26.6-1.317,37.929,7.485c8.18,6.355,13.141,14.778,14.699,25.088c0.43,2.839,0.7,5.703,1.055,8.647
		c12.61-29.28,33.323-45.276,66.545-41.405c0.863-5.584,1.735-11.291,2.627-16.993c1.176-7.519,2.085-15.094,3.632-22.536
		c1.507-7.247,5.941-10.398,13.347-10.399c4.137,0,8.282-0.2,12.331,1.016c5.13,1.541,7.206,4.982,6.355,10.221
		c-1.333,8.211-2.498,16.45-3.745,24.675c-1.141,7.526-2.311,15.047-3.441,22.575c-1.122,7.469-2.199,14.946-3.317,22.416
		c-1.127,7.528-2.32,15.046-3.412,22.579c-0.694,4.794-1.443,9.592-1.811,14.415c-0.234,3.067,1.167,5.119,4.713,3.415
		c2.833-1.361,5.308-3.48,7.898-5.326c0.287-0.204,0.418-0.823,0.395-1.236c-1.04-18.64,5.121-34.857,17.317-48.632
		c8.651-9.77,19.923-15.234,32.979-16.661c9.025-0.986,17.834-0.105,26.129,3.885c9.902,4.764,14.088,14.027,13.424,24.326
		c-0.65,10.121-6.301,17.218-14.029,22.986c-8.506,6.349-18.242,10.131-28.307,13.135c-4.336,1.295-8.742,2.354-13.124,3.522
		c-0.047,5.568,5.381,11.929,11.214,12.958c6.026,1.062,11.935,0.078,17.25-2.625c11.807-6.006,22.17-13.922,29.805-24.972
		c5.828-8.434,8.738-17.773,8.191-28.062c-0.141-2.642-0.678-5.266-1.082-7.891c-1.371-8.912,5.457-17.641,15.689-17.915
		c6.461-0.173,12.07,3.74,14.467,10.562c1.395,3.971,2.072,8.212,2.873,12.37c1.99,10.354,3.867,20.729,5.799,31.095
		c0.041,0.217,0.213,0.409,0.428,0.802c0.379-0.664,0.703-1.182,0.98-1.724c4.291-8.369,8.352-16.867,12.926-25.08
		c4.756-8.537,11.068-15.816,19.453-21.09c7.742-4.87,16.213-7.075,25.318-6.558c6.119,0.348,12.006,1.859,17.514,4.603
		c6.93,3.451,10.287,9.528,11.906,16.747c1.678,7.488,1.574,15.063,0.406,22.589c-0.922,5.934-2.311,11.793-3.387,17.704
		c-0.898,4.942-0.98,9.877,0.799,14.688c2.139,5.779,7.223,9.456,13.348,9.769c7.352,0.376,14.281-0.784,20.275-5.406
		c2.873-2.217,4.957-5.02,6.156-8.502c1.395-4.046,0.514-7.523-2.611-10.29c-4.482-3.967-9.133-7.743-13.689-11.627
		c-5.096-4.342-8.877-9.573-10.113-16.258c-1.879-10.155,1.449-18.569,9.223-25.181c6.18-5.258,13.557-7.806,21.557-8.56
		c11.873-1.119,23.531-0.163,34.672,4.375c2.639,1.075,5.215,2.614,7.389,4.448c3.316,2.797,3.66,6.688,1.635,11.573
		c-1.668,4.021-4.779,6.332-8.834,6.186c-2.152-0.077-4.342-0.448-6.418-1.028c-6.018-1.682-12.135-2.75-18.361-2.389
		c-2.166,0.126-4.523,1.075-6.338,2.316c-3.293,2.254-3.242,6.227-0.066,8.61c2.502,1.877,5.217,3.474,7.852,5.173
		c6.537,4.217,12.918,8.624,18.068,14.561c2.393,2.76,4.145,5.875,5.256,9.558c2.199-1.084,4.361-2.11,6.473-3.231
		c0.287-0.152,0.438-0.764,0.467-1.176c1.008-14.063,5.779-26.763,14.344-37.898c8.623-11.212,19.98-18.457,33.971-20.884
		c8.857-1.537,17.715-0.727,26.092,2.914c10.48,4.555,15.887,13.315,15.641,24.712c-0.211,9.667-5.031,16.81-12.174,22.661
		c-8.52,6.979-18.529,11.036-28.93,14.21c-4.391,1.34-8.854,2.452-13.318,3.527c-1.16,0.279-1.271,0.692-1.033,1.691
		c2.039,8.602,9.277,13.095,18.025,11.854c9.336-1.324,16.684-6.273,23.869-11.76c2.111-1.612,4.18-3.346,6.496-4.605
		c2.682-1.459,5.625-1.684,8.125,0.532c2.564,2.272,3.619,5.317,2.459,8.512c-0.945,2.606-2.266,5.342-4.168,7.291
		c-10.115,10.371-21.639,18.62-36.168,21.565c-8.715,1.767-17.506,2.175-26.172-0.516c-12.172-3.779-20.24-11.819-24.523-23.755
		C675.478,217.005,675.319,216.564,675.028,215.752z M226.805,184.591c-0.111-5.342-0.608-10.382-3.605-14.789
		c-2.425-3.567-5.791-5.435-10.152-5.493c-4.579-0.062-8.063,2.192-10.512,5.683c-7.794,11.109-9.862,23.533-6.327,36.458
		c2.968,10.853,12.853,11.07,19.571,6.527c3.28-2.218,5.451-5.379,7.095-8.933C225.764,197.804,226.588,191.158,226.805,184.591z
		 M322.865,164.819c-3.04-0.168-5.93-0.636-8.77-0.422c-6.279,0.472-11.896,2.565-15.848,7.858
		c-6.678,8.945-9.555,19.068-8.865,30.126c0.27,4.326,1.947,8.226,6.337,10.142c4.47,1.952,8.748,1.192,12.223-1.989
		c3.078-2.818,5.615-6.227,8.412-9.355c1.195-1.338,1.626-2.953,1.875-4.661C319.746,186.127,321.268,175.737,322.865,164.819z
		 M395.976,189.987c9.487-2.549,18.332-5.531,25.248-12.422c2.076-2.068,3.57-4.519,4.314-7.411c1.508-5.854-2.045-10.5-8.09-10.439
		c-3.449,0.035-6.414,1.405-9.051,3.545c-3.28,2.663-5.598,6.06-7.45,9.812C398.371,178.292,396.884,183.823,395.976,189.987z
		 M706.839,190.77c9.766-2.589,18.701-5.602,25.637-12.652c2.102-2.139,3.557-4.689,4.229-7.652
		c1.084-4.793-1.422-8.793-6.246-9.755c-4.277-0.853-7.904,0.775-11.098,3.405c-5.516,4.541-8.355,10.753-10.348,17.396
		C708.146,184.411,707.616,187.413,706.839,190.77z"/>
	<path fill-rule="evenodd" clip-rule="evenodd" fill="#C91C39" d="M579.747,125.284c-11.477,0.001-17.98-7.509-17.047-18.936
		c1.051-12.844,14.637-20.716,26.436-16.14c7.484,2.903,10.838,10.1,9.703,18.086c-1.328,9.331-6.582,14.731-15.666,16.689
		C581.911,125.256,580.585,125.217,579.747,125.284z"/>
</g>
</svg>
