<?xml version="1.0" encoding="utf-8"?>
<!-- Generator: Adobe Illustrator 18.0.0, SVG Export Plug-In . SVG Version: 6.00 Build 0)  -->
<!DOCTYPE svg PUBLIC "-//W3C//DTD SVG 1.1//EN" "http://www.w3.org/Graphics/SVG/1.1/DTD/svg11.dtd">
<svg version="1.1" id="Capa_1" xmlns="http://www.w3.org/2000/svg" xmlns:xlink="http://www.w3.org/1999/xlink" x="0px" y="0px"
	 viewBox="0 0 39.9 12.2" enable-background="new 0 0 39.9 12.2" xml:space="preserve">
<path d="M34.1,7.3c-0.3,0.2-0.6,0.4-0.8,0.5c-0.6,0.4-1.2,0.7-1.9,0.9c-0.9,0.2-1.8,0.2-2.7,0c-0.5-0.1-0.9-0.4-1.2-0.8
	c-0.3-0.4-0.4-0.8-0.3-1.3c0.1-0.4,0.2-0.8,0.2-1.2c0-0.2,0-0.4,0-0.6c-0.1-0.3-0.3-0.3-0.5-0.2c-0.2,0.1-0.3,0.2-0.4,0.4
	c-0.4,0.8-0.9,1.6-1.3,2.4c-0.2,0.3-0.4,0.7-0.5,1c-0.1,0.3-0.3,0.5-0.6,0.5c-0.3,0.1-0.6,0.1-0.9,0c-0.2-0.1-0.3-0.2-0.4-0.4
	c-0.1-0.3-0.1-0.5-0.2-0.8c-0.1-0.4-0.2-0.9-0.3-1.3c0,0,0,0,0-0.1c-0.1,0.1-0.1,0.2-0.2,0.3c-0.5,0.8-1.1,1.4-1.9,1.8
	c-0.6,0.4-1.2,0.5-1.9,0.5c-0.5,0-1-0.2-1.4-0.4c-0.2-0.2-0.4-0.4-0.6-0.6c0,0,0-0.1-0.1-0.1c-0.1,0.1-0.3,0.2-0.4,0.4
	c-0.2,0.2-0.4,0.4-0.6,0.5c-0.4,0.3-0.9,0.3-1.3,0.1c-0.4-0.2-0.6-0.5-0.6-0.9V7.7c0,0,0,0.1-0.1,0.1c-0.2,0.3-0.5,0.6-0.9,0.8
	c-0.6,0.3-1.6,0.2-2.1-0.4c-0.3-0.3-0.4-0.7-0.5-1.1c0-0.2,0-0.3-0.1-0.5c0,0,0,0.1,0,0.1C9.8,7.3,9.4,7.9,8.9,8.2
	c-0.6,0.4-1.3,0.6-2,0.6c-0.5,0-1-0.2-1.4-0.5c-0.1,0-0.1-0.1-0.2-0.1C5.1,8.4,4.8,8.5,4.4,8.6C3.9,8.8,3.3,8.8,2.7,8.8
	c-0.4,0-0.7-0.1-1.1-0.3C1.1,8.2,0.9,7.8,0.9,7.2C1,6.8,1,6.4,1.1,6.1c0.1-0.5,0.1-1,0.2-1.4c0-0.1,0-0.2,0-0.2H1.2
	c-0.3,0-0.6,0-0.8,0C0.2,4.4,0.1,4.3,0,4.1c0-0.2,0-0.3,0.1-0.5c0.1-0.1,0.2-0.2,0.3-0.2c0.2,0,0.4-0.1,0.5-0.1
	c0.4-0.1,0.7-0.4,0.8-0.8c0.1-0.3,0.1-0.7,0.2-1c0-0.2,0.1-0.3,0.3-0.3C2.4,1.1,2.7,1.1,3,1.1c0.2,0,0.3,0,0.5,0.1
	c0.2,0,0.2,0.1,0.1,0.3C3.5,1.9,3.5,2.3,3.4,2.8c0,0.1,0,0.2-0.1,0.4c0.2,0,0.3,0,0.5,0c0.3,0,0.5,0,0.8-0.1c0.1,0,0.2,0,0.2,0.2
	c0.1,0.3,0,0.5-0.1,0.8c0,0.1-0.1,0.2-0.1,0.3C4.5,4.3,4.4,4.4,4.3,4.4c-0.4,0-0.7,0-1.1,0c0,0.2-0.1,0.4-0.1,0.6
	C3,5.3,3,5.7,2.9,6.1c0,0.2,0,0.4,0,0.7c0,0.3,0.2,0.5,0.5,0.5c0.4,0.1,0.8-0.1,1.1-0.2c0,0,0.1,0,0.1,0c0,0,0,0,0,0
	C4.6,6.7,4.6,6.4,4.6,6.1c0-0.7,0.3-1.4,0.7-2C5.8,3.5,6.4,3,7.2,2.9C8,2.8,8.7,2.8,9.4,3.3c0.5,0.4,0.8,0.9,0.8,1.4
	c0,0.2,0,0.3,0.1,0.5c0.7-1.7,1.9-2.6,3.8-2.4c0.1-0.3,0.1-0.6,0.1-1c0.1-0.4,0.1-0.9,0.2-1.3C14.6,0.2,14.8,0,15.2,0
	c0.2,0,0.5,0,0.7,0.1c0.3,0.1,0.4,0.3,0.4,0.6c-0.1,0.5-0.1,0.9-0.2,1.4C16,2.5,16,2.9,15.9,3.4c-0.1,0.4-0.1,0.9-0.2,1.3
	S15.6,5.5,15.5,6c0,0.3-0.1,0.6-0.1,0.8c0,0.2,0.1,0.3,0.3,0.2c0.2-0.1,0.3-0.2,0.5-0.3c0,0,0,0,0-0.1c-0.1-1.1,0.3-2,1-2.8
	c0.5-0.6,1.1-0.9,1.9-1c0.5-0.1,1,0,1.5,0.2c0.6,0.3,0.8,0.8,0.8,1.4c0,0.6-0.4,1-0.8,1.3c-0.5,0.4-1,0.6-1.6,0.8
	c-0.2,0.1-0.5,0.1-0.8,0.2c0,0.3,0.3,0.7,0.6,0.7c0.3,0.1,0.7,0,1-0.1C20.5,7,21,6.6,21.5,5.9c0.3-0.5,0.5-1,0.5-1.6
	c0-0.2,0-0.3-0.1-0.5c-0.1-0.5,0.3-1,0.9-1c0.4,0,0.7,0.2,0.8,0.6c0.1,0.2,0.1,0.5,0.2,0.7c0.1,0.6,0.2,1.2,0.3,1.8c0,0,0,0,0,0
	c0,0,0-0.1,0.1-0.1c0.2-0.5,0.5-1,0.7-1.4c0.3-0.5,0.7-0.9,1.1-1.2c0.4-0.3,0.9-0.4,1.5-0.4c0.3,0,0.7,0.1,1,0.3
	c0.4,0.2,0.6,0.5,0.7,1c0.1,0.4,0.1,0.9,0,1.3c-0.1,0.3-0.1,0.7-0.2,1C29,6.7,29,7,29.1,7.2c0.1,0.3,0.4,0.6,0.8,0.6
	c0.4,0,0.8,0,1.2-0.3c0.2-0.1,0.3-0.3,0.4-0.5c0.1-0.2,0-0.4-0.1-0.6C31,6.2,30.7,6,30.4,5.7c-0.3-0.2-0.5-0.6-0.6-0.9
	c-0.1-0.6,0.1-1.1,0.5-1.4c0.4-0.3,0.8-0.4,1.2-0.5c0.7-0.1,1.3,0,2,0.3c0.2,0.1,0.3,0.1,0.4,0.3c0.2,0.2,0.2,0.4,0.1,0.7
	c-0.1,0.2-0.3,0.4-0.5,0.4c-0.1,0-0.2,0-0.4-0.1c-0.3-0.1-0.7-0.2-1.1-0.1c-0.1,0-0.3,0.1-0.4,0.1c-0.2,0.1-0.2,0.4,0,0.5
	C32,4.9,32.1,5,32.3,5.1c0.4,0.2,0.7,0.5,1,0.8c0.1,0.2,0.2,0.3,0.3,0.6c0.1-0.1,0.3-0.1,0.4-0.2c0,0,0,0,0-0.1
	c0.1-0.8,0.3-1.5,0.8-2.2c0.5-0.6,1.1-1.1,2-1.2c0.5-0.1,1,0,1.5,0.2c0.6,0.3,0.9,0.8,0.9,1.4c0,0.6-0.3,1-0.7,1.3
	c-0.5,0.4-1.1,0.6-1.7,0.8c-0.3,0.1-0.5,0.1-0.8,0.2c-0.1,0-0.1,0-0.1,0.1c0.1,0.5,0.5,0.8,1,0.7c0.5-0.1,1-0.4,1.4-0.7
	c0.1-0.1,0.2-0.2,0.4-0.3c0.2-0.1,0.3-0.1,0.5,0c0.1,0.1,0.2,0.3,0.1,0.5c-0.1,0.2-0.1,0.3-0.2,0.4c-0.6,0.6-1.2,1.1-2.1,1.2
	c-0.5,0.1-1,0.1-1.5,0c-0.7-0.2-1.2-0.7-1.4-1.4C34.2,7.4,34.2,7.3,34.1,7.3z M8.4,5.5c0-0.3,0-0.6-0.2-0.9C8.1,4.5,7.8,4.3,7.6,4.3
	C7.4,4.3,7.1,4.5,7,4.7C6.6,5.3,6.4,6,6.6,6.8c0.2,0.6,0.7,0.6,1.1,0.4C7.9,7,8.1,6.8,8.2,6.6C8.3,6.3,8.4,5.9,8.4,5.5z M13.9,4.4
	c-0.2,0-0.3,0-0.5,0c-0.4,0-0.7,0.1-0.9,0.5c-0.4,0.5-0.6,1.1-0.5,1.7c0,0.2,0.1,0.5,0.4,0.6c0.2,0.1,0.5,0.1,0.7-0.1
	c0.2-0.2,0.3-0.4,0.5-0.5c0.1-0.1,0.1-0.2,0.1-0.3C13.7,5.6,13.8,5,13.9,4.4L13.9,4.4z M18.1,5.8c0.5-0.1,1.1-0.3,1.4-0.7
	c0.1-0.1,0.2-0.3,0.2-0.4c0.1-0.3-0.1-0.6-0.5-0.6c-0.2,0-0.4,0.1-0.5,0.2c-0.2,0.2-0.3,0.3-0.4,0.6C18.2,5.1,18.2,5.5,18.1,5.8
	L18.1,5.8z M36,5.9c0.6-0.1,1.1-0.3,1.5-0.7c0.1-0.1,0.2-0.3,0.2-0.4c0.1-0.3-0.1-0.5-0.4-0.6c-0.2-0.1-0.5,0-0.6,0.2
	c-0.3,0.3-0.5,0.6-0.6,1C36,5.5,36,5.7,36,5.9L36,5.9z"/>
<path d="M28.7,2.1c-0.7,0-1-0.4-1-1.1c0.1-0.7,0.8-1.2,1.5-0.9c0.4,0.2,0.6,0.6,0.6,1c-0.1,0.5-0.4,0.8-0.9,1
	C28.8,2.1,28.7,2.1,28.7,2.1z"/>
<path d="M35.6,11.3c0,0.3-0.1,0.5-0.2,0.6c-0.1,0.2-0.3,0.2-0.5,0.2c-0.1,0-0.2,0-0.3-0.1c-0.1,0-0.1-0.1-0.2-0.2l0,0.2h-0.3V9.5
	h0.3v1c0-0.1,0.1-0.1,0.2-0.2c0.1,0,0.2-0.1,0.2-0.1c0.2,0,0.4,0.1,0.5,0.3C35.6,10.7,35.6,11,35.6,11.3L35.6,11.3z M35.3,11.2
	c0-0.2,0-0.3-0.1-0.5c0-0.1-0.1-0.2-0.3-0.2c-0.1,0-0.1,0-0.2,0.1c-0.1,0.1-0.1,0.1-0.1,0.2v0.9c0,0.1,0.1,0.1,0.1,0.2
	c0.1,0,0.1,0.1,0.2,0.1c0.1,0,0.2-0.1,0.3-0.2C35.3,11.6,35.3,11.4,35.3,11.2L35.3,11.2z"/>
<path d="M36.6,12.2c-0.2,0-0.4-0.1-0.5-0.2c-0.1-0.2-0.2-0.4-0.2-0.6v-0.1c0-0.3,0.1-0.5,0.2-0.7c0.1-0.2,0.3-0.3,0.5-0.3
	c0.2,0,0.4,0.1,0.5,0.2c0.1,0.1,0.2,0.3,0.2,0.6v0.2h-1c0,0.2,0,0.3,0.1,0.5c0.1,0.1,0.2,0.2,0.3,0.2c0.2,0,0.3-0.1,0.4-0.2l0.1,0.2
	c-0.1,0.1-0.1,0.1-0.2,0.2C36.9,12.1,36.7,12.2,36.6,12.2z M36.6,10.5c-0.1,0-0.2,0.1-0.2,0.1c-0.1,0.1-0.1,0.2-0.1,0.4h0.6v0
	c0-0.1,0-0.2-0.1-0.3C36.8,10.6,36.7,10.5,36.6,10.5z"/>
<path d="M38,9.9v0.5h0.3v0.2H38v1.1c0,0.1,0,0.1,0,0.2c0,0,0.1,0.1,0.1,0.1c0,0,0,0,0.1,0c0,0,0,0,0.1,0l0,0.2c0,0-0.1,0-0.1,0
	c0,0-0.1,0-0.1,0c-0.1,0-0.2,0-0.3-0.1c-0.1-0.1-0.1-0.2-0.1-0.4v-1.1h-0.2v-0.2h0.2V9.9L38,9.9z"/>
<path d="M39.5,12.1c0-0.1,0-0.1,0-0.1c0,0,0-0.1,0-0.1c0,0.1-0.1,0.2-0.2,0.2c-0.1,0.1-0.2,0.1-0.3,0.1c-0.1,0-0.3,0-0.4-0.1
	c-0.1-0.1-0.1-0.3-0.1-0.4c0-0.2,0.1-0.3,0.2-0.4c0.1-0.1,0.3-0.1,0.5-0.1h0.3v-0.2c0-0.1,0-0.2-0.1-0.3c-0.1-0.1-0.3-0.1-0.4,0
	c0,0,0,0,0,0c0,0.1-0.1,0.1-0.1,0.2h-0.3l0,0c0-0.1,0.1-0.3,0.2-0.4c0.1-0.1,0.3-0.2,0.5-0.2c0.2,0,0.3,0.1,0.4,0.2
	c0.1,0.1,0.2,0.3,0.2,0.5v0.8c0,0.1,0,0.1,0,0.2c0,0.1,0,0.1,0,0.2L39.5,12.1z M39.1,11.9c0.1,0,0.2,0,0.2-0.1
	c0.1-0.1,0.1-0.1,0.1-0.2v-0.3h-0.3c-0.1,0-0.2,0-0.2,0.1c-0.1,0.1-0.1,0.2-0.1,0.2c0,0.1,0,0.1,0.1,0.2
	C38.9,11.9,39,11.9,39.1,11.9L39.1,11.9z"/>
</svg>
