<?xml version="1.0" encoding="utf-8"?>
<!-- Generator: Adobe Illustrator 19.2.1, SVG Export Plug-In . SVG Version: 6.00 Build 0)  -->
<svg version="1.1" id="Layer_1" xmlns="http://www.w3.org/2000/svg" xmlns:xlink="http://www.w3.org/1999/xlink" x="0px" y="0px"
	 viewBox="0 0 841.9 329.8" style="enable-background:new 0 0 841.9 329.8;" xml:space="preserve">
<style type="text/css">
	.st0{fill:#FFFFFF;}
	.st1{fill:none;}
</style>
<g>
	<path class="st0" d="M728.9,220.1c-6.1,3.9-12,7.5-17.7,11.3c-12.1,8.3-25,15.1-39.6,18.4c-19.5,4.4-39.1,5.3-58.5-0.7
		c-10.2-3.2-19.3-8.2-25.5-17.3c-5.8-8.2-7.6-17.5-6.1-27.3c1.3-8.8,3.4-17.5,5-26.4c0.9-4.4,1.1-8.8-0.2-13.1
		c-1.6-5.5-6-7.2-11-4.5c-3.4,1.8-5.8,4.7-7.6,8c-9.6,17.3-19.1,34.6-28.6,51.9c-3.8,7-7.6,14.1-11.4,21.1c-2.9,5.4-6.6,9.9-13,11.5
		c-6.1,1.5-12.3,1.1-18.3-0.7c-4.2-1.3-6.7-4.4-7.8-8.5c-1.7-5.6-3.1-11.4-4.4-17.2c-2.1-9.2-3.9-18.5-5.8-27.7
		c-0.1-0.4-0.2-0.6-0.5-1.2c-1.3,2.3-2.6,4.4-3.8,6.5c-9.9,16.3-23.4,29.2-39.6,39.2c-12.3,7.6-25.9,10.5-40.2,10.4
		c-10.9,0-20.6-3.3-29.4-9.6c-4.9-3.4-8.8-7.8-11.9-12.9c-0.4-0.6-0.9-1.3-1.5-2.2c-2.9,2.6-5.6,5.2-8.5,7.6
		c-4.2,3.7-8.1,7.6-12.6,10.8c-8.7,6.3-18.4,6.9-28.1,2.8c-8.1-3.4-12-9.9-12.3-18.6c0-0.5,0-0.9,0-2c-0.7,1-1.1,1.5-1.5,2.1
		c-5.2,7-10.5,13.6-18.5,17.4c-13.6,6.5-33.5,5.3-44.3-8c-5.6-6.9-8.6-14.7-9.8-23.3c-0.5-3.6-0.7-7.1-1.1-11
		c-0.4,0.7-0.6,1.3-0.9,1.8c-5.3,12.6-12.8,23.8-24,31.9c-12.5,9-26.4,13-41.8,11.9c-10.7-0.7-20.7-3.4-29.6-9.7
		c-1.3-1-2.6-2-3.9-3.1c-6.1,3.8-12.8,6.7-19.7,8.7c-12.4,3.6-24.9,5-37.9,4c-8.1-0.7-15.9-2.5-22.9-6.7c-9.9-6.3-15.1-15.2-14.3-27
		c0.5-8.3,1.7-16.6,2.8-24.9c1.3-10.3,3.1-20.5,4.5-30.8c0.2-1.6,0.5-3.3,0.7-5.2c-1,0-1.7,0-2.6,0c-5.9,0-11.8-0.1-17.7,0
		c-4.3,0.1-6.4-1.2-7.4-6c-0.7-3.7-0.1-7.2,2-10.4c1.6-2.5,3.9-3.8,6.7-4.3c3.8-0.6,7.5-1.6,11.3-2.5c9.6-2.2,15.1-8.5,16.9-18
		c1.2-7,2.6-14,3.4-21c0.5-3.8,2.2-6,5.9-6.9c5.5-1.5,11.2-1.6,16.8-1.1c3.6,0.4,7,1,10.4,2c3.4,1,3.7,2,3.2,5.4
		c-1.5,9.3-2.7,18.8-4,28.2c-0.4,2.3-0.7,4.8-1.1,7.5c3.6-0.2,7-0.4,10.3-0.6c5.4-0.4,10.7-0.9,16.1-1.1c2.7-0.1,3.8,0.9,4.4,3.4
		c1.2,5.6-0.1,11-2,16.4c-0.7,2.1-1.7,3.9-2.9,5.8c-1.5,2.3-3.6,3.4-6.4,3.3c-7.7-0.1-15.6,0-23.5,0c-0.6,4-1.2,8.1-1.8,12
		c-1.2,8.3-2.7,16.6-3.7,24.9c-0.6,4.7-0.9,9.4-0.6,14.1c0.2,6.1,5,10.4,11.3,11.3c8.7,1.1,16.6-1.6,24.5-4.7c0.9-0.4,1.6-0.6,2.5-1
		c0.2-0.1,0.4-0.2,0.6-0.4c-1.2-6.5-1.7-13.1-1.3-19.9c0.9-15.7,5.9-29.9,15.3-42.4c10.1-13.4,23.1-22.6,39.6-25.6
		s32.6-1.6,46.5,9.2c10.1,7.8,16.1,18.1,18,30.8c0.5,3.4,0.9,7,1.3,10.5c15.5-35.9,40.8-55.5,81.5-50.8c1.1-6.9,2.1-13.9,3.2-20.8
		c1.5-9.2,2.6-18.5,4.4-27.6c1.8-8.8,7.2-12.8,16.3-12.8c5,0,10.2-0.2,15.1,1.2c6.3,1.8,8.8,6.1,7.8,12.5
		c-1.6,10.1-3.1,20.2-4.5,30.3c-1.3,9.2-2.8,18.4-4.2,27.7c-1.3,9.2-2.7,18.3-4,27.5c-1.3,9.2-2.8,18.4-4.2,27.7
		c-0.9,5.9-1.7,11.8-2.2,17.7c-0.2,3.8,1.5,6.3,5.8,4.2c3.4-1.7,6.5-4.3,9.7-6.5c0.4-0.2,0.5-1,0.5-1.5
		c-1.2-22.8,6.3-42.8,21.2-59.6c10.7-12,24.4-18.6,40.5-20.5c11-1.2,21.8-0.1,32,4.8c12.1,5.9,17.3,17.2,16.4,29.8
		c-0.7,12.4-7.7,21.1-17.2,28.2c-10.4,7.7-22.3,12.4-34.7,16.1c-5.3,1.6-10.7,2.9-16.1,4.3c0,6.9,6.6,14.6,13.7,15.9
		c7.4,1.3,14.6,0.1,21.1-3.2c14.5-7.4,27.2-17,36.5-30.7c7.1-10.3,10.7-21.8,10.1-34.5c-0.1-3.2-0.9-6.5-1.3-9.7
		c-1.7-10.9,6.7-21.6,19.3-21.9c8-0.2,14.8,4.5,17.8,13c1.7,4.9,2.6,10.1,3.6,15.2c2.5,12.8,4.8,25.4,7.1,38.1c0,0.2,0.2,0.5,0.5,1
		c0.5-0.9,0.9-1.5,1.2-2.1c5.3-10.3,10.3-20.7,15.8-30.8c5.9-10.4,13.6-19.4,23.9-25.9c9.4-6,19.9-8.7,31-8.1
		c7.5,0.4,14.7,2.3,21.5,5.6c8.5,4.3,12.6,11.6,14.6,20.5c2.1,9.2,2,18.5,0.5,27.7c-1.1,7.2-2.8,14.5-4.2,21.7c-1.1,6-1.2,12.1,1,18
		c2.6,7.1,8.8,11.6,16.3,12c9.1,0.5,17.5-1,24.9-6.6c3.6-2.7,6.1-6.1,7.6-10.4c1.7-4.9,0.6-9.2-3.2-12.6
		c-5.5-4.9-11.2-9.4-16.8-14.2c-6.3-5.3-10.9-11.8-12.4-20c-2.3-12.5,1.7-22.8,11.3-30.9c7.6-6.5,16.7-9.6,26.5-10.5
		c14.6-1.3,28.8-0.2,42.5,5.4c3.2,1.3,6.4,3.2,9.1,5.4c4,3.4,4.5,8.2,2,14.2c-2.1,4.9-5.9,7.7-10.8,7.6c-2.7-0.1-5.3-0.5-7.8-1.2
		c-7.4-2.1-14.8-3.4-22.6-2.9c-2.7,0.1-5.5,1.3-7.7,2.8c-4,2.8-3.9,7.6-0.1,10.5c3.1,2.3,6.4,4.3,9.7,6.4c8,5.2,15.8,10.5,22.2,17.9
		c2.9,3.4,5,7.2,6.5,11.8c2.7-1.3,5.4-2.6,8-3.9c0.4-0.2,0.5-1,0.6-1.5c1.2-17.3,7.1-32.9,17.5-46.5c10.5-13.7,24.5-22.7,41.7-25.6
		c10.9-1.8,21.7-0.9,32,3.6c12.9,5.6,19.5,16.3,19.1,30.3c-0.2,11.9-6.1,20.6-15,27.8c-10.4,8.6-22.7,13.5-35.4,17.4
		c-5.4,1.6-10.9,3.1-16.3,4.3c-1.5,0.4-1.6,0.9-1.2,2.1c2.5,10.5,11.4,16.1,22.1,14.6c11.4-1.6,20.5-7.7,29.3-14.5
		c2.6-2,5.2-4,8-5.6c3.3-1.8,6.9-2.1,9.9,0.6c3.2,2.8,4.4,6.5,3.1,10.4c-1.1,3.2-2.8,6.5-5.2,9c-12.4,12.8-26.5,22.8-44.4,26.5
		c-10.7,2.2-21.5,2.7-32.1-0.6c-15-4.7-24.8-14.5-30-29.2C729.4,221.7,729.3,221,728.9,220.1z M179.3,181.9
		c-0.1-6.5-0.7-12.8-4.4-18.1c-2.9-4.4-7.1-6.6-12.5-6.7c-5.6-0.1-9.9,2.7-12.9,7c-9.6,13.6-12.1,28.8-7.7,44.8
		c3.7,13.4,15.8,13.6,24,8c4-2.7,6.7-6.6,8.7-10.9C178,198.1,179.1,189.9,179.3,181.9z M297,157.7c-3.7-0.2-7.2-0.7-10.8-0.5
		c-7.7,0.6-14.6,3.2-19.4,9.7c-8.2,10.9-11.8,23.4-10.9,36.9c0.4,5.3,2.3,10.1,7.7,12.4c5.5,2.5,10.7,1.5,15-2.5
		c3.8-3.4,6.9-7.6,10.3-11.5c1.5-1.6,2-3.7,2.3-5.8C293.2,183.8,295.1,171,297,157.7z M386.7,188.6c11.6-3.1,22.4-6.7,30.9-15.2
		c2.6-2.6,4.4-5.5,5.3-9.1c1.8-7.2-2.5-12.9-9.9-12.8c-4.2,0-7.8,1.7-11.2,4.3c-4,3.3-6.9,7.5-9.2,12
		C389.6,174.2,387.8,181,386.7,188.6z M767.9,189.4c12-3.2,22.9-6.9,31.4-15.6c2.6-2.6,4.4-5.8,5.2-9.4c1.3-5.9-1.7-10.8-7.6-12
		c-5.3-1.1-9.7,1-13.6,4.2c-6.7,5.5-10.3,13.2-12.6,21.3C769.5,181.7,768.9,185.4,767.9,189.4z"/>
	<path class="st0" d="M612.1,109.1c-14.1,0-22.1-9.2-20.8-23.2c1.3-15.7,17.9-25.4,32.4-19.7c9.2,3.6,13.2,12.4,11.9,22.2
		c-1.6,11.4-8.1,18-19.3,20.5C614.8,109.1,613,109.1,612.1,109.1z"/>
</g>
<rect x="789" y="161.9" class="st1" width="63.1" height="55.9"/>
</svg>
