<?xml version="1.0" encoding="UTF-8"?>
<svg width="29px" height="24px" viewBox="0 0 29 24" version="1.1" xmlns="http://www.w3.org/2000/svg" xmlns:xlink="http://www.w3.org/1999/xlink">
    <!-- Generator: Sketch 46.2 (44496) - http://www.bohemiancoding.com/sketch -->
    <title>Favorite 2 Copy</title>
    <desc>Created with Sketch.</desc>
    <defs></defs>
    <g id="Page-1" stroke="none" stroke-width="1" fill="none" fill-rule="evenodd">
        <g id="REDISEÑO" transform="translate(-1395.000000, -1016.000000)" stroke="#1C1919" fill="#FFFFFF">
            <path d="M1419.28349,1017.65871 C1415.98881,1016.13261 1412.09579,1017.34985 1410.27347,1020.36397 C1410.27261,1020.36484 1410.27261,1020.36484 1410.27091,1020.36657 C1410.26664,1020.37609 1410.26152,1020.38647 1410.25384,1020.39425 C1410.25298,1020.39771 1410.25042,1020.40117 1410.24957,1020.40377 C1410.12495,1020.59842 1409.90388,1020.72819 1409.65294,1020.72819 C1409.40114,1020.72819 1409.18093,1020.59929 1409.05631,1020.40377 C1409.05375,1020.40117 1409.0529,1020.39771 1409.05034,1020.39425 C1409.04436,1020.38647 1409.03839,1020.37609 1409.03412,1020.36657 C1409.03412,1020.3657 1409.03412,1020.3657 1409.03241,1020.36397 C1407.21095,1017.34985 1403.31793,1016.13261 1400.02239,1017.65871 C1396.522,1019.2791 1395.02061,1023.38155 1396.66966,1026.82218 C1397.97132,1029.53697 1405.29901,1036.24953 1408.33421,1038.96258 L1408.33677,1038.96258 C1408.68331,1039.27317 1409.14508,1039.46436 1409.65294,1039.46436 C1410.15739,1039.46436 1410.61745,1039.2749 1410.96569,1038.96691 L1410.96569,1038.96691 C1413.99663,1036.25905 1421.33286,1029.53956 1422.63622,1026.82218 C1424.28612,1023.38155 1422.78559,1019.2791 1419.28349,1017.65871 L1419.28349,1017.65871 Z" id="Favorite-2-Copy"></path>
        </g>
    </g>
</svg>