<?xml version="1.0" encoding="utf-8"?>
<!-- Generator: Adobe Illustrator 19.2.1, SVG Export Plug-In . SVG Version: 6.00 Build 0)  -->
<svg version="1.1" id="Capa_1" xmlns="http://www.w3.org/2000/svg" xmlns:xlink="http://www.w3.org/1999/xlink" x="0px" y="0px"
	 viewBox="0 0 120 70" style="enable-background:new 0 0 120 70;" xml:space="preserve">
<style type="text/css">
	.st0{fill:#FFFFFF;}
	.st1{fill:#F34D4D;}
</style>
<title>Group + Oval 6</title>
<desc>Created with Sketch.</desc>
<g id="primera-vez-deviser">
	<g id="BECOMEADEVISER" transform="translate(-635.000000, -549.000000)">
		<g id="Group-6" transform="translate(217.000000, 509.000000)">
			<g id="iconos">
				<g id="Group-_x2B_-Oval-6" transform="translate(416.389503, 40.000000)">
					<g id="Group_1_">
						<g id="noun_5132">
							<g id="Calque_2">
								<g id="Group">
									<polygon id="Shape" class="st0" points="1.7,10.9 1.7,10.5 3.6,9.6 3.6,9.3 3.1,9.2 3.1,8.7 3.6,7.6 4.5,7.5 6.1,7 
										6.5,5.7 8.5,4.7 9.9,4.7 12.2,4.1 12.6,4.1 14.5,5.1 17.2,5.6 19.9,5.6 21.6,6.9 22.2,7 22.9,6.7 23.5,6.7 25.9,7.6 
										27.2,7.1 27.3,6.9 27,6.2 27.6,5.8 28,5.8 28.1,6 28.2,6.8 29.5,7.1 29.6,6.8 30,6.7 30.3,7.1 30.2,7.5 29.6,8.2 27.6,8.3 
										26.4,9.2 24.5,9.7 23.9,10.5 23.3,11.6 23.1,12.4 24,13 24.7,13.7 25.3,13.8 25.3,14.2 24.9,15 24.9,15.6 25.7,15.5 
										26.6,13.9 27.6,13.3 27.7,12.5 29.2,10.4 30.5,10.3 31.2,11.4 31.1,11.7 31,12 31.9,12.2 32.5,11.4 32.7,11.4 32.9,13 
										33.7,14.9 33.8,15.4 33.5,16 31.7,16.8 31.1,16.8 30.9,16.6 29.5,16.7 27.5,17.8 27.5,18.1 27.7,18.1 29,17.4 30.1,17.4 
										30,17.6 29.7,17.9 29.7,18.6 30.5,19 30.5,19.4 29.3,19.7 29,19.9 29,20.1 28.7,20.1 28.7,19.8 29.2,19.5 29.2,19 
										28.3,19.3 26.9,20.1 26.4,20.9 25.4,21 24.4,22.4 24,22.9 23.6,23 23.8,22.4 23.5,22.4 23,23.9 21.6,24.9 20.7,26 
										20.5,27.2 20.3,28.6 20.2,29.1 19.9,29.1 19.5,28.2 19.5,26.7 18.9,26.4 18,26.4 17.4,26.6 17.3,27.1 16.7,27.1 16,26.8 
										14.8,26.8 13.6,27.9 12.9,29.3 12.6,30.9 13,31.9 13.3,32.4 14.7,32.5 15.4,31.4 16.9,31.2 16.9,31.7 15.8,33.7 15.7,34 
										17.8,34.1 17.5,36 17.5,36.8 17.9,37 18.1,37.5 18.6,37.7 19,37.5 19.4,37.3 19.7,37.5 19.9,37.8 20,38 20.3,38 20.8,36.8 
										21.4,36.6 22.1,36.2 22.6,35.9 22.8,35.9 22.8,36.2 22.5,36.4 22.4,36.8 22.3,37 22.2,37.4 22.5,37.6 22.9,37.5 22.9,36.6 
										23.1,36 23.5,36.1 24.5,36.9 25.3,37.1 25.8,36.9 26.2,36.8 26.4,36.9 26.8,37.5 27.3,38 27.8,38.4 28.4,39.1 30,39.5 
										30.5,40 31,40.6 31.3,41.5 31.1,42.1 30.8,42.5 30.6,42.8 30.6,43 30.9,43.1 30.9,42.8 31.5,42.5 31.7,42.4 32,42.4 
										32.1,42.6 32.1,42.8 32,43.1 31.7,43.2 31.5,43.2 31.5,43.3 31.5,43.5 32,43.5 32.3,43.2 32.5,42.7 32.8,42.6 33.2,43.1 
										33.7,43.3 34.9,43.8 35.8,43.9 37.1,44.7 37.7,44.7 38,46.5 36.4,48.7 36.6,49.7 36.6,50.9 36,52.6 35.8,53.7 34.4,54.3 
										33.2,55 33,56.8 32.6,58.1 32.1,59.4 31.6,60.1 31.2,60.1 30.2,59.5 29.8,59.5 30.9,60.8 30.5,61.5 30.1,62 29.5,62 
										29,62.2 29,62.5 29.3,62.6 29.1,63.1 28.5,63.3 28.4,63.3 28.4,63.6 28.9,64.1 28.7,65 28.2,65.8 29.2,66.5 29.2,66.9 
										29,67.3 29,68.2 29.2,68.9 28.9,69.5 28.9,69.8 28.6,69.8 28,69.4 27.9,68.9 27.5,68.8 26.2,66.5 25.9,66.4 25.7,66.3 
										25.8,66 26.1,65.8 26.1,65.4 25.6,63.8 24.7,63.3 24.7,62.9 24.6,62.2 24.4,61.8 24.5,60.6 24.6,60.5 24.6,59.1 24.3,58.5 
										24.2,57 24.1,56.3 24,55.5 23.9,54.6 23.8,53.8 23.8,53 23.6,52.2 23.4,51.9 22.4,51.1 21.9,50.6 20.9,49.5 20.3,48.8 
										19.9,48.1 19.5,47.2 19.3,46.7 19,46.1 18.2,45.6 18.2,44.5 18.7,44 18.7,43.7 18.3,43.7 18.3,43.1 18.6,41.9 19.7,40.7 
										19.7,39.2 19.7,38.6 19.5,38.1 19.3,38 19.1,38 18.9,38.1 18.9,38.6 18.4,38.6 17.5,37.9 16.8,37.4 16.5,37 16.4,36.5 
										16.1,35.9 15.9,35.4 15.3,35.4 14.5,34.9 14.2,34.6 13.9,34.4 13.6,33.9 13.2,33.7 13,33.9 12.6,34.1 10.9,33.2 10.1,32.7 
										9.4,32.1 9.1,31.5 9.2,31.1 9.1,29.9 8.4,28.4 7.9,27.2 7.7,26.3 7.7,25 7.6,24.3 7.5,24.3 7.3,24.8 7.1,25.7 7,26.3 
										7.2,26.9 7.6,28.3 7.9,29.5 8,29.8 7.6,29.8 7.3,29.1 6.9,28.4 6.6,27.7 6.5,27.2 6.8,26.4 6.6,25.9 6.5,25.2 6.4,24.8 
										6.3,24.1 5.7,23.4 5.7,22.4 5.8,21.3 6.3,20.2 7.5,18.2 8.2,16.8 8.8,16.1 9.2,16.1 9.3,16.4 9.5,16.4 9.5,16 9.7,15 
										9.4,14.4 9.5,13.6 9.9,12.3 10.3,11.2 10.5,10.7 10.5,10.4 10.3,10.4 10.1,10.5 9.7,10.5 9.6,10.3 9.5,10 9.4,9.7 8.9,9.6 
										8.3,9.2 8.1,9 7.8,9 7.5,9.2 7.1,9.4 6.8,9.6 6.5,9.6 6.1,9.6 6,9.4 6.3,9.2 6.6,9 6.9,8.8 7.2,8.6 7.2,8.4 7,8.4 6.2,8.7 
										3.5,10.1 2.3,10.7 1.9,10.9 									"/>
									<polygon id="Shape_1_" class="st0" points="8.6,14.9 8.5,14.5 9,14.5 9.1,14.8 9.4,15.2 9.4,15.8 9.2,15.8 8.9,15.5 
										8.9,15 									"/>
									<polygon id="Shape_2_" class="st0" points="22.4,19.7 22.7,19.7 23.1,19 23.3,19 23.5,19.2 23.7,19.2 23.7,18.8 23.3,18.2 
										22.7,18.1 22.5,17.9 22.4,17.2 22,16.7 21.3,16.9 20.2,17.4 20.2,17.7 20.6,17.8 21.2,17.7 21.8,17.8 22.2,18 22.3,18.3 
										21.2,18.4 20.8,18.7 20.6,19.3 20.2,20 20.3,20.4 20.9,19.9 21.1,19.3 21.6,18.9 22,18.7 22.4,18.9 									"/>
									<polygon id="Shape_3_" class="st0" points="21.8,20.6 21.8,20.3 22.4,20.2 23,20.1 23.6,19.9 24.2,19.8 24.6,19.6 25,19.5 
										24.9,19.8 24.4,20.1 23.5,20.2 23.3,20.4 22.3,20.7 									"/>
									<polygon id="Shape_4_" class="st0" points="32,17.4 33.5,16.3 33.8,16.2 33.9,16.4 33.7,17 33.9,17.3 34,18.1 33.9,18.7 
										33.3,18.4 32.8,18.1 32.2,18.1 32,17.6 									"/>
									<polygon id="Shape_5_" class="st0" points="39.8,0.7 39.9,0.9 38.8,1.6 37.6,1.7 36.4,2.1 35.2,3.3 34.6,3.4 33.8,3.4 
										33.4,3.1 33.4,2.7 34,2.2 35,1.8 36,1.5 36,1.2 35.2,1.1 34.1,1.2 33.5,1.1 33.5,0.8 34.4,0.7 35.3,0.4 36.3,0.4 36.9,0.7 
										37.7,0.7 38.5,0.7 39.5,0.6 									"/>
									<polygon id="Shape_6_" class="st0" points="27.4,9.7 27.1,9.4 27.1,9.1 28,8.6 28.4,8.6 28.7,8.8 28.7,9.3 28.8,9.5 
										28.9,9.8 28.6,9.8 28.4,9.5 28,9.4 27.8,9.5 27.7,9.7 									"/>
									<polygon id="Shape_7_" class="st0" points="20.7,5.1 21.6,5.1 22.1,4.5 23.5,4.1 23.5,3.9 22.7,3.4 21.9,3.7 21.2,4.3 
										20.5,4.9 									"/>
									<polygon id="Shape_8_" class="st0" points="24.7,3.4 24.7,4 26.2,4 26.8,3.8 27.2,3.4 27,2.9 26.6,2.9 26.3,3.4 26.2,3.4 
										26.1,3.3 25.7,2.9 25.3,3 									"/>
									<polyline id="Shape_9_" class="st0" points="22.2,5.5 22.2,5.2 23.2,4.6 23.8,4.5 24.8,4.9 25.4,5.1 25.4,5.5 25.1,5.8 
										25.2,6 25.3,6.2 25.2,6.4 24.7,6.4 24.4,6.7 24,6.6 23.6,6.4 22.7,6.4 21.8,6.5 21.3,6.1 21.4,5.8 22.2,5.7 22.7,5.9 
										22.7,5.6 22.3,5.5 									"/>
									<polygon id="Shape_10_" class="st0" points="26.4,4.8 27.3,4.3 28.2,4.5 28.1,4.8 27.8,5.3 27.4,5.7 26.8,5.6 26.4,5.3 
																			"/>
									<polygon id="Shape_11_" class="st0" points="28.3,5 28.4,5.4 28.7,5.4 29.3,5.2 30,4.8 30,4.5 29.2,4.5 28.8,4.6 									
										"/>
									<polygon id="Shape_12_" class="st0" points="28.3,3.4 28.4,4.1 28.7,4.1 29.3,3.7 29.3,3.4 29,3.2 28.7,3.1 28.4,3.2 
																			"/>
									<polygon id="Shape_13_" class="st0" points="30.1,3.3 30.4,4 31.5,4.3 33.5,4.3 33.3,3.9 31.4,3.9 30.8,3.1 									"/>
									<polygon id="Shape_14_" class="st0" points="29.7,6.1 29.6,5.5 30.8,4.7 31.5,4.7 32,4.7 32,4.9 31.9,5.1 32.2,5.5 
										33.1,5.3 33.5,5.7 34.3,6.1 34.7,6.7 34.6,7 34.3,7.3 34.3,7.5 35.5,8.3 35.5,8.6 34.3,9.3 33.9,9.1 33.6,8.6 33.5,8.7 
										33.4,9.4 32.8,10.6 32.5,10.7 32.1,10.4 31.1,9.4 30,9.4 29.7,9.2 30.3,8.6 30.6,8.6 31.2,8.6 32.5,7.4 32.9,7 32.7,6.7 
										31.5,6.6 30.5,6.4 									"/>
									<polygon id="Shape_15_" class="st0" points="18,30.8 18,30.6 18.5,30.3 20.2,30.4 22.1,31.7 22.1,32 22.1,32.1 20.7,32.1 
										20.8,31.8 20.6,31.6 20.1,31.3 19.8,30.8 									"/>
									<polygon id="Shape_16_" class="st0" points="20.1,32.7 20.8,32.7 20.8,33.1 20.3,33.1 20.1,33 									"/>
									<polyline id="Shape_17_" class="st0" points="21.7,32.8 21.8,32.9 22.4,33 22.9,33 23.1,33.1 23.5,32.9 24.4,32.8 
										24.4,32.5 23.9,32.5 23.4,32.1 22.7,32.2 22.4,32.3 22.5,32.7 21.8,32.7 									"/>
									<polygon id="Shape_18_" class="st0" points="25.1,32.8 25.5,32.8 25.7,33.1 25.1,33.2 24.8,33 									"/>
									<polygon id="Shape_19_" class="st0" points="26.9,34.4 27.2,34.4 27.2,35.2 26.9,35.2 26.9,34.8 									"/>
									<polygon id="Shape_20_" class="st0" points="45.6,0.1 48.9,0.2 48.9,0.5 48.5,0.7 47.9,0.8 47.9,1 48.2,1.2 48.8,1.4 
										49.2,1.8 49.7,1.6 50.2,1.3 51.1,1.4 51.7,1.4 51.7,1.7 51.3,1.8 50.4,2.2 50.3,2.4 49.4,2.9 48.5,3.6 48.5,4.3 49.3,4.7 
										49.3,4.9 48.8,5.6 48.4,6 48,6 47.8,5.8 47.4,6 47.5,6.4 47.9,6.7 47.9,7 47.4,7 47.2,6.8 47,6.8 47,7.1 47.5,7.4 
										47.9,7.4 47.8,7.8 46.8,7.9 45.2,8.1 43.4,8.8 41.9,9.3 39.9,11.8 39.5,12 38.9,11.4 38.2,11 38.2,9.2 39.1,7.8 39.8,6.7 
										39.4,5.7 39.1,4.4 38.3,3.8 37.7,3.8 37.1,3.8 37.1,3.2 37.5,2.9 37.8,2.9 38.5,2.9 38.8,2.7 38.8,2.2 42.5,0.7 43.1,0.6 
										43.7,1 45.1,0.9 									"/>
									<polygon id="Shape_21_" class="st0" points="46.7,9.3 47,8.9 47.4,8.9 47.6,9.4 48,9.4 48.4,9.2 49.3,9 49.6,9.4 
										49.5,10.1 48.8,10.5 47.7,10.4 47,10.2 47,9.9 46.8,9.8 									"/>
									<polygon id="Shape_22_" class="st0" points="49.9,16.6 50.1,16.2 49.9,16.1 50.1,15.7 50.5,15 51,14.8 51.5,14.8 
										51.7,14.8 51.5,15.4 51.2,16 50.7,16.7 50.5,16.7 50.3,16.5 50.1,16.6 									"/>
									<polygon id="Shape_23_" class="st0" points="52.8,12.9 52.8,13.1 52.7,13.3 53,13.4 53.2,13.8 52.8,14 52.9,14.3 
										53.2,14.8 53.4,15.4 53.7,15.9 54.2,16 54.2,16.3 53.8,16.7 53.1,17 52.2,17.1 51.5,17.2 51.5,17 52,16.8 52,16.6 
										51.9,16.4 52.1,15.9 52.6,15.5 52.7,15 52.3,14.9 51.8,14.3 51.8,13.6 52.1,13 									"/>
									<polygon id="Shape_24_" class="st0" points="49.8,23.7 49.8,21.2 49.9,20.7 50.4,20.5 51.2,20.5 52,20.7 52.4,20.8 
										52.8,20.5 52.7,20.2 52.9,19.8 52.9,19 52.4,18.7 51.9,18.5 51.8,18.3 51.7,18 52.5,18 52.6,17.7 52.5,17.5 52.8,17.4 
										53,17.7 53.5,17.7 54.3,16.8 54.7,16.7 54.9,16.3 55.2,16.2 55.3,16.5 55.4,16.5 55.4,15.7 55.9,15.6 56.5,15.4 56.6,14.9 
										56.6,14.1 56.5,13.7 56.9,13.5 57.2,13.4 57.3,13.8 57.3,14.3 57.1,14.6 57.1,15 57.4,15.1 58.1,15.2 58.5,15.2 59,15 
										59.4,15 60,14.9 60.3,15 60.6,15 60.7,14.4 61,13.8 61.2,13.5 61.5,13.5 61.6,13.6 61.9,13.5 61.9,13.2 61.8,12.7 
										62.6,12.6 63,12.6 63.5,12.3 63.3,12 63.2,12 62.7,12 62.4,12.1 62,12.3 61.4,12.3 60.9,11.2 60.9,10.8 61.4,10.3 
										61.7,9.9 61.7,9.3 61.5,9.3 61.2,9.2 60.8,9.6 60.4,10.1 60.4,10.4 59.9,10.7 59.6,11.5 59.8,12 59.8,12.5 59.4,13.1 
										59.2,13.7 59.2,14 58.9,14.2 58.7,14.4 58.5,14.6 58.1,14.6 58,14.2 57.9,13.7 57.6,13.5 57.6,13 57.4,13 57.4,12.7 
										57,12.9 56.8,13 56.6,13.2 56.1,13.2 55.9,12.8 55.9,11.5 56.5,11.1 57,10.6 58.1,9.6 58.9,8.8 60,7.8 61.7,6.6 62.5,6.6 
										63.2,6.9 63.7,7.1 64.8,7.6 65.9,8.3 66.2,8.3 66.4,8.6 66.5,8.7 66.5,9.1 66.4,9.3 65.9,9.3 65.3,9.1 64.8,8.9 64.3,8.7 
										64.3,9.2 64.6,9.5 65,9.7 65.7,10.3 66.1,10.3 66.8,9.5 67.1,9.5 67.5,9.1 67.6,9.3 68,9.3 68,8.8 67.7,8.6 67.7,8.3 
										67.5,8.2 67.5,7.8 67.7,7.8 68.2,8.1 68.2,8.6 68.5,8.6 69.2,8.4 70.1,8 70.9,7.8 72,7.5 73.1,7.4 73.7,7.7 74.2,7.7 
										74.2,7.4 73.8,6.9 73.6,6.8 73.5,6.4 74.2,5.7 74.3,5.5 74.9,5.5 75,5.6 75,6.2 76.1,7.7 76.1,8.2 75.6,8.4 75.5,8.7 
										76.1,8.7 76.5,8.3 76.5,7.7 77.1,7.7 77.3,7.6 77.3,7.3 76.4,7.1 75.8,6.7 75.5,6 76.9,5.3 77.5,4.8 78.2,4.1 80.2,3.5 
										80.9,3.4 83.9,3.4 84.4,3.5 84.3,3.9 83.6,4.8 83.7,4.9 83.9,4.9 85,4.4 86.3,4.3 90.6,5.1 91.1,5.2 92.2,5.1 92.4,4.6 
										92.6,4.3 93.3,4.3 95.1,4.8 96.8,4.7 98.1,4.6 99.4,5.1 100.5,5 101.8,4.5 102.9,4.5 105.5,4.8 107.3,5.3 108.3,5.5 
										108.8,6 108.8,6.2 108.4,6.2 107.8,6.1 107.4,6.1 107.1,6.1 106.9,6 106.6,6.1 106.6,6.6 107.3,6.9 108,7.1 108.3,7.3 
										108.2,7.6 107.5,8.7 107.5,8.9 106.5,9 106,9.3 106.2,9.8 107.1,10.6 107.9,11.9 108.2,13 108.2,13.7 108,13.7 107.5,13.2 
										106.7,12.4 105.7,11.5 104.9,11 105,10.3 105.3,9.9 105.1,9.1 104.8,8.5 104.6,8.5 104.3,8.8 104.2,8.8 103.9,8.7 
										103.5,8.7 103.5,9.3 103.7,9.9 103.2,10.3 102.4,10.4 101.6,10.5 100.9,10.5 100.1,10.7 99.9,10.9 100,12.5 100.6,13.2 
										100.9,13.2 101,13 101.4,13 102,13.5 102.7,14.4 103.3,15.4 103.6,16.3 103.9,17.5 103.9,18.7 102.8,19.1 102.6,20.1 
										102.5,20.9 103,21.6 103.6,22.5 103.8,22.7 103.8,23.1 103.3,23.4 103,23.6 102.9,23.2 102.5,22.5 102.2,21.9 101.7,21.6 
										101,20.9 100.8,20.9 100.4,21.3 100,21.2 100,20.7 100.1,20.6 99.6,20.5 98.9,21.2 98.9,21.6 99.4,22.1 100.3,22.1 
										100.8,22.3 100.7,22.6 100.5,22.7 100.5,23.2 101.4,24.7 101.9,25.7 101.6,25.8 101.9,26.1 102.2,26.4 102.2,28.1 
										101.7,28.7 100.5,30 99.4,30.7 99,31.3 98.7,31.3 98.6,30.9 98.3,30.6 97.8,30.8 97.3,32 97.4,32.5 98.5,33.4 99.2,34.2 
										99.2,35.7 98.9,36.3 98.6,36.7 98.1,37.2 97.9,37.5 97.6,37.5 97.6,37.1 97.4,36.8 97,36.6 96.6,36.2 96.6,35.7 96.2,35.6 
										95.9,35.4 95.7,35.1 95.3,35.1 95.5,36.3 95.5,37.2 95.9,38.1 96.3,38.8 96.8,39.5 97.2,40.3 97.4,40.8 97.3,41.1 97,41.2 
										96.6,40.7 96.4,40.7 95.7,39.1 95.3,38.6 94.7,38 94.6,36.3 94.6,35.2 94.2,34.2 93.8,33.2 93.6,33.3 93.3,33.7 92.9,33.8 
										92.5,33.6 92.7,32.6 91.8,31.7 91.4,31.3 91.3,31 91.3,30.3 90.8,30.3 90.4,31 90,30.9 89.8,30.7 89.4,30.9 89,31.8 
										88.4,32.5 87.9,33.2 87.1,34.3 86.8,35.8 86.7,36.8 86.4,38.2 86.1,38.1 85.7,37.9 85.3,36.9 84.8,35.9 83.9,33.9 
										83.5,32.5 83.5,31.1 83.1,31.1 83,31.7 82.7,31.8 82.3,31.6 81.7,30.9 81.4,30.5 81.2,30.1 80.7,29.6 77.9,29.6 77.4,29.4 
										76.8,29.2 76.8,28.7 76.5,28.5 76,28.5 75.7,28.8 75,28.8 74.6,28.4 73.8,27.7 73.4,27.2 72.9,27.3 72.6,27.6 72.7,27.8 
										73.3,28.3 73.5,28.8 73.8,28.9 73.9,29.3 74.1,29.3 74.4,29.2 74.6,29.4 74.6,30 75,30.1 75.6,30.1 75.8,29.8 76.1,29.3 
										76.6,29.3 76.5,29.9 76.6,30.2 77,30.4 77.5,30.5 77.7,30.6 77.9,30.9 77.4,32.2 76.8,33 76.2,33.6 75.7,33.9 74.9,34.4 
										74.3,35 73.8,35.4 72.2,35.7 71.7,35.9 71.2,35.1 71,34.7 70.8,33.2 69.6,31.7 67.9,28.9 67.4,27.7 67.2,27.9 67.1,27.9 
										67,27.8 66.6,27.7 66.7,28.2 67,28.9 67.8,30.6 68.5,31.7 68.6,32.5 69.5,33.5 69.8,34.5 70,34.7 70.7,35.3 71.3,36 
										71.3,37 71.7,37 72.6,36.8 74,36.3 74.7,36.2 74.8,36.5 73.4,39.8 72.3,41.4 70.9,42.8 69.8,44.1 69.7,45.7 70.2,48.8 
										70.3,49.6 69.3,50.6 68.3,51.5 67.5,52.2 67.7,53.3 67.7,54.4 66.7,55.1 66.7,55.5 65.9,56.9 64.8,58.2 63.9,58.8 63.1,59 
										62,59.2 61.4,59.7 61.1,59.6 61,59.4 60.4,58.9 60.3,57.7 59.2,55.8 58.9,54.1 58.8,53.3 57.9,51.3 57.9,49.5 58.7,47.9 
										58.4,45.6 57.7,44.3 56.6,42.6 56.8,41.7 57.1,40.9 57.1,40.3 56.5,40.2 55.8,40.2 55,39.2 54.2,39.2 52.5,39.7 50.3,40.4 
										49.5,40.2 47.6,38.2 46.2,36.5 45.8,35.5 45.8,34.4 46.1,33.3 46.1,32.1 46.2,31.2 47.3,29 47.9,28.3 48.3,28.3 49.2,27.2 
										49.3,26.5 49.5,26.1 50.2,25.6 50.5,25.2 51,24.5 51.3,24.5 51.7,24.7 52.2,24.7 53.5,24.2 54.5,24 55.1,23.8 55.8,23.7 
										56.6,23.7 57.7,23.7 57.6,24.3 57.4,24.9 57.5,25.2 57.9,25.6 58.4,25.8 59.1,25.9 59.4,25.9 59.5,26.5 60.1,26.8 61,27 
										61.3,27 61.4,26.7 61.2,26.7 61.2,26.3 61.7,26 62.4,25.8 62.8,26.1 63.3,26.5 64,26.9 64.6,26.9 65,26.7 65.7,26.6 
										66,26.6 66.4,26.6 66.6,26.8 66.9,26.3 67,25.9 67.2,25.2 67.2,24.8 67.2,24.2 67.4,24.1 67.4,23.9 66.5,24 65.9,24 
										65.2,24.1 64.4,24.1 64.1,23.8 63.9,23 63.7,22.3 64.1,22.3 64.3,22 64.5,21.9 64.8,21.9 65.4,21.8 65.6,21.6 65.9,21.4 
										66.1,21.2 66.7,21.2 67.1,21.4 67.6,21.5 68,21.6 68.5,21.6 69.2,21.6 69.2,21.2 69.3,20.9 69,20.7 68.8,20.7 68.4,20.4 
										68.2,20.2 67.7,19.9 67.5,19.7 67.5,19.3 67.9,19 68.1,18.9 68.1,18.7 67.8,18.6 67.6,18.7 66.7,19.2 66.9,19.4 66.9,19.7 
										66.5,20 66.2,20 65.9,19.7 65.7,19.1 65.6,18.9 65.3,19 64.7,19.2 64.4,20.1 64.1,20.7 64.1,21.3 64.3,21.6 63.8,22.1 
										63.4,22.1 63.2,21.9 62.5,22 62.4,22.4 62.4,22.9 62.4,23.2 62.4,24 61.8,24.1 61.5,23.8 61.5,23.2 61.8,23.1 61.4,22.9 
										61.1,22.5 60.8,21.8 60.4,21.3 59.9,21 59.2,20.3 58.8,20.1 58.6,19.9 58.4,19.6 58.2,19.6 58.1,20 58.3,20.2 58.6,20.7 
										58.6,20.9 59.1,21.2 59.6,21.3 59.6,21.7 60.1,22 60.4,22.3 60.5,22.6 60.4,22.6 60.2,22.4 60,22.4 59.9,23.2 59.8,23.4 
										59.6,23.4 59.6,22.8 59.3,22.4 58.9,22 58.5,21.7 58.1,21.7 57.7,21.5 57.3,20.8 57.1,20.4 56.8,20.2 56.5,20.3 56,20.9 
										55.6,20.9 55.3,20.7 54.8,20.9 54.7,21.4 53.5,22.4 53,23.4 52.5,24.2 52.2,24.2 51.8,24 51.4,24.1 50.9,24.2 50.4,24 
										50.1,23.9 									"/>
									<polygon id="Shape_25_" class="st0" points="56.8,20.6 56.5,21 56.6,21.4 56.6,21.6 56.9,21.6 57,21.4 57,21 									"/>
									<polygon id="Shape_26_" class="st0" points="56.5,22.1 56.6,21.9 57,21.8 57,22 56.9,22.4 57,22.4 56.8,22.7 56.6,22.8 
										56.5,22.7 56.4,22.3 									"/>
									<polygon id="Shape_27_" class="st0" points="58.2,23.3 58.2,23.5 58.7,23.8 59,24.1 59.4,24 59.5,23.5 59.2,23.3 
										58.9,23.3 									"/>
									<polygon id="Shape_28_" class="st0" points="62.4,24.7 62.4,24.5 62.9,24.7 63.7,24.6 63.7,24.8 63.3,25 63.1,24.9 
										62.8,24.8 									"/>
									<polygon id="Shape_29_" class="st0" points="66,24.9 66.3,24.5 67,24.3 67,24.6 66.8,24.9 66.4,25.1 66.2,25.1 									
										"/>
									<polygon id="Shape_30_" class="st0" points="69.4,5.5 69.2,6.4 70.1,6.6 70.3,6.8 71.1,6.7 71.1,6.6 70.5,6.4 70.4,6.2 
										70.2,5.4 									"/>
									<polygon id="Shape_31_" class="st0" points="69.7,5.2 70.4,5.2 70.7,4.9 70.9,4.9 71.3,4.6 71.7,4.6 72.5,4 72.5,3.4 
										72.3,3.4 71.5,4.1 71.1,4.1 70.5,4 70.2,4.4 70,4.7 69.7,4.7 									"/>
									<polygon id="Shape_32_" class="st0" points="102.2,13 102.3,12.8 102.6,12.8 102.8,13 103.2,13.6 103.7,14.1 103.9,14.1 
										104.7,15 105.1,15.2 105,15.3 104.9,15.6 105.2,16.2 105.5,16.4 105.8,16.6 105.8,17 105.6,17 105.6,17.1 105.3,17.1 
										105,16.4 104.6,16.1 104.3,15.7 103.8,15 103.2,14.3 102.6,13.4 									"/>
									<polygon id="Shape_33_" class="st0" points="105.7,17.8 105.7,17.6 106.1,17.5 106.3,17.6 106.7,17.6 107.1,17.7 
										107.3,17.8 107.7,18 107.7,18.4 107.4,18.7 107.3,19 107,19 106.8,18.8 106.5,18.8 106.5,19.3 106.2,19.3 106,19 
										105.8,18.7 105.9,18.5 106,18.2 106,18.1 									"/>
									<polygon id="Shape_34_" class="st0" points="106.4,19.6 106.8,19.6 107.2,19.9 107.6,20.7 107.9,21.5 108.1,22.1 108,23 
										107.4,23 107.1,22.7 106.4,22.7 105.8,23.1 105.8,23.7 105.4,23.9 105,23.8 104.9,23.5 105.3,23 106.3,22.3 106.3,21.7 
										106.5,21.7 106.9,21.9 107.1,21.2 106.8,20.9 106.5,20.1 									"/>
									<polyline id="Shape_35_" class="st0" points="104.8,24.5 105.2,24.5 105.2,24.7 105.3,25.1 105.5,25.4 105.8,25.4 106,25 
										105.7,24.6 105.5,24.1 105.1,24 104.8,24.1 104.8,24.4 									"/>
									<polygon id="Shape_36_" class="st0" points="106.1,23.6 106.5,23.5 106.8,23.4 107.1,23.1 106.8,22.9 106.4,23 106.1,23.2 
																			"/>
									<polygon id="Shape_37_" class="st0" points="91.3,13.6 91.5,13.4 91.6,13.6 91.6,14.5 91.4,15 91.2,15.3 90.8,15.4 
										90.8,15.1 91.2,14.8 91.4,14.3 									"/>
									<polygon id="Shape_38_" class="st0" points="73.3,19.4 73.1,19.4 73,19.7 72.8,19.8 72.6,20 72.6,20.2 72.9,20.4 
										73.4,21.1 73.4,21.8 73.8,22.2 74.1,22.6 74.3,23.2 74.5,23.5 74.5,23.8 74.1,24 73.8,24 73,23.6 72.4,23.4 72.4,22.7 
										72.7,21.9 72.1,21.2 71.2,20.2 71.1,19.6 71.8,19.1 72.7,18.8 73,18.7 73.3,18.7 73.5,18.9 73.5,19.2 									"/>
									<polygon id="Shape_39_" class="st0" points="76,18.6 76.5,18.6 76.6,18.7 76.7,19.5 76.4,20 76.1,20.1 75.6,20.1 
										75.5,19.6 75.5,19.1 75.8,18.8 									"/>
									<polygon id="Shape_40_" class="st0" points="80.9,18.7 80.7,18.8 80.7,19 80.9,19.1 81.1,19.3 81.3,19.3 81.4,19 
										81.4,18.8 82,18.8 82.5,18.7 83,18.6 83,18.4 82.6,18.4 82.4,18.5 82.2,18.4 81.9,18.3 81.6,18.2 81.3,18.2 81.1,18.4 
																			"/>
									<polygon id="Shape_41_" class="st0" points="66.6,42.2 67.2,42 67.5,42 67.9,42.1 67.8,42.3 67.7,42.6 67.4,42.9 
										67.4,43.5 67,43.6 66.5,43.2 									"/>
									<polygon id="Shape_42_" class="st0" points="65.6,44.4 65.5,45.4 65.9,46.2 66.2,46.2 66.2,45.7 65.9,45.1 65.9,44.7 
										65.8,44.4 									"/>
									<polygon id="Shape_43_" class="st0" points="67.2,47.1 67.5,47 67.5,47.5 67.7,48.5 67.7,49.3 67.5,49.2 67.4,48.9 
										67.3,48.3 67.3,47.6 									"/>
									<polygon id="Shape_44_" class="st0" points="71.5,52.1 71.5,51.5 71.4,51.4 71.6,50.5 72.3,50 72.7,49.7 73,49.1 
										73.9,48.2 74.1,48.1 74.1,48.8 74.1,50.2 73.3,52.6 72.7,54.5 71.9,54.8 71.4,54.8 71,54 71,53.3 									"/>
									<polygon id="Shape_45_" class="st0" points="76.1,52.5 76.1,52.8 76.4,52.9 76.7,52.9 76.7,52.7 76.4,52.5 									"/>
									<polygon id="Shape_46_" class="st0" points="77.2,52 77.4,52 77.4,52.3 77.3,52.5 77.1,52.5 									"/>
									<polygon id="Shape_47_" class="st0" points="102.9,28.6 103.2,28.5 103.4,29.1 103.4,29.4 103.6,30.2 103.3,30.2 
										102.9,29.9 102.7,29.3 									"/>
									<polygon id="Shape_48_" class="st0" points="103.4,32 104,32 104.5,32.6 104.2,33.3 104.5,34.2 105.1,34.4 105.6,34.8 
										105.7,35.1 105.4,35.1 104.8,34.6 104.1,34.6 103.5,33.7 103.4,33.3 103.5,33 103.5,32.4 									"/>
									<polygon id="Shape_49_" class="st0" points="87.2,37.1 87.7,37.9 88.1,38.3 87.8,39 87.2,39.1 86.8,38.5 86.9,37.9 
										87.1,37.3 									"/>
									<polygon id="Shape_50_" class="st0" points="94,39.3 95.5,40.5 96.9,41.9 97.8,42.9 98.3,43.5 98.2,44.2 98.2,44.8 
										97.6,44.9 96.6,43.9 95.5,42.1 94.6,40.9 93.9,39.9 93.7,39.9 93.6,39.5 									"/>
									<polygon id="Shape_51_" class="st0" points="97.7,45.6 97.9,45.2 98.6,44.9 99.2,45.2 100.3,45.3 100.9,45.6 101.6,46.2 
										101.8,46.8 101.4,46.7 100.9,46.4 100.3,46.4 99.7,46.2 98.6,45.9 98.2,45.6 									"/>
									<polyline id="Shape_52_" class="st0" points="103.9,36.1 103.8,36.7 103.5,37.2 103.2,37.2 103.2,36.8 103.5,36.5 
										103.6,36.1 103.9,36.1 									"/>
									<polygon id="Shape_53_" class="st0" points="104.9,35.7 105.4,35.7 105.4,36 105.2,36.3 104.9,36.4 104.8,36 									"/>
									<polygon id="Shape_54_" class="st0" points="104.4,37.6 104.6,37.2 104.9,37.1 105.1,37.1 105.3,37 105.5,36.7 105.8,36.7 
										105.9,37 106.1,37.4 105.6,38.2 105.1,38.2 105,37.8 104.9,37.7 104.5,37.7 									"/>
									<polygon id="Shape_55_" class="st0" points="103.1,38.5 103.4,38.8 103.6,39 103.8,39.4 103.4,39.8 103.2,40.5 103.6,40.9 
										103.8,41.5 103.3,42 102.8,43 102.4,44 102.2,44.2 101.7,44.2 100.2,43.5 99.9,42.6 99.7,41.7 99.7,41.2 99.9,41.2 
										101.1,40.4 101.9,39.5 102.3,39 102.4,38.5 									"/>
									<polygon id="Shape_56_" class="st0" points="102.3,46.8 102.5,46.5 102.7,46.4 103.4,46.4 103.5,46.6 103.2,46.8 									
										"/>
									<polygon id="Shape_57_" class="st0" points="109.1,42.7 109.5,43.7 110.2,43.9 110.9,44.5 111.7,45 111.8,45.3 111.9,46.2 
										112.6,46.7 113.3,46.9 113.7,47.1 114.3,46.4 114.6,46.4 115.2,47 115.5,47.6 116.1,47.9 116.7,47.9 116.8,47.5 
										116.2,46.7 115.8,46.1 115.7,45.9 115.8,45.5 114.8,44.6 113.9,44 113.3,43.7 112.5,43.4 111.5,43.2 110.9,43.6 
										110.4,43.6 110.5,43.3 110.5,42.9 110.4,42.7 109.9,42.5 109.6,42.4 109.4,42.5 									"/>
									<polygon id="Shape_58_" class="st0" points="113.4,47.9 113.6,47.9 113.7,50 113.9,52 114.8,54.2 115.3,56.8 114.6,58.4 
										113.1,60.7 111.2,62.7 110.8,63 110.3,63.1 109.8,63.4 109.3,63.6 109,63.6 109,63.3 108.6,63.3 108.3,63.7 107.9,63.4 
										107.5,62.7 107.3,61.8 107.1,61.1 107.7,60.6 107.7,60.3 107.4,60.3 106.8,60.6 106.7,61 106.4,61.1 106.4,60.5 
										106.4,59.7 106.1,59.4 103.7,59.5 101.9,59.8 100.2,60.6 99.6,60.7 99.2,60.7 98.8,60.1 99.4,58.1 99.7,55.8 99.9,53.8 
										101.6,52.9 103.1,52.7 105.1,50.8 106.3,49.7 107,49.7 107,50.1 107.7,50.1 107.5,49.8 107.5,49.4 108,49.3 108.6,48.5 
										109,48.1 109.3,48.1 109.7,48.4 110.5,48.5 110.7,48.8 110.2,50.1 110.2,50.6 110.5,50.9 111.4,51.7 111.8,51.6 
										112.6,50.3 112.7,49.1 113,48.3 									"/>
									<polygon id="Shape_59_" class="st0" points="120,62.3 120.2,62.6 120.4,63.7 120.4,64.3 121,64.4 121,64.7 120.5,64.7 
										119.9,65.1 119.3,65.8 118.9,66.3 118.5,66.2 118.5,65.7 118.7,65 119.2,64.8 119.6,64.2 119.8,63.4 119.9,62.6 									
										"/>
									<polygon id="Shape_60_" class="st0" points="117.8,65.6 118.1,66 118.2,66.5 117.6,66.7 116.6,67.1 115.8,67.6 115.4,67.9 
										115,68.4 114.7,68.6 114,68.6 113.7,68.6 113.6,68 114,67.8 115,67.4 115.6,66.9 116.5,66.6 117.1,65.9 									"/>
								</g>
							</g>
						</g>
						<g id="Oval-6" transform="translate(50.046041, 9.000000)">
							<path class="st1" d="M2.5,7C2.5,7,5,3.9,5,2.5S3.9,0,2.5,0S0,1.1,0,2.5S2.5,7,2.5,7z M2.5,3.4C3,3.4,3.4,3,3.4,2.5
								S3,1.6,2.5,1.6S1.6,2,1.6,2.5S2,3.4,2.5,3.4z"/>
						</g>
						<g id="Oval-6_1_" transform="translate(20.018416, 16.000000)">
							<path class="st1" d="M2.5,7C2.5,7,5,3.9,5,2.5S3.9,0,2.5,0S0,1.1,0,2.5S2.5,7,2.5,7z M2.5,3.4C3,3.4,3.4,3,3.4,2.5
								S3,1.6,2.5,1.6S1.6,2,1.6,2.5S2,3.4,2.5,3.4z"/>
						</g>
						<g id="Oval-6_2_" transform="translate(9.008287, 25.000000)">
							<path class="st1" d="M2.5,7C2.5,7,5,3.9,5,2.5S3.9,0,2.5,0S0,1.1,0,2.5S2.5,7,2.5,7z M2.5,3.4C3,3.4,3.4,3,3.4,2.5
								S3,1.6,2.5,1.6S1.6,2,1.6,2.5S2,3.4,2.5,3.4z"/>
						</g>
						<g id="Oval-6_3_" transform="translate(28.025783, 37.000000)">
							<path class="st1" d="M2.5,7C2.5,7,5,3.9,5,2.5S3.9,0,2.5,0S0,1.1,0,2.5S2.5,7,2.5,7z M2.5,3.4C3,3.4,3.4,3,3.4,2.5
								S3,1.6,2.5,1.6S1.6,2,1.6,2.5S2,3.4,2.5,3.4z"/>
						</g>
						<g id="Oval-6_4_" transform="translate(48.044199, 24.000000)">
							<path class="st1" d="M2.5,7C2.5,7,5,3.9,5,2.5S3.9,0,2.5,0S0,1.1,0,2.5S2.5,7,2.5,7z M2.5,3.4C3,3.4,3.4,3,3.4,2.5
								S3,1.6,2.5,1.6S1.6,2,1.6,2.5S2,3.4,2.5,3.4z"/>
						</g>
						<g id="Oval-6_5_" transform="translate(55.050645, 13.000000)">
							<path class="st1" d="M2.5,7C2.5,7,5,3.9,5,2.5S3.9,0,2.5,0S0,1.1,0,2.5S2.5,7,2.5,7z M2.5,3.4C3,3.4,3.4,3,3.4,2.5
								S3,1.6,2.5,1.6S1.6,2,1.6,2.5S2,3.4,2.5,3.4z"/>
						</g>
						<g id="Oval-6_6_" transform="translate(67.061694, 9.000000)">
							<path class="st1" d="M2.5,7C2.5,7,5,3.9,5,2.5S3.9,0,2.5,0S0,1.1,0,2.5S2.5,7,2.5,7z M2.5,3.4C3,3.4,3.4,3,3.4,2.5
								S3,1.6,2.5,1.6S1.6,2,1.6,2.5S2,3.4,2.5,3.4z"/>
						</g>
						<g id="Oval-6_7_" transform="translate(60.055249, 49.000000)">
							<path class="st1" d="M2.5,7C2.5,7,5,3.9,5,2.5S3.9,0,2.5,0S0,1.1,0,2.5S2.5,7,2.5,7z M2.5,3.4C3,3.4,3.4,3,3.4,2.5
								S3,1.6,2.5,1.6S1.6,2,1.6,2.5S2,3.4,2.5,3.4z"/>
						</g>
						<g id="Oval-6_8_" transform="translate(88.081031, 18.000000)">
							<path class="st1" d="M2.5,7C2.5,7,5,3.9,5,2.5S3.9,0,2.5,0S0,1.1,0,2.5S2.5,7,2.5,7z M2.5,3.4C3,3.4,3.4,3,3.4,2.5
								S3,1.6,2.5,1.6S1.6,2,1.6,2.5S2,3.4,2.5,3.4z"/>
						</g>
						<g id="Oval-6_9_" transform="translate(105.096685, 15.000000)">
							<path class="st1" d="M2.5,7C2.5,7,5,3.9,5,2.5S3.9,0,2.5,0S0,1.1,0,2.5S2.5,7,2.5,7z M2.5,3.4C3,3.4,3.4,3,3.4,2.5
								S3,1.6,2.5,1.6S1.6,2,1.6,2.5S2,3.4,2.5,3.4z"/>
						</g>
						<g id="Oval-6_10_" transform="translate(103.094843, 28.000000)">
							<path class="st1" d="M2.5,7C2.5,7,5,3.9,5,2.5S3.9,0,2.5,0S0,1.1,0,2.5S2.5,7,2.5,7z M2.5,3.4C3,3.4,3.4,3,3.4,2.5
								S3,1.6,2.5,1.6S1.6,2,1.6,2.5S2,3.4,2.5,3.4z"/>
						</g>
					</g>
					<g id="Oval-6_11_" transform="translate(106.097606, 46.000000)">
						<path class="st1" d="M2.5,7C2.5,7,5,3.9,5,2.5S3.9,0,2.5,0S0,1.1,0,2.5S2.5,7,2.5,7z M2.5,3.4C3,3.4,3.4,3,3.4,2.5
							S3,1.6,2.5,1.6S1.6,2,1.6,2.5S2,3.4,2.5,3.4z"/>
					</g>
				</g>
			</g>
		</g>
	</g>
</g>
</svg>
