<?xml version="1.0" encoding="UTF-8"?>
<svg width="32px" height="42px" viewBox="0 0 32 42" version="1.1" xmlns="http://www.w3.org/2000/svg" xmlns:xlink="http://www.w3.org/1999/xlink">
    <!-- Generator: Sketch 46.2 (44496) - http://www.bohemiancoding.com/sketch -->
    <title>Path</title>
    <desc>Created with Sketch.</desc>
    <defs></defs>
    <g id="Page-1" stroke="none" stroke-width="1" fill="none" fill-rule="evenodd">
        <path d="M1,15.3528693 C1,19.304591 2.41229017,22.8202095 5.44137919,24.130305 C5.93807752,24.345422 6.38298626,24.1377052 6.5270336,23.5551287 C6.62724044,23.1519439 6.86426816,22.1347953 6.97001528,21.7111961 C7.11526703,21.134999 7.05890068,20.9328963 6.65807331,20.4307015 C5.7846358,19.3392955 5.2265126,17.9263623 5.2265126,15.9249835 C5.2265126,10.1186117 9.32728488,4.92058963 15.9048041,4.92058963 C21.7290859,4.92058963 24.9289601,8.69062291 24.9289601,13.7255848 C24.9289601,20.3503197 22.1614688,25.9415746 18.0529883,25.9415746 C15.7841223,25.9415746 14.0856646,23.9537203 14.6300575,21.515728 C15.2818837,18.6051419 16.5445863,15.4638728 16.5445863,13.3629736 C16.5445863,11.482295 15.5916578,9.91370193 13.6195582,9.91370193 C11.3001071,9.91370193 9.43688611,12.4555526 9.43688611,15.8606781 C9.43688611,18.0294552 10.1286987,19.4962314 10.1286987,19.4962314 C10.1286987,19.4962314 7.75504917,30.1502627 7.33904625,32.0161408 C6.51041275,35.7320759 7.21451034,40.2872989 7.27400815,40.7473889 C7.30893602,41.0199214 7.63966677,41.0847372 7.78949527,40.8788067 C8.00339834,40.5830528 10.7658312,36.9702105 11.7050294,33.3601753 C11.9707221,32.3379231 13.2305341,27.0447189 13.2305341,27.0447189 C13.9840124,28.5673795 16.186395,29.908607 18.528489,29.908607 C25.5005727,29.908607 30.2307692,23.1751653 30.2307692,14.1621982 C30.2307692,7.3470988 24.7817813,1 16.5000231,1 C6.1955802,1 1,8.82637881 1,15.3528693 Z" id="Path" stroke="#1C1919" stroke-width="2"></path>
    </g>
</svg>