<?xml version="1.0" encoding="UTF-8"?>
<svg width="39px" height="63px" viewBox="0 0 39 63" version="1.1" xmlns="http://www.w3.org/2000/svg" xmlns:xlink="http://www.w3.org/1999/xlink">
    <!-- Generator: Sketch 46.2 (44496) - http://www.bohemiancoding.com/sketch -->
    <title>Page 1</title>
    <desc>Created with Sketch.</desc>
    <defs>
        <polygon id="path-1" points="30.9151959 0.126530612 30.9151959 30.9156041 -8.49315068e-05 30.9156041 -8.49315068e-05 0.126530612"></polygon>
        <polygon id="path-3" points="38.9577957 30 0 30 0 0.0418741259 38.9577957 0.0418741259"></polygon>
    </defs>
    <g id="become-a-deviser" stroke="none" stroke-width="1" fill="none" fill-rule="evenodd">
        <g id="BECOME-A-DEVISER" transform="translate(-996.000000, -1460.000000)">
            <g id="Page-1" transform="translate(996.000000, 1460.000000)">
                <g id="Group-3" transform="translate(5.000000, 0.000000)">
                    <mask id="mask-2" fill="white">
                        <use xlink:href="#path-1"></use>
                    </mask>
                    <g id="Clip-2"></g>
                    <path d="M15.4574493,28.1319306 C8.40813425,28.1319306 2.71772329,22.4802299 2.71772329,15.4788694 C2.63300411,8.47750884 8.40813425,2.82580816 15.4574493,2.82580816 C22.5067644,2.82580816 28.1971753,8.47750884 28.1971753,15.4788694 C28.1971753,22.4802299 22.5067644,28.1319306 15.4574493,28.1319306 M15.4574493,0.126488435 C6.96429863,0.126488435 -8.49315068e-05,7.04349524 -8.49315068e-05,15.4788694 C-8.49315068e-05,23.9142435 6.87957945,30.9156041 15.4574493,30.9156041 C24.0355315,30.9156041 30.9151959,23.9985973 30.9151959,15.5632231 C30.9151959,7.12784898 23.9506,0.126488435 15.4574493,0.126488435" id="Fill-1" fill="#1C1919" mask="url(#mask-2)"></path>
                </g>
                <g id="Group-6" transform="translate(0.000000, 33.000000)">
                    <mask id="mask-4" fill="white">
                        <use xlink:href="#path-3"></use>
                    </mask>
                    <g id="Clip-5"></g>
                    <path d="M36.2594173,10.950965 L34.1513092,10.950965 L11.215093,10.950965 L11.215093,8.18194406 L35.1632011,8.18194406 L36.2594173,8.18194406 L36.2594173,10.950965 Z M32.8023308,16.4055105 L29.0918497,16.4055105 L7.75779568,16.4055105 L7.75779568,13.6364895 L9.86590378,13.6364895 L32.8023308,13.6364895 L32.8023308,16.4055105 Z M30.6096876,24.4614545 L30.6096876,27.2308951 L5.56536324,27.2308951 L5.56536324,24.4614545 L29.0918497,24.4614545 L30.6096876,24.4614545 Z M2.69833622,21.7763497 L2.69833622,19.0069091 L6.40860649,19.0069091 L27.7428714,19.0069091 L27.7428714,21.7763497 L4.21617405,21.7763497 L2.69833622,21.7763497 Z M8.76968757,2.8111049 L33.8140119,2.8111049 L33.8140119,5.58033566 L9.86590378,5.58033566 L8.76968757,5.58033566 L8.76968757,2.8111049 Z M37.6086065,5.49641958 L36.5123903,5.49641958 L36.5123903,1.38453147 C36.5123903,0.629496503 35.92212,0.0418741259 35.1632011,0.0418741259 L7.42049838,0.0418741259 C6.66157946,0.0418741259 6.07130919,0.629496503 6.07130919,1.38453147 L6.07130919,6.83907692 C6.07130919,7.59432168 6.66157946,8.18194406 7.42049838,8.18194406 L8.51671459,8.18194406 L8.51671459,10.950965 L6.40860649,10.950965 C5.64968757,10.950965 5.0594173,11.5385874 5.0594173,12.2936224 L5.0594173,16.4055105 L1.34914703,16.4055105 C0.590228108,16.4055105 -4.21621622e-05,16.9931329 -4.21621622e-05,17.7481678 L-4.21621622e-05,23.2027133 C-4.21621622e-05,23.957958 0.590228108,24.5455804 1.34914703,24.5455804 L2.86698486,24.5455804 L2.86698486,28.6572587 C2.86698486,29.4125035 3.45725514,30.0001259 4.21617405,30.0001259 L31.9590876,30.0001259 C32.7177957,30.0001259 33.3080659,29.4125035 33.3080659,28.6572587 L33.3080659,23.2027133 C33.3080659,22.4476783 32.7177957,21.8600559 31.9590876,21.8600559 L30.4410389,21.8600559 L30.4410389,19.091035 L34.1513092,19.091035 C34.9104389,19.091035 35.5004984,18.5034126 35.5004984,17.7481678 L35.5004984,13.6364895 L37.6086065,13.6364895 C38.3675254,13.6364895 38.9577957,13.0488671 38.9577957,12.2936224 L38.9577957,6.83907692 C38.9577957,6.16774825 38.3675254,5.49641958 37.6086065,5.49641958 L37.6086065,5.49641958 Z" id="Fill-4" fill="#000000" mask="url(#mask-4)"></path>
                </g>
                <path d="M19.9074651,8 C13.1668197,15.0371111 27.0182796,13.5517778 19.9074651,24" id="Stroke-7" stroke="#F7284B" stroke-width="2"></path>
            </g>
        </g>
    </g>
</svg>