<?xml version="1.0" encoding="utf-8"?>
<!-- Generator: Adobe Illustrator 18.0.0, SVG Export Plug-In . SVG Version: 6.00 Build 0)  -->
<!DOCTYPE svg PUBLIC "-//W3C//DTD SVG 1.1//EN" "http://www.w3.org/Graphics/SVG/1.1/DTD/svg11.dtd">
<svg version="1.1" id="Capa_1" xmlns="http://www.w3.org/2000/svg" xmlns:xlink="http://www.w3.org/1999/xlink" x="0px" y="0px"
	 viewBox="0 0 190 120" enable-background="new 0 0 190 120" xml:space="preserve">
<g id="Group-12" transform="translate(2524.000000, 2135.000000)">
	<path id="photo-icon" fill="none" stroke="#939393" d="M-2435.7-2082.7c0-2.2-1.8-4-4-4c-2.2,0-4,1.8-4,4c0,2.2,1.8,4,4,4
		C-2437.5-2078.7-2435.7-2080.5-2435.7-2082.7L-2435.7-2082.7z M-2414.3-2074.7l-8.7-8.7l-10.7,10.7l-3.3-3.3l-6.7,6.7v4h29.3
		V-2074.7z M-2409-2088.7c0-1.8-1.5-3.3-3.3-3.3h-33.3c-1.8,0-3.3,1.5-3.3,3.3v25.3c0,1.8,1.5,3.3,3.3,3.3h33.3
		c1.8,0,3.3-1.5,3.3-3.3V-2088.7z"/>
</g>
</svg>
