<?xml version="1.0" encoding="utf-8"?>
<!-- Generator: Adobe Illustrator 23.0.0, SVG Export Plug-In . SVG Version: 6.00 Build 0)  -->
<svg version="1.1" id="Capa_1" xmlns="http://www.w3.org/2000/svg" xmlns:xlink="http://www.w3.org/1999/xlink" x="0px" y="0px"
	 viewBox="0 0 46 37.7" style="enable-background:new 0 0 46 37.7;" xml:space="preserve">
<style type="text/css">
	.st0{fill:none;stroke:#939393;}
</style>
<g id="Group-12" transform="translate(2524.000000, 2135.000000)">
	<path id="photo-icon" class="st0" d="M-2507.8-2122.8c0-2.2-1.8-4-4-4s-4,1.8-4,4s1.8,4,4,4S-2507.8-2120.6-2507.8-2122.8
		L-2507.8-2122.8z M-2486.4-2114.8l-8.7-8.7l-10.7,10.7l-3.3-3.3l-6.7,6.7v4h29.3L-2486.4-2114.8L-2486.4-2114.8z M-2481.1-2128.8
		c0-1.8-1.5-3.3-3.3-3.3h-33.3c-1.8,0-3.3,1.5-3.3,3.3v25.3c0,1.8,1.5,3.3,3.3,3.3h33.3c1.8,0,3.3-1.5,3.3-3.3V-2128.8z"/>
</g>
</svg>
