<?xml version="1.0" encoding="utf-8"?>
<!-- Generator: Adobe Illustrator 18.0.0, SVG Export Plug-In . SVG Version: 6.00 Build 0)  -->
<!DOCTYPE svg PUBLIC "-//W3C//DTD SVG 1.1//EN" "http://www.w3.org/Graphics/SVG/1.1/DTD/svg11.dtd">
<svg version="1.1" id="Capa_1" xmlns="http://www.w3.org/2000/svg" xmlns:xlink="http://www.w3.org/1999/xlink" x="0px" y="0px"
	 viewBox="518.9 -0.5 30.1 23.9" enable-background="new 518.9 -0.5 30.1 23.9" xml:space="preserve">
<title>Group 8 Copy 4</title>
<desc>Created with Sketch.</desc>
<g id="Page-1">
	<g id="REDISEÑO" transform="translate(-1698.000000, -1016.000000)">
		<g id="Group-8-Copy-4" transform="translate(1697.000000, 1015.000000)">
			<g id="Clip-2">
			</g>
			<defs>
				<filter id="Adobe_OpacityMaskFilter" filterUnits="userSpaceOnUse" x="519.9" y="0.5" width="30.1" height="23.9">
					<feColorMatrix  type="matrix" values="1 0 0 0 0  0 1 0 0 0  0 0 1 0 0  0 0 0 1 0"/>
				</filter>
			</defs>
			<mask maskUnits="userSpaceOnUse" x="519.9" y="0.5" width="30.1" height="23.9" id="mask-2_1_">
				<g filter="url(#Adobe_OpacityMaskFilter)">
					<polygon id="path-1_1_" fill="#FFFFFF" points="551.4,-1.4 518,-1.4 518,25.6 551.4,25.6 					"/>
				</g>
			</mask>
			<path id="Fill-1" mask="url(#mask-2_1_)" fill="none" stroke="#C91B39" d="M534.7,11.9l-9.6-1.8l9.5-4.8L534.7,11.9z M549.3,3.3
				L538,1c-0.1,0-0.2,0-0.3,0.1l-3.5,4.3l-4-4.2c-0.1-0.1-0.2-0.1-0.3,0l-9.3,4.6c-0.1,0-0.1,0.1-0.1,0.2s0,0.2,0.1,0.2l3.8,4.4
				l0,11c0,0.1,0.1,0.2,0.2,0.2l11.6,2.2c0.1,0,0.2,0,0.2-0.1c0.1,0,0.1-0.1,0.1-0.2V12.5c0-0.1-0.1-0.2-0.2-0.2l-1.7-0.3V5.3
				l10.9,2.5l-8.9,4.3c-0.1,0-0.1,0.1-0.1,0.2v11.1c0,0.1,0.1,0.2,0.1,0.2c0,0,0.1,0,0.1,0c0,0,0.1,0,0.1,0l9.2-4.3
				c0.1,0,0.1-0.1,0.1-0.2l0-11l3.2-4.3c0.1-0.1,0.1-0.2,0-0.2C549.4,3.4,549.3,3.3,549.3,3.3z"/>
		</g>
	</g>
</g>
</svg>
