<?xml version="1.0" encoding="UTF-8"?>
<svg width="31px" height="25px" viewBox="0 0 31 25" version="1.1" xmlns="http://www.w3.org/2000/svg" xmlns:xlink="http://www.w3.org/1999/xlink">
    <!-- Generator: Sketch 46.2 (44496) - http://www.bohemiancoding.com/sketch -->
    <title>Group 8 Copy 4</title>
    <desc>Created with Sketch.</desc>
    <defs>
        <polygon id="path-1" points="33.3529412 5.2356648e-15 2.10157882e-15 5.2356648e-15 0 27 33.3529412 27 33.3529412 0"></polygon>
    </defs>
    <g id="Page-1" stroke="none" stroke-width="1" fill="none" fill-rule="evenodd">
        <g id="REDISEÑO" transform="translate(-1698.000000, -1016.000000)">
            <g id="Group-8-Copy-4" transform="translate(1697.000000, 1015.000000)">
                <mask id="mask-2" fill="white">
                    <use xlink:href="#path-1"></use>
                </mask>
                <g id="Clip-2"></g>
                <path d="M16.652912,13.3289666 L7.08953718,11.5599286 L16.6289154,6.80937727 L16.652912,13.3289666 Z M31.2557484,4.6861186 L19.9658138,2.38814425 C19.8741749,2.36920511 19.7789341,2.39698773 19.7145188,2.46030078 L16.1829851,6.72231475 L12.1629338,2.50890079 C12.0795038,2.43799643 11.9574581,2.42359643 11.8576102,2.47250948 L2.52568328,7.05632775 C2.45071358,7.09326689 2.3986955,7.16111907 2.38562815,7.23937996 C2.37256081,7.31764084 2.39970068,7.3971539 2.45925762,7.45342348 L6.28530913,11.885107 L6.28262865,22.9011047 C6.28262865,23.0206091 6.37301112,23.1232873 6.49798854,23.1468439 L18.130187,25.3185834 C18.2440237,25.3235921 18.3042507,25.3040269 18.3526669,25.2666182 C18.4148205,25.2193486 18.4508395,25.148053 18.4508395,25.073079 L18.4508395,13.8552421 C18.4508395,13.7353464 18.3602057,13.6326681 18.2345582,13.6094247 L16.561268,13.3018594 L16.561268,6.72340595 L27.4713281,9.18737164 L18.5758755,13.4892942 C18.4921105,13.5335899 18.4403437,13.6167812 18.4403437,13.7069377 L18.4403437,24.7741224 C18.4403437,24.862792 18.4904352,24.9447312 18.5722736,24.9896529 C18.6141562,25.0128964 18.6612321,25.024479 18.7083918,25.024479 C18.752871,25.024479 18.7973503,25.0141486 18.8376413,24.9936442 L28.0592748,20.6586956 C28.1449664,20.614713 28.1979897,20.5306608 28.1979897,20.4392521 L28.2022617,9.41589787 L31.4033423,5.09276216 C31.4641558,5.02577084 31.4828354,4.93373604 31.4527637,4.85062298 C31.4226083,4.76719688 31.3480574,4.70513599 31.2557484,4.6861186 Z" id="Fill-1" stroke="#1C1919" mask="url(#mask-2)"></path>
            </g>
        </g>
    </g>
</svg>