<?xml version="1.0" encoding="UTF-8"?>
<svg width="54px" height="54px" viewBox="0 0 54 54" version="1.1" xmlns="http://www.w3.org/2000/svg" xmlns:xlink="http://www.w3.org/1999/xlink">
    <!-- Generator: Sketch 46.2 (44496) - http://www.bohemiancoding.com/sketch -->
    <title>Group 4</title>
    <desc>Created with Sketch.</desc>
    <defs></defs>
    <g id="become-a-deviser" stroke="none" stroke-width="1" fill="none" fill-rule="evenodd">
        <g id="BECOME-A-DEVISER" transform="translate(-612.000000, -1467.000000)">
            <g id="Group-4" transform="translate(612.000000, 1467.000000)">
                <g id="Group-Copy-5" transform="translate(19.000000, 17.000000)" stroke-width="1.2" fill="#1C1919">
                    <path d="M8,18 C12.418278,18 16,16.3137085 16,13 C16,9.6862915 12.418278,6 8,6 C3.581722,6 0,9.6862915 0,13 C0,16.3137085 3.581722,18 8,18 Z" id="Oval-30" stroke="#1C1919"></path>
                    <ellipse id="Oval-29" stroke="#FFFFFF" cx="8" cy="5.14285714" rx="5.33333333" ry="5.14285714"></ellipse>
                </g>
                <path d="M49.3760323,34.236871 C47.061,41.4023226 41.4005806,47.0627419 34.2342581,49.3769032 C33.7674194,49.5284516 33.2849032,49.2671613 33.1377097,48.816 C32.9896452,48.357871 33.2404839,47.8675161 33.6986129,47.7194516 C40.3327742,45.576 45.575129,40.3345161 47.7194516,33.7003548 C47.8675161,33.2430968 48.3552581,32.9922581 48.816,33.1385806 C49.2732581,33.2866452 49.5240968,33.777871 49.3760323,34.236871 M20.8614194,48.816 C20.7168387,49.2601935 20.2378065,49.5284516 19.764,49.3769032 C12.5985484,47.061871 6.93812903,41.4023226 4.62309677,34.236871 C4.47503226,33.7787419 4.72674194,33.2875161 5.184,33.1394516 C5.64474194,32.9922581 6.13335484,33.2430968 6.28054839,33.7012258 C8.424,40.3353871 13.6654839,45.576871 20.2996452,47.7203226 C20.7577742,47.8666452 21.0094839,48.357 20.8614194,48.816 M33.1394516,5.184 C33.2875161,4.72674194 33.7752581,4.47677419 34.236871,4.62309677 C41.4023226,6.93812903 47.0627419,12.5985484 49.3769032,19.764 C49.5249677,20.2212581 49.275,20.7124839 48.816,20.8605484 C48.3456774,21.0103548 47.8640323,20.7473226 47.7194516,20.2996452 C45.575129,13.6646129 40.3345161,8.424 33.6986129,6.28054839 C33.2422258,6.13335484 32.9913871,5.64212903 33.1394516,5.184 M4.62309677,19.764 C6.939,12.5985484 12.5985484,6.93812903 19.764,4.62309677 C20.2247419,4.47590323 20.7124839,4.72674194 20.8605484,5.184 C21.0086129,5.64212903 20.7569032,6.13248387 20.2996452,6.28054839 C13.6646129,8.424 8.424,13.6654839 6.28054839,20.2996452 C6.13683871,20.7481935 5.65606452,21.0103548 5.184,20.8605484 C4.72674194,20.7133548 4.47503226,20.222129 4.62309677,19.764 M27,45.2903226 C24.5987419,45.2903226 22.6451613,47.2439032 22.6451613,49.6451613 C22.6451613,52.0464194 24.5987419,54 27,54 C29.4012581,54 31.3548387,52.0464194 31.3548387,49.6451613 C31.3548387,47.2439032 29.4012581,45.2903226 27,45.2903226 M8.70967742,27 C8.70967742,24.5987419 6.75609677,22.6451613 4.35483871,22.6451613 C1.95358065,22.6451613 0,24.5987419 0,27 C0,29.4012581 1.95358065,31.3548387 4.35483871,31.3548387 C6.75609677,31.3548387 8.70967742,29.4012581 8.70967742,27 M27,8.70967742 C29.4012581,8.70967742 31.3548387,6.75609677 31.3548387,4.35483871 C31.3548387,1.95358065 29.4012581,0 27,0 C24.5987419,0 22.6451613,1.95358065 22.6451613,4.35483871 C22.6451613,6.75609677 24.5987419,8.70967742 27,8.70967742 M49.6451613,22.6451613 C47.2439032,22.6451613 45.2903226,24.5987419 45.2903226,27 C45.2903226,29.4012581 47.2439032,31.3548387 49.6451613,31.3548387 C52.0464194,31.3548387 54,29.4012581 54,27 C54,24.5987419 52.0464194,22.6451613 49.6451613,22.6451613" id="Page-1-Copy-6" fill="#1C1919"></path>
                <circle id="Oval-4-Copy" stroke="#F7284B" stroke-width="1.2" cx="27" cy="27" r="14"></circle>
            </g>
        </g>
    </g>
</svg>