<?xml version="1.0" encoding="utf-8"?>
<!-- Generator: Adobe Illustrator 19.2.1, SVG Export Plug-In . SVG Version: 6.00 Build 0)  -->
<svg version="1.1" id="Capa_1" xmlns="http://www.w3.org/2000/svg" xmlns:xlink="http://www.w3.org/1999/xlink" x="0px" y="0px"
	 viewBox="0 0 49 42" style="enable-background:new 0 0 49 42;" xml:space="preserve">
<style type="text/css">
	.st0{fill:none;stroke:#1C1919;stroke-width:2;}
</style>
<title>Path</title>
<desc>Created with Sketch.</desc>
<g id="Page-1">
	<path id="Path" class="st0" d="M23.5,11.6l0.1,1.7l-1.7-0.2C15.8,12.3,10.5,9.6,6,5L3.8,2.7L3.2,4.4C2,8.1,2.8,12.1,5.3,14.8
		c1.3,1.5,1,1.7-1.3,0.8c-0.8-0.3-1.5-0.5-1.6-0.4C2.2,15.5,3,18.7,3.6,20c0.9,1.8,2.6,3.5,4.6,4.5l1.6,0.8l-1.9,0
		c-1.9,0-1.9,0-1.7,0.8c0.7,2.3,3.3,4.7,6.3,5.8l2.1,0.7l-1.8,1.1c-2.7,1.6-5.8,2.5-9,2.6c-1.5,0-2.7,0.2-2.7,0.3
		C1,37,5.1,39,7.5,39.8c7.1,2.3,15.6,1.3,22-2.6c4.5-2.8,9-8.3,11.1-13.7c1.1-2.9,2.3-8.1,2.3-10.6c0-1.6,0.1-1.8,2-3.8
		c1.1-1.1,2.1-2.4,2.3-2.7c0.3-0.7,0.3-0.7-1.4-0.1c-2.8,1.1-3.2,0.9-1.8-0.7c1-1.1,2.3-3.2,2.3-3.8c0-0.1-0.5,0.1-1.1,0.4
		c-0.6,0.4-1.9,0.9-2.9,1.2L40.4,4l-1.6-1.2c-0.9-0.6-2.2-1.3-2.8-1.6c-1.7-0.5-4.3-0.4-5.9,0.1C25.8,3.1,23.2,7.2,23.5,11.6
		C23.5,11.6,23.2,7.2,23.5,11.6L23.5,11.6L23.5,11.6z"/>
</g>
</svg>
