<?xml version="1.0" encoding="utf-8"?>
<!-- Generator: Adobe Illustrator 18.0.0, SVG Export Plug-In . SVG Version: 6.00 Build 0)  -->
<!DOCTYPE svg PUBLIC "-//W3C//DTD SVG 1.1//EN" "http://www.w3.org/Graphics/SVG/1.1/DTD/svg11.dtd">
<svg version="1.1" id="Capa_1" xmlns="http://www.w3.org/2000/svg" xmlns:xlink="http://www.w3.org/1999/xlink" x="0px" y="0px"
	 viewBox="0 0 49 42" enable-background="new 0 0 49 42" xml:space="preserve">
<title>Path</title>
<desc>Created with Sketch.</desc>
<g id="Page-1">
	<g id="Path">
		<path fill="#1C1919" d="M15.4,42c-2.9,0-5.7-0.4-8.3-1.3c-0.1,0-7.2-2.4-7.2-4.1c0-1,0.8-1.2,3.7-1.3c3-0.1,6-0.9,8.5-2.5l0,0
			l-0.1,0C8.8,31.7,6,29,5.2,26.4C5.1,26,5,25.4,5.4,24.9c0.2-0.3,0.5-0.4,0.9-0.5c-1.5-1.1-2.8-2.5-3.5-4c0,0-1.9-4.4-1.1-5.7l0,0
			l0.3-0.5l0.6,0c0.2,0,0.5,0,1.2,0.3C1.7,11.6,1.1,7.7,2.3,4.1l1.1-3.3l3.4,3.5c4.4,4.5,9.5,7.1,15.3,7.9l0.5,0.1l-0.1-2
			c0,0,0,0,0,0l0-0.5l0,0c0-0.4,0-0.5,0.3-0.8l0,0c0.7-3.8,3.3-7,7-8.4C30.6,0.2,31.9,0,33.2,0c1.1,0,2.1,0.1,3,0.4
			c0.9,0.3,2.3,1.1,3.1,1.7l1.2,0.9l1.3-0.4c1-0.3,2.3-0.8,2.8-1.1c0.7-0.4,1.2-0.6,1.5-0.6h1l0.1,1c0,0.8-0.9,2.4-1.8,3.5
			c1.1-0.4,1.4-0.5,1.8-0.5c0.4,0,0.8,0.2,1,0.5c0.3,0.5,0.1,1.1-0.1,1.4c-0.3,0.6-1.6,2-2.5,3c-1.7,1.8-1.7,1.8-1.7,3.1
			c0,2.6-1.1,7.9-2.3,11c-2.2,5.6-6.8,11.3-11.5,14.2C25.8,40.6,20.6,42,15.4,42z M4.2,37.4c1.1,0.5,2.5,1.1,3.6,1.5
			c2.4,0.8,5,1.2,7.7,1.2c4.8,0,9.6-1.3,13.5-3.7c4.3-2.7,8.7-8.1,10.7-13.2c1.1-2.8,2.2-7.9,2.2-10.2c0-2,0.3-2.5,2.3-4.5
			c0.2-0.2,0.4-0.5,0.7-0.7c-0.6,0.2-1,0.3-1.3,0.3c-0.8,0-1.1-0.5-1.2-0.7c-0.3-0.8,0.2-1.5,0.9-2.3c0.3-0.3,0.6-0.7,0.9-1.1
			c-0.5,0.2-1.1,0.4-1.6,0.6l-2.3,0.8l-2.1-1.5c-0.8-0.6-2-1.2-2.6-1.4C34.9,2.1,34.1,2,33.2,2c-1.1,0-2.1,0.1-2.8,0.4
			c-3.8,1.4-6.1,5.1-5.9,9.2v0l0.2,2.9l-2.9-0.4C15.5,13.3,10,10.5,5.3,5.7L4.2,4.6l0,0.1C3.1,8.1,3.8,11.7,6,14.1
			c0.7,0.8,1.3,1.5,1,2.3c-0.1,0.2-0.4,0.7-1.2,0.7c-0.4,0-1.1-0.2-2.2-0.6c0,0-0.1,0-0.1,0c0.2,1,0.6,2.3,1,3
			c0.8,1.6,2.4,3.2,4.2,4.1l1.6,0.8l-0.4,1.9l-1.9,0c-0.2,0-0.4,0-0.6,0c0.8,1.8,3,3.8,5.5,4.6l4,1.4l-3.6,2.2
			C10.5,36.3,7.4,37.2,4.2,37.4z"/>
	</g>
</g>
</svg>
