<?xml version="1.0" encoding="UTF-8"?>
<svg width="49px" height="42px" viewBox="0 0 49 42" version="1.1" xmlns="http://www.w3.org/2000/svg" xmlns:xlink="http://www.w3.org/1999/xlink">
    <!-- Generator: Sketch 46.2 (44496) - http://www.bohemiancoding.com/sketch -->
    <title>Path</title>
    <desc>Created with Sketch.</desc>
    <defs></defs>
    <g id="Page-1" stroke="none" stroke-width="1" fill="none" fill-rule="evenodd">
        <path d="M23.4889587,11.6406263 L23.5893558,13.3707391 L21.9160702,13.1588886 C15.8253106,12.3467948 10.5042623,9.59273761 5.98639113,4.9673341 L3.77765407,2.67228644 L3.20873706,4.36709077 C2.00397138,8.14509227 2.7736827,12.1349443 5.28361114,14.8183844 C6.62223964,16.3013383 6.32104826,16.5131889 4.01191413,15.6304783 C3.20873706,15.3480108 2.50595706,15.1361603 2.43902557,15.2420856 C2.20476568,15.4892446 3.00794275,18.7023111 3.64379126,19.9734144 C4.51389981,21.7388358 6.28758251,23.4689485 8.22859377,24.4928928 L9.86841366,25.3049866 L7.92740239,25.340295 C6.05332246,25.340295 5.98639113,25.3756035 6.18718544,26.1170803 C6.85649969,28.412128 9.50029095,30.8484093 12.4452736,31.907662 L14.5201477,32.649139 L12.7129992,33.7790085 C10.0357422,35.403196 6.88996527,36.3212151 3.74418833,36.391832 C2.23823127,36.4271403 1,36.568374 1,36.6742993 C1,37.0273835 5.08281683,39.0046553 7.45888245,39.7814406 C14.5870792,42.0764883 23.0539044,41.0878523 29.4123897,37.1686173 C33.9302609,34.3792516 38.4481321,28.8358291 40.5564719,23.4689485 C41.6943061,20.6089661 42.8321403,15.3833193 42.8321403,12.8764211 C42.8321403,11.2522336 42.9325376,11.0403831 44.8066173,9.09841977 C45.9109859,7.96855011 46.9484231,6.73275527 47.1492172,6.37967094 C47.4838743,5.70881094 47.4504087,5.70881094 45.7436574,6.30905411 C42.8990718,7.36830694 42.4974832,7.22707327 43.9030432,5.6381941 C44.9404803,4.50832444 46.1787116,2.46043594 46.1787116,1.8601926 C46.1787116,1.75426744 45.6767259,1.9308096 45.1078089,2.24858527 C44.5054259,2.6016696 43.1667974,3.13129594 42.1628261,3.44907177 L40.3556776,4.04931494 L38.7158577,2.88413694 C37.8122834,2.24858527 36.5405864,1.54241693 35.8712722,1.33056627 C34.1645208,0.836248434 31.5541953,0.906865268 30.0147725,1.47179993 C25.8315584,3.0606791 23.1877672,7.15645644 23.4889587,11.6406263 C23.4889587,11.6406263 23.1877672,7.15645644 23.4889587,11.6406263 L23.4889587,11.6406263 L23.4889587,11.6406263 Z" id="Path" stroke="#1C1919" stroke-width="2"></path>
    </g>
</svg>